<?xml version="1.0" encoding="utf-8"?>
<!-- Generator: Adobe Illustrator 23.0.0, SVG Export Plug-In . SVG Version: 6.00 Build 0)  -->
<svg version="1.1" id="Layer_1" xmlns="http://www.w3.org/2000/svg" xmlns:xlink="http://www.w3.org/1999/xlink" x="0px" y="0px"
	 viewBox="0 0 640.57 500" style="enable-background:new 0 0 640.57 500;" xml:space="preserve">
<style type="text/css">
	.st0{fill:url(#SVGID_1_);}
	.st1{fill:url(#SVGID_2_);}
	.st2{fill:url(#SVGID_3_);}
	.st3{fill:url(#SVGID_4_);}
	.st4{fill:url(#SVGID_5_);}
	.st5{fill:url(#SVGID_6_);}
	.st6{fill:url(#SVGID_7_);}
	.st7{fill:url(#SVGID_8_);}
	.st8{fill:url(#SVGID_9_);}
	.st9{fill:url(#SVGID_10_);}
	.st10{fill:url(#SVGID_11_);}
	.st11{fill:url(#SVGID_12_);}
	.st12{fill:url(#SVGID_13_);}
	.st13{fill:url(#SVGID_14_);}
	.st14{fill:url(#SVGID_15_);}
	.st15{fill:url(#SVGID_16_);}
	.st16{fill:url(#SVGID_17_);}
	.st17{fill:url(#SVGID_18_);}
	.st18{fill:url(#SVGID_19_);}
	.st19{fill:url(#SVGID_20_);}
	.st20{fill:url(#SVGID_21_);}
	.st21{fill:url(#SVGID_22_);}
	.st22{fill:url(#SVGID_23_);}
	.st23{fill:url(#SVGID_24_);}
	.st24{fill:url(#SVGID_25_);}
	.st25{fill:url(#SVGID_26_);}
	.st26{fill:url(#SVGID_27_);}
	.st27{fill:url(#SVGID_28_);}
	.st28{fill:url(#SVGID_29_);}
	.st29{fill:url(#SVGID_30_);}
	.st30{fill:url(#SVGID_31_);}
	.st31{fill:url(#SVGID_32_);}
	.st32{fill:url(#SVGID_33_);}
	.st33{fill:url(#SVGID_34_);}
	.st34{fill:url(#SVGID_35_);}
	.st35{fill:url(#SVGID_36_);}
	.st36{fill:url(#SVGID_37_);}
	.st37{fill:url(#SVGID_38_);}
	.st38{fill:url(#SVGID_39_);}
	.st39{fill:url(#SVGID_40_);}
	.st40{fill:url(#SVGID_41_);}
	.st41{fill:url(#SVGID_42_);}
	.st42{fill:url(#SVGID_43_);}
	.st43{fill:url(#SVGID_44_);}
	.st44{fill:url(#SVGID_45_);}
	.st45{fill:url(#SVGID_46_);}
	.st46{fill:url(#SVGID_47_);}
	.st47{fill:url(#SVGID_48_);}
	.st48{fill:url(#SVGID_49_);}
	.st49{fill:url(#SVGID_50_);}
	.st50{fill:url(#SVGID_51_);}
	.st51{fill:url(#SVGID_52_);}
	.st52{fill:url(#SVGID_53_);}
	.st53{fill:url(#SVGID_54_);}
	.st54{fill:url(#SVGID_55_);}
	.st55{fill:url(#SVGID_56_);}
	.st56{fill:url(#SVGID_57_);}
	.st57{fill:url(#SVGID_58_);}
	.st58{fill:url(#SVGID_59_);}
	.st59{fill:url(#SVGID_60_);}
	.st60{fill:url(#SVGID_61_);}
	.st61{fill:#9B7D45;}
	.st62{fill:#FFFFFF;}
</style>
<g>
	<g>
		<linearGradient id="SVGID_1_" gradientUnits="userSpaceOnUse" x1="342.041" y1="395.4246" x2="342.041" y2="370.9527">
			<stop  offset="0" style="stop-color:#A27A2C"/>
			<stop  offset="0.5167" style="stop-color:#FEE993"/>
			<stop  offset="1" style="stop-color:#FFD77B"/>
		</linearGradient>
		<polygon class="st0" points="342.04,360.07 349.13,374.44 364.99,376.75 353.52,387.93 356.23,403.73 342.04,396.27 
			327.86,403.73 330.56,387.93 319.09,376.75 334.95,374.44 		"/>
		<linearGradient id="SVGID_2_" gradientUnits="userSpaceOnUse" x1="346.0427" y1="396.5033" x2="349.5212" y2="392.3514">
			<stop  offset="0" style="stop-color:#A27A2C"/>
			<stop  offset="0.0459" style="stop-color:#A8802D"/>
			<stop  offset="1" style="stop-color:#FEE993"/>
		</linearGradient>
		<polygon class="st1" points="342.04,396.27 342.04,381.9 356.23,403.73 		"/>
		<linearGradient id="SVGID_3_" gradientUnits="userSpaceOnUse" x1="337.9284" y1="395.4844" x2="333.6083" y2="391.6131">
			<stop  offset="0" style="stop-color:#A27A2C"/>
			<stop  offset="0.0459" style="stop-color:#A8802D"/>
			<stop  offset="1" style="stop-color:#FEE993"/>
		</linearGradient>
		<polygon class="st2" points="327.86,403.73 342.04,381.9 342.04,396.27 		"/>
		<linearGradient id="SVGID_4_" gradientUnits="userSpaceOnUse" x1="327.1201" y1="397.41" x2="331.9453" y2="393.7631">
			<stop  offset="0" style="stop-color:#A27A2C"/>
			<stop  offset="0.0459" style="stop-color:#A8802D"/>
			<stop  offset="1" style="stop-color:#FEE993"/>
		</linearGradient>
		<polygon class="st3" points="330.56,387.93 342.04,381.9 327.86,403.73 		"/>
		<linearGradient id="SVGID_5_" gradientUnits="userSpaceOnUse" x1="326.645" y1="386.2455" x2="330.0724" y2="380.1918">
			<stop  offset="0" style="stop-color:#A27A2C"/>
			<stop  offset="0.0459" style="stop-color:#A8802D"/>
			<stop  offset="1" style="stop-color:#FEE993"/>
		</linearGradient>
		<polygon class="st4" points="319.09,376.75 342.04,381.9 330.56,387.93 		"/>
		<linearGradient id="SVGID_6_" gradientUnits="userSpaceOnUse" x1="353.4351" y1="394.2193" x2="344.1776" y2="383.8396">
			<stop  offset="0" style="stop-color:#A27A2C"/>
			<stop  offset="0.0459" style="stop-color:#A8802D"/>
			<stop  offset="1" style="stop-color:#FEE993"/>
		</linearGradient>
		<polygon class="st5" points="353.52,387.93 342.04,381.9 356.23,403.73 		"/>
		<linearGradient id="SVGID_7_" gradientUnits="userSpaceOnUse" x1="357.0467" y1="383.2795" x2="352.6786" y2="378.382">
			<stop  offset="0" style="stop-color:#A27A2C"/>
			<stop  offset="0.0459" style="stop-color:#A8802D"/>
			<stop  offset="1" style="stop-color:#FEE993"/>
		</linearGradient>
		<polygon class="st6" points="364.99,376.75 342.04,381.9 353.52,387.93 		"/>
		<linearGradient id="SVGID_8_" gradientUnits="userSpaceOnUse" x1="357.3219" y1="383.588" x2="352.9055" y2="378.6363">
			<stop  offset="0" style="stop-color:#A27A2C"/>
			<stop  offset="0.0459" style="stop-color:#A8802D"/>
			<stop  offset="1" style="stop-color:#FEE993"/>
		</linearGradient>
		<polygon class="st7" points="349.13,374.44 342.04,381.9 364.99,376.75 		"/>
		<linearGradient id="SVGID_9_" gradientUnits="userSpaceOnUse" x1="347.3473" y1="373.7551" x2="342.2976" y2="371.118">
			<stop  offset="0" style="stop-color:#A27A2C"/>
			<stop  offset="0.0459" style="stop-color:#A8802D"/>
			<stop  offset="1" style="stop-color:#FEE993"/>
		</linearGradient>
		<polygon class="st8" points="342.04,360.07 342.04,381.9 349.13,374.44 		"/>
		<linearGradient id="SVGID_10_" gradientUnits="userSpaceOnUse" x1="342.9183" y1="371.4206" x2="335.0351" y2="367.4978">
			<stop  offset="0" style="stop-color:#FEE993"/>
			<stop  offset="0.9541" style="stop-color:#A8802D"/>
			<stop  offset="1" style="stop-color:#A27A2C"/>
		</linearGradient>
		<polygon class="st9" points="334.95,374.44 342.04,381.9 342.04,360.07 		"/>
		<linearGradient id="SVGID_11_" gradientUnits="userSpaceOnUse" x1="330.7037" y1="379.6593" x2="326.7606" y2="370.1049">
			<stop  offset="0" style="stop-color:#FEE993"/>
			<stop  offset="0.9541" style="stop-color:#A8802D"/>
			<stop  offset="1" style="stop-color:#A27A2C"/>
		</linearGradient>
		<polygon class="st10" points="319.09,376.75 334.95,374.44 342.04,381.9 		"/>
	</g>
	<g>
		<linearGradient id="SVGID_12_" gradientUnits="userSpaceOnUse" x1="400.3081" y1="397.6429" x2="400.3081" y2="369.1575">
			<stop  offset="0" style="stop-color:#A27A2C"/>
			<stop  offset="0.5167" style="stop-color:#FEE993"/>
			<stop  offset="1" style="stop-color:#FFD77B"/>
		</linearGradient>
		<polygon class="st11" points="400.31,356.49 408.56,373.22 427.03,375.9 413.67,388.92 416.82,407.31 400.31,398.63 383.8,407.31 
			386.95,388.92 373.59,375.9 392.05,373.22 		"/>
		<linearGradient id="SVGID_13_" gradientUnits="userSpaceOnUse" x1="404.966" y1="398.8984" x2="409.015" y2="394.0657">
			<stop  offset="0" style="stop-color:#A27A2C"/>
			<stop  offset="0.0459" style="stop-color:#A8802D"/>
			<stop  offset="1" style="stop-color:#FEE993"/>
		</linearGradient>
		<polygon class="st12" points="400.31,398.63 400.31,381.9 416.82,407.31 		"/>
		<linearGradient id="SVGID_14_" gradientUnits="userSpaceOnUse" x1="395.5211" y1="397.7125" x2="390.4924" y2="393.2063">
			<stop  offset="0" style="stop-color:#A27A2C"/>
			<stop  offset="0.0459" style="stop-color:#A8802D"/>
			<stop  offset="1" style="stop-color:#FEE993"/>
		</linearGradient>
		<polygon class="st13" points="383.8,407.31 400.31,381.9 400.31,398.63 		"/>
		<linearGradient id="SVGID_15_" gradientUnits="userSpaceOnUse" x1="382.9402" y1="399.9539" x2="388.5566" y2="395.7089">
			<stop  offset="0" style="stop-color:#A27A2C"/>
			<stop  offset="0.0459" style="stop-color:#A8802D"/>
			<stop  offset="1" style="stop-color:#FEE993"/>
		</linearGradient>
		<polygon class="st14" points="386.95,388.92 400.31,381.9 383.8,407.31 		"/>
		<linearGradient id="SVGID_16_" gradientUnits="userSpaceOnUse" x1="382.3871" y1="386.9583" x2="386.3766" y2="379.9118">
			<stop  offset="0" style="stop-color:#A27A2C"/>
			<stop  offset="0.0459" style="stop-color:#A8802D"/>
			<stop  offset="1" style="stop-color:#FEE993"/>
		</linearGradient>
		<polygon class="st15" points="373.59,375.9 400.31,381.9 386.95,388.92 		"/>
		<linearGradient id="SVGID_17_" gradientUnits="userSpaceOnUse" x1="417.7747" y1="383.5059" x2="412.6903" y2="377.8052">
			<stop  offset="0" style="stop-color:#A27A2C"/>
			<stop  offset="0.0459" style="stop-color:#A8802D"/>
			<stop  offset="1" style="stop-color:#FEE993"/>
		</linearGradient>
		<polygon class="st16" points="427.03,375.9 400.31,381.9 413.67,388.92 		"/>
		<linearGradient id="SVGID_18_" gradientUnits="userSpaceOnUse" x1="418.0951" y1="383.8651" x2="412.9544" y2="378.1013">
			<stop  offset="0" style="stop-color:#A27A2C"/>
			<stop  offset="0.0459" style="stop-color:#A8802D"/>
			<stop  offset="1" style="stop-color:#FEE993"/>
		</linearGradient>
		<polygon class="st17" points="408.56,373.22 400.31,381.9 427.03,375.9 		"/>
		<linearGradient id="SVGID_19_" gradientUnits="userSpaceOnUse" x1="406.4846" y1="372.4196" x2="400.6067" y2="369.35">
			<stop  offset="0" style="stop-color:#A27A2C"/>
			<stop  offset="0.0459" style="stop-color:#A8802D"/>
			<stop  offset="1" style="stop-color:#FEE993"/>
		</linearGradient>
		<polygon class="st18" points="400.31,356.49 400.31,381.9 408.56,373.22 		"/>
		<linearGradient id="SVGID_20_" gradientUnits="userSpaceOnUse" x1="401.3292" y1="369.7022" x2="392.1533" y2="365.136">
			<stop  offset="0" style="stop-color:#FEE993"/>
			<stop  offset="0.9541" style="stop-color:#A8802D"/>
			<stop  offset="1" style="stop-color:#A27A2C"/>
		</linearGradient>
		<polygon class="st19" points="392.05,373.22 400.31,381.9 400.31,356.49 		"/>
		<linearGradient id="SVGID_21_" gradientUnits="userSpaceOnUse" x1="387.1115" y1="379.292" x2="382.5217" y2="368.1708">
			<stop  offset="0" style="stop-color:#FEE993"/>
			<stop  offset="0.9541" style="stop-color:#A8802D"/>
			<stop  offset="1" style="stop-color:#A27A2C"/>
		</linearGradient>
		<polygon class="st20" points="373.59,375.9 392.05,373.22 400.31,381.9 		"/>
	</g>
	<g>
		
			<linearGradient id="SVGID_22_" gradientUnits="userSpaceOnUse" x1="161.1547" y1="395.4246" x2="161.1547" y2="370.9527" gradientTransform="matrix(-1 0 0 1 769.2883 0)">
			<stop  offset="0" style="stop-color:#A27A2C"/>
			<stop  offset="0.5167" style="stop-color:#FEE993"/>
			<stop  offset="1" style="stop-color:#FFD77B"/>
		</linearGradient>
		<polygon class="st21" points="608.13,360.07 601.04,374.44 585.18,376.75 596.66,387.93 593.95,403.73 608.13,396.27 
			622.32,403.73 619.61,387.93 631.09,376.75 615.23,374.44 		"/>
		
			<linearGradient id="SVGID_23_" gradientUnits="userSpaceOnUse" x1="165.1563" y1="396.5033" x2="168.6349" y2="392.3514" gradientTransform="matrix(-1 0 0 1 769.2883 0)">
			<stop  offset="0" style="stop-color:#A27A2C"/>
			<stop  offset="0.0459" style="stop-color:#A8802D"/>
			<stop  offset="1" style="stop-color:#FEE993"/>
		</linearGradient>
		<polygon class="st22" points="608.13,396.27 608.13,381.9 593.95,403.73 		"/>
		
			<linearGradient id="SVGID_24_" gradientUnits="userSpaceOnUse" x1="157.0421" y1="395.4844" x2="152.722" y2="391.6131" gradientTransform="matrix(-1 0 0 1 769.2883 0)">
			<stop  offset="0" style="stop-color:#A27A2C"/>
			<stop  offset="0.0459" style="stop-color:#A8802D"/>
			<stop  offset="1" style="stop-color:#FEE993"/>
		</linearGradient>
		<polygon class="st23" points="622.32,403.73 608.13,381.9 608.13,396.27 		"/>
		
			<linearGradient id="SVGID_25_" gradientUnits="userSpaceOnUse" x1="146.2338" y1="397.41" x2="151.0589" y2="393.7631" gradientTransform="matrix(-1 0 0 1 769.2883 0)">
			<stop  offset="0" style="stop-color:#A27A2C"/>
			<stop  offset="0.0459" style="stop-color:#A8802D"/>
			<stop  offset="1" style="stop-color:#FEE993"/>
		</linearGradient>
		<polygon class="st24" points="619.61,387.93 608.13,381.9 622.32,403.73 		"/>
		
			<linearGradient id="SVGID_26_" gradientUnits="userSpaceOnUse" x1="145.7587" y1="386.2455" x2="149.1861" y2="380.1918" gradientTransform="matrix(-1 0 0 1 769.2883 0)">
			<stop  offset="0" style="stop-color:#A27A2C"/>
			<stop  offset="0.0459" style="stop-color:#A8802D"/>
			<stop  offset="1" style="stop-color:#FEE993"/>
		</linearGradient>
		<polygon class="st25" points="631.09,376.75 608.13,381.9 619.61,387.93 		"/>
		
			<linearGradient id="SVGID_27_" gradientUnits="userSpaceOnUse" x1="172.5488" y1="394.2193" x2="163.2913" y2="383.8396" gradientTransform="matrix(-1 0 0 1 769.2883 0)">
			<stop  offset="0" style="stop-color:#A27A2C"/>
			<stop  offset="0.0459" style="stop-color:#A8802D"/>
			<stop  offset="1" style="stop-color:#FEE993"/>
		</linearGradient>
		<polygon class="st26" points="596.66,387.93 608.13,381.9 593.95,403.73 		"/>
		
			<linearGradient id="SVGID_28_" gradientUnits="userSpaceOnUse" x1="176.1604" y1="383.2795" x2="171.7923" y2="378.382" gradientTransform="matrix(-1 0 0 1 769.2883 0)">
			<stop  offset="0" style="stop-color:#A27A2C"/>
			<stop  offset="0.0459" style="stop-color:#A8802D"/>
			<stop  offset="1" style="stop-color:#FEE993"/>
		</linearGradient>
		<polygon class="st27" points="585.18,376.75 608.13,381.9 596.66,387.93 		"/>
		
			<linearGradient id="SVGID_29_" gradientUnits="userSpaceOnUse" x1="176.4356" y1="383.588" x2="172.0192" y2="378.6363" gradientTransform="matrix(-1 0 0 1 769.2883 0)">
			<stop  offset="0" style="stop-color:#A27A2C"/>
			<stop  offset="0.0459" style="stop-color:#A8802D"/>
			<stop  offset="1" style="stop-color:#FEE993"/>
		</linearGradient>
		<polygon class="st28" points="601.04,374.44 608.13,381.9 585.18,376.75 		"/>
		
			<linearGradient id="SVGID_30_" gradientUnits="userSpaceOnUse" x1="166.4609" y1="373.7551" x2="161.4112" y2="371.118" gradientTransform="matrix(-1 0 0 1 769.2883 0)">
			<stop  offset="0" style="stop-color:#A27A2C"/>
			<stop  offset="0.0459" style="stop-color:#A8802D"/>
			<stop  offset="1" style="stop-color:#FEE993"/>
		</linearGradient>
		<polygon class="st29" points="608.13,360.07 608.13,381.9 601.04,374.44 		"/>
		
			<linearGradient id="SVGID_31_" gradientUnits="userSpaceOnUse" x1="162.032" y1="371.4206" x2="154.1488" y2="367.4978" gradientTransform="matrix(-1 0 0 1 769.2883 0)">
			<stop  offset="0" style="stop-color:#FEE993"/>
			<stop  offset="0.9541" style="stop-color:#A8802D"/>
			<stop  offset="1" style="stop-color:#A27A2C"/>
		</linearGradient>
		<polygon class="st30" points="615.23,374.44 608.13,381.9 608.13,360.07 		"/>
		
			<linearGradient id="SVGID_32_" gradientUnits="userSpaceOnUse" x1="149.8174" y1="379.6593" x2="145.8743" y2="370.1049" gradientTransform="matrix(-1 0 0 1 769.2883 0)">
			<stop  offset="0" style="stop-color:#FEE993"/>
			<stop  offset="0.9541" style="stop-color:#A8802D"/>
			<stop  offset="1" style="stop-color:#A27A2C"/>
		</linearGradient>
		<polygon class="st31" points="631.09,376.75 615.23,374.44 608.13,381.9 		"/>
	</g>
	<g>
		
			<linearGradient id="SVGID_33_" gradientUnits="userSpaceOnUse" x1="219.4218" y1="397.6429" x2="219.4218" y2="369.1575" gradientTransform="matrix(-1 0 0 1 769.2883 0)">
			<stop  offset="0" style="stop-color:#A27A2C"/>
			<stop  offset="0.5167" style="stop-color:#FEE993"/>
			<stop  offset="1" style="stop-color:#FFD77B"/>
		</linearGradient>
		<polygon class="st32" points="549.87,356.49 541.61,373.22 523.15,375.9 536.51,388.92 533.35,407.31 549.87,398.63 
			566.38,407.31 563.23,388.92 576.58,375.9 558.12,373.22 		"/>
		
			<linearGradient id="SVGID_34_" gradientUnits="userSpaceOnUse" x1="224.0797" y1="398.8984" x2="228.1287" y2="394.0657" gradientTransform="matrix(-1 0 0 1 769.2883 0)">
			<stop  offset="0" style="stop-color:#A27A2C"/>
			<stop  offset="0.0459" style="stop-color:#A8802D"/>
			<stop  offset="1" style="stop-color:#FEE993"/>
		</linearGradient>
		<polygon class="st33" points="549.87,398.63 549.87,381.9 533.35,407.31 		"/>
		
			<linearGradient id="SVGID_35_" gradientUnits="userSpaceOnUse" x1="214.6347" y1="397.7125" x2="209.6061" y2="393.2063" gradientTransform="matrix(-1 0 0 1 769.2883 0)">
			<stop  offset="0" style="stop-color:#A27A2C"/>
			<stop  offset="0.0459" style="stop-color:#A8802D"/>
			<stop  offset="1" style="stop-color:#FEE993"/>
		</linearGradient>
		<polygon class="st34" points="566.38,407.31 549.87,381.9 549.87,398.63 		"/>
		
			<linearGradient id="SVGID_36_" gradientUnits="userSpaceOnUse" x1="202.0538" y1="399.9539" x2="207.6703" y2="395.7089" gradientTransform="matrix(-1 0 0 1 769.2883 0)">
			<stop  offset="0" style="stop-color:#A27A2C"/>
			<stop  offset="0.0459" style="stop-color:#A8802D"/>
			<stop  offset="1" style="stop-color:#FEE993"/>
		</linearGradient>
		<polygon class="st35" points="563.23,388.92 549.87,381.9 566.38,407.31 		"/>
		
			<linearGradient id="SVGID_37_" gradientUnits="userSpaceOnUse" x1="201.5008" y1="386.9583" x2="205.4903" y2="379.9118" gradientTransform="matrix(-1 0 0 1 769.2883 0)">
			<stop  offset="0" style="stop-color:#A27A2C"/>
			<stop  offset="0.0459" style="stop-color:#A8802D"/>
			<stop  offset="1" style="stop-color:#FEE993"/>
		</linearGradient>
		<polygon class="st36" points="576.58,375.9 549.87,381.9 563.23,388.92 		"/>
		
			<linearGradient id="SVGID_38_" gradientUnits="userSpaceOnUse" x1="232.6845" y1="396.2398" x2="221.9088" y2="384.1579" gradientTransform="matrix(-1 0 0 1 769.2883 0)">
			<stop  offset="0" style="stop-color:#A27A2C"/>
			<stop  offset="0.0459" style="stop-color:#A8802D"/>
			<stop  offset="1" style="stop-color:#FEE993"/>
		</linearGradient>
		<polygon class="st37" points="536.51,388.92 549.87,381.9 533.35,407.31 		"/>
		
			<linearGradient id="SVGID_39_" gradientUnits="userSpaceOnUse" x1="236.8884" y1="383.5059" x2="231.804" y2="377.8052" gradientTransform="matrix(-1 0 0 1 769.2883 0)">
			<stop  offset="0" style="stop-color:#A27A2C"/>
			<stop  offset="0.0459" style="stop-color:#A8802D"/>
			<stop  offset="1" style="stop-color:#FEE993"/>
		</linearGradient>
		<polygon class="st38" points="523.15,375.9 549.87,381.9 536.51,388.92 		"/>
		
			<linearGradient id="SVGID_40_" gradientUnits="userSpaceOnUse" x1="237.2088" y1="383.8651" x2="232.0681" y2="378.1013" gradientTransform="matrix(-1 0 0 1 769.2883 0)">
			<stop  offset="0" style="stop-color:#A27A2C"/>
			<stop  offset="0.0459" style="stop-color:#A8802D"/>
			<stop  offset="1" style="stop-color:#FEE993"/>
		</linearGradient>
		<polygon class="st39" points="541.61,373.22 549.87,381.9 523.15,375.9 		"/>
		
			<linearGradient id="SVGID_41_" gradientUnits="userSpaceOnUse" x1="225.5983" y1="372.4196" x2="219.7204" y2="369.35" gradientTransform="matrix(-1 0 0 1 769.2883 0)">
			<stop  offset="0" style="stop-color:#A27A2C"/>
			<stop  offset="0.0459" style="stop-color:#A8802D"/>
			<stop  offset="1" style="stop-color:#FEE993"/>
		</linearGradient>
		<polygon class="st40" points="549.87,356.49 549.87,381.9 541.61,373.22 		"/>
		
			<linearGradient id="SVGID_42_" gradientUnits="userSpaceOnUse" x1="220.4429" y1="369.7022" x2="211.2669" y2="365.136" gradientTransform="matrix(-1 0 0 1 769.2883 0)">
			<stop  offset="0" style="stop-color:#FEE993"/>
			<stop  offset="0.9541" style="stop-color:#A8802D"/>
			<stop  offset="1" style="stop-color:#A27A2C"/>
		</linearGradient>
		<polygon class="st41" points="558.12,373.22 549.87,381.9 549.87,356.49 		"/>
		
			<linearGradient id="SVGID_43_" gradientUnits="userSpaceOnUse" x1="206.2251" y1="379.292" x2="201.6353" y2="368.1708" gradientTransform="matrix(-1 0 0 1 769.2883 0)">
			<stop  offset="0" style="stop-color:#FEE993"/>
			<stop  offset="0.9541" style="stop-color:#A8802D"/>
			<stop  offset="1" style="stop-color:#A27A2C"/>
		</linearGradient>
		<polygon class="st42" points="576.58,375.9 558.12,373.22 549.87,381.9 		"/>
	</g>
	<g>
		<linearGradient id="SVGID_44_" gradientUnits="userSpaceOnUse" x1="474.4387" y1="402.8421" x2="474.4387" y2="362.2213">
			<stop  offset="0" style="stop-color:#A27A2C"/>
			<stop  offset="0.5167" style="stop-color:#FEE993"/>
			<stop  offset="1" style="stop-color:#FFD77B"/>
		</linearGradient>
		<polygon class="st43" points="474.44,344.16 486.21,368.01 512.54,371.84 493.49,390.41 497.99,416.63 474.44,404.25 
			450.89,416.63 455.39,390.41 436.34,371.84 462.67,368.01 		"/>
		<linearGradient id="SVGID_45_" gradientUnits="userSpaceOnUse" x1="481.081" y1="404.6326" x2="486.855" y2="397.741">
			<stop  offset="0" style="stop-color:#A27A2C"/>
			<stop  offset="0.0459" style="stop-color:#A8802D"/>
			<stop  offset="1" style="stop-color:#FEE993"/>
		</linearGradient>
		<polygon class="st44" points="474.44,404.25 474.44,380.39 497.99,416.63 		"/>
		<linearGradient id="SVGID_46_" gradientUnits="userSpaceOnUse" x1="467.6122" y1="402.9413" x2="460.4413" y2="396.5154">
			<stop  offset="0" style="stop-color:#A27A2C"/>
			<stop  offset="0.0459" style="stop-color:#A8802D"/>
			<stop  offset="1" style="stop-color:#FEE993"/>
		</linearGradient>
		<polygon class="st45" points="450.89,416.63 474.44,380.39 474.44,404.25 		"/>
		<linearGradient id="SVGID_47_" gradientUnits="userSpaceOnUse" x1="449.6716" y1="406.1377" x2="457.6808" y2="400.0842">
			<stop  offset="0" style="stop-color:#A27A2C"/>
			<stop  offset="0.0459" style="stop-color:#A8802D"/>
			<stop  offset="1" style="stop-color:#FEE993"/>
		</linearGradient>
		<polygon class="st46" points="455.39,390.41 474.44,380.39 450.89,416.63 		"/>
		<linearGradient id="SVGID_48_" gradientUnits="userSpaceOnUse" x1="448.8829" y1="387.6057" x2="454.5721" y2="377.5573">
			<stop  offset="0" style="stop-color:#A27A2C"/>
			<stop  offset="0.0459" style="stop-color:#A8802D"/>
			<stop  offset="1" style="stop-color:#FEE993"/>
		</linearGradient>
		<polygon class="st47" points="436.34,371.84 474.44,380.39 455.39,390.41 		"/>
		<linearGradient id="SVGID_49_" gradientUnits="userSpaceOnUse" x1="493.3517" y1="400.8413" x2="477.9852" y2="383.6122">
			<stop  offset="0" style="stop-color:#A27A2C"/>
			<stop  offset="0.0459" style="stop-color:#A8802D"/>
			<stop  offset="1" style="stop-color:#FEE993"/>
		</linearGradient>
		<polygon class="st48" points="493.49,390.41 474.44,380.39 497.99,416.63 		"/>
		<linearGradient id="SVGID_50_" gradientUnits="userSpaceOnUse" x1="499.3465" y1="382.6825" x2="492.096" y2="374.5532">
			<stop  offset="0" style="stop-color:#A27A2C"/>
			<stop  offset="0.0459" style="stop-color:#A8802D"/>
			<stop  offset="1" style="stop-color:#FEE993"/>
		</linearGradient>
		<polygon class="st49" points="512.54,371.84 474.44,380.39 493.49,390.41 		"/>
		<linearGradient id="SVGID_51_" gradientUnits="userSpaceOnUse" x1="499.8033" y1="383.1947" x2="492.4726" y2="374.9754">
			<stop  offset="0" style="stop-color:#A27A2C"/>
			<stop  offset="0.0459" style="stop-color:#A8802D"/>
			<stop  offset="1" style="stop-color:#FEE993"/>
		</linearGradient>
		<polygon class="st50" points="486.21,368.01 474.44,380.39 512.54,371.84 		"/>
		<linearGradient id="SVGID_52_" gradientUnits="userSpaceOnUse" x1="483.2465" y1="366.8731" x2="474.8645" y2="362.4958">
			<stop  offset="0" style="stop-color:#A27A2C"/>
			<stop  offset="0.0459" style="stop-color:#A8802D"/>
			<stop  offset="1" style="stop-color:#FEE993"/>
		</linearGradient>
		<polygon class="st51" points="474.44,344.16 474.44,380.39 486.21,368.01 		"/>
		<linearGradient id="SVGID_53_" gradientUnits="userSpaceOnUse" x1="475.8948" y1="362.9981" x2="462.8097" y2="356.4865">
			<stop  offset="0" style="stop-color:#FEE993"/>
			<stop  offset="0.9541" style="stop-color:#A8802D"/>
			<stop  offset="1" style="stop-color:#A27A2C"/>
		</linearGradient>
		<polygon class="st52" points="462.67,368.01 474.44,380.39 474.44,344.16 		"/>
		<linearGradient id="SVGID_54_" gradientUnits="userSpaceOnUse" x1="455.62" y1="376.6733" x2="449.0748" y2="360.8142">
			<stop  offset="0" style="stop-color:#FEE993"/>
			<stop  offset="0.9541" style="stop-color:#A8802D"/>
			<stop  offset="1" style="stop-color:#A27A2C"/>
		</linearGradient>
		<polygon class="st53" points="436.34,371.84 462.67,368.01 474.44,380.39 		"/>
	</g>
	<linearGradient id="SVGID_55_" gradientUnits="userSpaceOnUse" x1="123.4584" y1="243.1394" x2="331.272" y2="243.1394">
		<stop  offset="0" style="stop-color:#BCA058"/>
		<stop  offset="1" style="stop-color:#9B7D45"/>
	</linearGradient>
	<polygon class="st54" points="123.46,151.57 123.46,334.71 180.5,334.71 180.5,266.88 274.85,266.88 274.85,334.71 331.27,334.71 
		331.27,217.24 180.81,217.24 180.81,151.57 	"/>
	<linearGradient id="SVGID_56_" gradientUnits="userSpaceOnUse" x1="380.1964" y1="343.7192" x2="316.2271" y2="103.0731">
		<stop  offset="0" style="stop-color:#989898"/>
		<stop  offset="1" style="stop-color:#D3D3D3"/>
	</linearGradient>
	<polygon class="st55" points="274.54,151.57 274.54,209.53 331.27,209.53 331.27,193.19 399.1,192.88 399.1,151.57 	"/>
	<linearGradient id="SVGID_57_" gradientUnits="userSpaceOnUse" x1="409.0873" y1="336.0393" x2="345.1181" y2="95.3932">
		<stop  offset="0" style="stop-color:#989898"/>
		<stop  offset="1" style="stop-color:#D3D3D3"/>
	</linearGradient>
	<polygon class="st56" points="341.76,202.75 341.76,334.71 462.93,334.71 462.93,286.61 399.1,286.92 399.1,202.75 	"/>
	<linearGradient id="SVGID_58_" gradientUnits="userSpaceOnUse" x1="409.5875" y1="243.1394" x2="632.2009" y2="243.1394">
		<stop  offset="0" style="stop-color:#BCA058"/>
		<stop  offset="1" style="stop-color:#9B7D45"/>
	</linearGradient>
	<polygon class="st57" points="409.59,276.75 409.59,151.57 502.62,151.57 578.24,289.39 578.24,151.57 632.2,151.57 632.2,334.71 
		539.7,334.71 462.93,196.58 462.93,277.13 	"/>
	<linearGradient id="SVGID_59_" gradientUnits="userSpaceOnUse" x1="53.0014" y1="328.2788" x2="310.6165" y2="328.2788">
		<stop  offset="0" style="stop-color:#BCA058"/>
		<stop  offset="1" style="stop-color:#9B7D45"/>
	</linearGradient>
	<path class="st58" d="M263.15,429.21c-67.86,25.43-150.6-27.98-184.82-119.29c-15.24-40.66-18.27-81.98-10.97-117.55
		c-18.46,40.58-19.85,95.14,0.17,148.57c33.54,89.5,114.43,141.92,180.69,117.1c28.96-10.85,50.33-34.67,62.41-65.53
		C298.38,409.2,282.4,421.99,263.15,429.21z"/>
	<linearGradient id="SVGID_60_" gradientUnits="userSpaceOnUse" x1="7.0731" y1="244.7328" x2="184.5052" y2="244.7328">
		<stop  offset="0" style="stop-color:#989898"/>
		<stop  offset="1" style="stop-color:#D3D3D3"/>
	</linearGradient>
	<path class="st59" d="M36.73,313.35c-21.09-97.88,23.75-190.58,100.15-207.04c15.95-3.44,32.01-3.27,47.63,0.02
		c-29.82-17.23-62.66-22.78-93.35-12.95C20.57,116.01-11.96,211.38,18.5,306.42c12.32,38.43,33.05,70.92,58.04,94.5
		C58.06,376.86,43.97,346.99,36.73,313.35z"/>
	<linearGradient id="SVGID_61_" gradientUnits="userSpaceOnUse" x1="8.4735" y1="99.8674" x2="255.4439" y2="99.8674">
		<stop  offset="0" style="stop-color:#FEE993"/>
		<stop  offset="0.9541" style="stop-color:#A8802D"/>
		<stop  offset="1" style="stop-color:#A27A2C"/>
	</linearGradient>
	<path class="st60" d="M255.44,113.05C204.4,46.64,126.64,18.3,69.09,49.67C30.77,70.55,9.88,113.32,8.47,162.85
		c7.64-35.97,26.96-65.81,56.99-82.17c47.57-25.92,108.95-11.07,157.63,32.37H255.44z"/>
	<rect x="758.43" y="137.35" class="st61" width="284.93" height="230.66"/>
	<rect x="1199.15" y="131.2" class="st62" width="270.58" height="203.51"/>
</g>
</svg>
