<?xml version="1.0" encoding="utf-8"?>
<!-- Generator: Adobe Illustrator 23.0.0, SVG Export Plug-In . SVG Version: 6.00 Build 0)  -->
<svg version="1.1" id="Layer_1" xmlns="http://www.w3.org/2000/svg" xmlns:xlink="http://www.w3.org/1999/xlink" x="0px" y="0px"
	 viewBox="0 0 495.03 350.52" style="enable-background:new 0 0 495.03 350.52;" xml:space="preserve">
<style type="text/css">
	.st0{fill:url(#SVGID_1_);}
	.st1{fill:url(#SVGID_2_);}
	.st2{fill:url(#SVGID_3_);}
	.st3{fill:url(#SVGID_4_);}
	.st4{fill:url(#SVGID_5_);}
	.st5{fill:url(#SVGID_6_);}
	.st6{fill:url(#SVGID_7_);}
	.st7{fill:url(#SVGID_8_);}
	.st8{fill:url(#SVGID_9_);}
	.st9{fill:url(#SVGID_10_);}
	.st10{fill:url(#SVGID_11_);}
	.st11{fill:url(#SVGID_12_);}
	.st12{fill:url(#SVGID_13_);}
	.st13{fill:url(#SVGID_14_);}
	.st14{fill:url(#SVGID_15_);}
	.st15{fill:url(#SVGID_16_);}
	.st16{fill:url(#SVGID_17_);}
	.st17{fill:url(#SVGID_18_);}
	.st18{fill:url(#SVGID_19_);}
	.st19{fill:url(#SVGID_20_);}
	.st20{fill:url(#SVGID_21_);}
	.st21{fill:url(#SVGID_22_);}
	.st22{fill:url(#SVGID_23_);}
	.st23{fill:url(#SVGID_24_);}
	.st24{fill:url(#SVGID_25_);}
	.st25{fill:url(#SVGID_26_);}
	.st26{fill:url(#SVGID_27_);}
	.st27{fill:url(#SVGID_28_);}
	.st28{fill:url(#SVGID_29_);}
	.st29{fill:url(#SVGID_30_);}
	.st30{fill:url(#SVGID_31_);}
	.st31{fill:url(#SVGID_32_);}
	.st32{fill:url(#SVGID_33_);}
	.st33{fill:url(#SVGID_34_);}
	.st34{fill:url(#SVGID_35_);}
	.st35{fill:url(#SVGID_36_);}
	.st36{fill:url(#SVGID_37_);}
	.st37{fill:url(#SVGID_38_);}
	.st38{fill:url(#SVGID_39_);}
	.st39{fill:url(#SVGID_40_);}
	.st40{fill:url(#SVGID_41_);}
	.st41{fill:url(#SVGID_42_);}
	.st42{fill:url(#SVGID_43_);}
	.st43{fill:url(#SVGID_44_);}
	.st44{fill:url(#SVGID_45_);}
	.st45{fill:url(#SVGID_46_);}
	.st46{fill:url(#SVGID_47_);}
	.st47{fill:url(#SVGID_48_);}
	.st48{fill:url(#SVGID_49_);}
	.st49{fill:url(#SVGID_50_);}
	.st50{fill:url(#SVGID_51_);}
	.st51{fill:url(#SVGID_52_);}
	.st52{fill:url(#SVGID_53_);}
	.st53{fill:url(#SVGID_54_);}
	.st54{fill:url(#SVGID_55_);}
	.st55{fill:url(#SVGID_56_);}
	.st56{fill:url(#SVGID_57_);}
	.st57{fill:url(#SVGID_58_);}
	.st58{fill:url(#SVGID_59_);}
	.st59{fill:url(#SVGID_60_);}
	.st60{fill:url(#SVGID_61_);}
	.st61{fill:url(#SVGID_62_);}
	.st62{fill:url(#SVGID_63_);}
	.st63{fill:url(#SVGID_64_);}
	.st64{fill:url(#SVGID_65_);}
	.st65{fill:url(#SVGID_66_);}
	.st66{fill:url(#SVGID_67_);}
	.st67{fill:url(#SVGID_68_);}
	.st68{fill:url(#SVGID_69_);}
	.st69{fill:url(#SVGID_70_);}
	.st70{fill:url(#SVGID_71_);}
	.st71{fill:url(#SVGID_72_);}
	.st72{fill:url(#SVGID_73_);}
	.st73{fill:url(#SVGID_74_);}
	.st74{fill:url(#SVGID_75_);}
	.st75{fill:url(#SVGID_76_);}
	.st76{fill:url(#SVGID_77_);}
</style>
<g>
	<g>
		<g>
			<linearGradient id="SVGID_1_" gradientUnits="userSpaceOnUse" x1="263.6375" y1="248.6765" x2="263.6375" y2="232.6492">
				<stop  offset="0" style="stop-color:#A27A2C"/>
				<stop  offset="0.5167" style="stop-color:#FFEA93"/>
				<stop  offset="1" style="stop-color:#FFD77B"/>
			</linearGradient>
			<polygon class="st0" points="263.64,225.52 268.28,234.93 278.67,236.44 271.15,243.77 272.93,254.11 263.64,249.23 
				254.35,254.11 256.12,243.77 248.61,236.44 258.99,234.93 			"/>
			<linearGradient id="SVGID_2_" gradientUnits="userSpaceOnUse" x1="266.2582" y1="249.383" x2="268.5364" y2="246.6638">
				<stop  offset="0" style="stop-color:#A27A2C"/>
				<stop  offset="0.0459" style="stop-color:#A7802D"/>
				<stop  offset="1" style="stop-color:#FFEA93"/>
			</linearGradient>
			<polygon class="st1" points="263.64,249.23 263.64,239.82 272.93,254.11 			"/>
			<linearGradient id="SVGID_3_" gradientUnits="userSpaceOnUse" x1="260.944" y1="248.7157" x2="258.1146" y2="246.1803">
				<stop  offset="0" style="stop-color:#A27A2C"/>
				<stop  offset="0.0459" style="stop-color:#A7802D"/>
				<stop  offset="1" style="stop-color:#FFEA93"/>
			</linearGradient>
			<polygon class="st2" points="254.35,254.11 263.64,239.82 263.64,249.23 			"/>
			<linearGradient id="SVGID_4_" gradientUnits="userSpaceOnUse" x1="253.8653" y1="249.9768" x2="257.0254" y2="247.5884">
				<stop  offset="0" style="stop-color:#A27A2C"/>
				<stop  offset="0.0459" style="stop-color:#A7802D"/>
				<stop  offset="1" style="stop-color:#FFEA93"/>
			</linearGradient>
			<polygon class="st3" points="256.12,243.77 263.64,239.82 254.35,254.11 			"/>
			<linearGradient id="SVGID_5_" gradientUnits="userSpaceOnUse" x1="253.5541" y1="242.6649" x2="255.7989" y2="238.7001">
				<stop  offset="0" style="stop-color:#A27A2C"/>
				<stop  offset="0.0459" style="stop-color:#A7802D"/>
				<stop  offset="1" style="stop-color:#FFEA93"/>
			</linearGradient>
			<polygon class="st4" points="248.61,236.44 263.64,239.82 256.12,243.77 			"/>
			<linearGradient id="SVGID_6_" gradientUnits="userSpaceOnUse" x1="271.0998" y1="247.8871" x2="265.0367" y2="241.0892">
				<stop  offset="0" style="stop-color:#A27A2C"/>
				<stop  offset="0.0459" style="stop-color:#A7802D"/>
				<stop  offset="1" style="stop-color:#FFEA93"/>
			</linearGradient>
			<polygon class="st5" points="271.15,243.77 263.64,239.82 272.93,254.11 			"/>
			<linearGradient id="SVGID_7_" gradientUnits="userSpaceOnUse" x1="273.4651" y1="240.7223" x2="270.6043" y2="237.5148">
				<stop  offset="0" style="stop-color:#A27A2C"/>
				<stop  offset="0.0459" style="stop-color:#A7802D"/>
				<stop  offset="1" style="stop-color:#FFEA93"/>
			</linearGradient>
			<polygon class="st6" points="278.67,236.44 263.64,239.82 271.15,243.77 			"/>
			<linearGradient id="SVGID_8_" gradientUnits="userSpaceOnUse" x1="273.6453" y1="240.9244" x2="270.7529" y2="237.6814">
				<stop  offset="0" style="stop-color:#A27A2C"/>
				<stop  offset="0.0459" style="stop-color:#A7802D"/>
				<stop  offset="1" style="stop-color:#FFEA93"/>
			</linearGradient>
			<polygon class="st7" points="268.28,234.93 263.64,239.82 278.67,236.44 			"/>
			<linearGradient id="SVGID_9_" gradientUnits="userSpaceOnUse" x1="267.1127" y1="234.4846" x2="263.8055" y2="232.7575">
				<stop  offset="0" style="stop-color:#A27A2C"/>
				<stop  offset="0.0459" style="stop-color:#A7802D"/>
				<stop  offset="1" style="stop-color:#FFEA93"/>
			</linearGradient>
			<polygon class="st8" points="263.64,225.52 263.64,239.82 268.28,234.93 			"/>
			<linearGradient id="SVGID_10_" gradientUnits="userSpaceOnUse" x1="264.212" y1="232.9556" x2="259.0491" y2="230.3864">
				<stop  offset="0" style="stop-color:#FFEA93"/>
				<stop  offset="0.9541" style="stop-color:#A7802D"/>
				<stop  offset="1" style="stop-color:#A27A2C"/>
			</linearGradient>
			<polygon class="st9" points="258.99,234.93 263.64,239.82 263.64,225.52 			"/>
			<linearGradient id="SVGID_11_" gradientUnits="userSpaceOnUse" x1="256.2123" y1="238.3513" x2="253.6299" y2="232.094">
				<stop  offset="0" style="stop-color:#FFEA93"/>
				<stop  offset="0.9541" style="stop-color:#A7802D"/>
				<stop  offset="1" style="stop-color:#A27A2C"/>
			</linearGradient>
			<polygon class="st10" points="248.61,236.44 258.99,234.93 263.64,239.82 			"/>
		</g>
		<g>
			<linearGradient id="SVGID_12_" gradientUnits="userSpaceOnUse" x1="301.7982" y1="250.1293" x2="301.7982" y2="231.4734">
				<stop  offset="0" style="stop-color:#A27A2C"/>
				<stop  offset="0.5167" style="stop-color:#FFEA93"/>
				<stop  offset="1" style="stop-color:#FFD77B"/>
			</linearGradient>
			<polygon class="st11" points="301.8,223.18 307.21,234.13 319.3,235.89 310.55,244.42 312.61,256.46 301.8,250.77 290.98,256.46 
				293.05,244.42 284.3,235.89 296.39,234.13 			"/>
			<linearGradient id="SVGID_13_" gradientUnits="userSpaceOnUse" x1="304.8488" y1="250.9516" x2="307.5007" y2="247.7865">
				<stop  offset="0" style="stop-color:#A27A2C"/>
				<stop  offset="0.0459" style="stop-color:#A7802D"/>
				<stop  offset="1" style="stop-color:#FFEA93"/>
			</linearGradient>
			<polygon class="st12" points="301.8,250.77 301.8,239.82 312.61,256.46 			"/>
			<linearGradient id="SVGID_14_" gradientUnits="userSpaceOnUse" x1="298.6631" y1="250.1749" x2="295.3697" y2="247.2237">
				<stop  offset="0" style="stop-color:#A27A2C"/>
				<stop  offset="0.0459" style="stop-color:#A7802D"/>
				<stop  offset="1" style="stop-color:#FFEA93"/>
			</linearGradient>
			<polygon class="st13" points="290.98,256.46 301.8,239.82 301.8,250.77 			"/>
			<linearGradient id="SVGID_15_" gradientUnits="userSpaceOnUse" x1="290.4235" y1="251.6429" x2="294.1019" y2="248.8627">
				<stop  offset="0" style="stop-color:#A27A2C"/>
				<stop  offset="0.0459" style="stop-color:#A7802D"/>
				<stop  offset="1" style="stop-color:#FFEA93"/>
			</linearGradient>
			<polygon class="st14" points="293.05,244.42 301.8,239.82 290.98,256.46 			"/>
			<linearGradient id="SVGID_16_" gradientUnits="userSpaceOnUse" x1="290.0612" y1="243.1317" x2="292.6741" y2="238.5168">
				<stop  offset="0" style="stop-color:#A27A2C"/>
				<stop  offset="0.0459" style="stop-color:#A7802D"/>
				<stop  offset="1" style="stop-color:#FFEA93"/>
			</linearGradient>
			<polygon class="st15" points="284.3,235.89 301.8,239.82 293.05,244.42 			"/>
			<linearGradient id="SVGID_17_" gradientUnits="userSpaceOnUse" x1="313.2376" y1="240.8706" x2="309.9077" y2="237.1371">
				<stop  offset="0" style="stop-color:#A27A2C"/>
				<stop  offset="0.0459" style="stop-color:#A7802D"/>
				<stop  offset="1" style="stop-color:#FFEA93"/>
			</linearGradient>
			<polygon class="st16" points="319.3,235.89 301.8,239.82 310.55,244.42 			"/>
			<linearGradient id="SVGID_18_" gradientUnits="userSpaceOnUse" x1="313.4474" y1="241.1059" x2="310.0807" y2="237.331">
				<stop  offset="0" style="stop-color:#A27A2C"/>
				<stop  offset="0.0459" style="stop-color:#A7802D"/>
				<stop  offset="1" style="stop-color:#FFEA93"/>
			</linearGradient>
			<polygon class="st17" points="307.21,234.13 301.8,239.82 319.3,235.89 			"/>
			<linearGradient id="SVGID_19_" gradientUnits="userSpaceOnUse" x1="305.8434" y1="233.6099" x2="301.9938" y2="231.5995">
				<stop  offset="0" style="stop-color:#A27A2C"/>
				<stop  offset="0.0459" style="stop-color:#A7802D"/>
				<stop  offset="1" style="stop-color:#FFEA93"/>
			</linearGradient>
			<polygon class="st18" points="301.8,223.18 301.8,239.82 307.21,234.13 			"/>
			<linearGradient id="SVGID_20_" gradientUnits="userSpaceOnUse" x1="302.467" y1="231.8302" x2="296.4574" y2="228.8396">
				<stop  offset="0" style="stop-color:#FFEA93"/>
				<stop  offset="0.9541" style="stop-color:#A7802D"/>
				<stop  offset="1" style="stop-color:#A27A2C"/>
			</linearGradient>
			<polygon class="st19" points="296.39,234.13 301.8,239.82 301.8,223.18 			"/>
			<linearGradient id="SVGID_21_" gradientUnits="userSpaceOnUse" x1="293.1554" y1="238.1108" x2="290.1494" y2="230.8272">
				<stop  offset="0" style="stop-color:#FFEA93"/>
				<stop  offset="0.9541" style="stop-color:#A7802D"/>
				<stop  offset="1" style="stop-color:#A27A2C"/>
			</linearGradient>
			<polygon class="st20" points="284.3,235.89 296.39,234.13 301.8,239.82 			"/>
		</g>
		<g>
			
				<linearGradient id="SVGID_22_" gradientUnits="userSpaceOnUse" x1="208.3898" y1="248.6765" x2="208.3898" y2="232.6492" gradientTransform="matrix(-1 0 0 1 646.299 0)">
				<stop  offset="0" style="stop-color:#A27A2C"/>
				<stop  offset="0.5167" style="stop-color:#FFEA93"/>
				<stop  offset="1" style="stop-color:#FFD77B"/>
			</linearGradient>
			<polygon class="st21" points="437.91,225.52 433.26,234.93 422.88,236.44 430.39,243.77 428.62,254.11 437.91,249.23 
				447.2,254.11 445.43,243.77 452.94,236.44 442.55,234.93 			"/>
			
				<linearGradient id="SVGID_23_" gradientUnits="userSpaceOnUse" x1="211.0106" y1="249.383" x2="213.2888" y2="246.6638" gradientTransform="matrix(-1 0 0 1 646.299 0)">
				<stop  offset="0" style="stop-color:#A27A2C"/>
				<stop  offset="0.0459" style="stop-color:#A7802D"/>
				<stop  offset="1" style="stop-color:#FFEA93"/>
			</linearGradient>
			<polygon class="st22" points="437.91,249.23 437.91,239.82 428.62,254.11 			"/>
			
				<linearGradient id="SVGID_24_" gradientUnits="userSpaceOnUse" x1="205.6964" y1="248.7157" x2="202.867" y2="246.1803" gradientTransform="matrix(-1 0 0 1 646.299 0)">
				<stop  offset="0" style="stop-color:#A27A2C"/>
				<stop  offset="0.0459" style="stop-color:#A7802D"/>
				<stop  offset="1" style="stop-color:#FFEA93"/>
			</linearGradient>
			<polygon class="st23" points="447.2,254.11 437.91,239.82 437.91,249.23 			"/>
			
				<linearGradient id="SVGID_25_" gradientUnits="userSpaceOnUse" x1="198.6177" y1="249.9768" x2="201.7778" y2="247.5884" gradientTransform="matrix(-1 0 0 1 646.299 0)">
				<stop  offset="0" style="stop-color:#A27A2C"/>
				<stop  offset="0.0459" style="stop-color:#A7802D"/>
				<stop  offset="1" style="stop-color:#FFEA93"/>
			</linearGradient>
			<polygon class="st24" points="445.43,243.77 437.91,239.82 447.2,254.11 			"/>
			
				<linearGradient id="SVGID_26_" gradientUnits="userSpaceOnUse" x1="198.3065" y1="242.6649" x2="200.5512" y2="238.7001" gradientTransform="matrix(-1 0 0 1 646.299 0)">
				<stop  offset="0" style="stop-color:#A27A2C"/>
				<stop  offset="0.0459" style="stop-color:#A7802D"/>
				<stop  offset="1" style="stop-color:#FFEA93"/>
			</linearGradient>
			<polygon class="st25" points="452.94,236.44 437.91,239.82 445.43,243.77 			"/>
			
				<linearGradient id="SVGID_27_" gradientUnits="userSpaceOnUse" x1="215.8521" y1="247.8871" x2="209.7891" y2="241.0892" gradientTransform="matrix(-1 0 0 1 646.299 0)">
				<stop  offset="0" style="stop-color:#A27A2C"/>
				<stop  offset="0.0459" style="stop-color:#A7802D"/>
				<stop  offset="1" style="stop-color:#FFEA93"/>
			</linearGradient>
			<polygon class="st26" points="430.39,243.77 437.91,239.82 428.62,254.11 			"/>
			
				<linearGradient id="SVGID_28_" gradientUnits="userSpaceOnUse" x1="218.2175" y1="240.7223" x2="215.3567" y2="237.5148" gradientTransform="matrix(-1 0 0 1 646.299 0)">
				<stop  offset="0" style="stop-color:#A27A2C"/>
				<stop  offset="0.0459" style="stop-color:#A7802D"/>
				<stop  offset="1" style="stop-color:#FFEA93"/>
			</linearGradient>
			<polygon class="st27" points="422.88,236.44 437.91,239.82 430.39,243.77 			"/>
			
				<linearGradient id="SVGID_29_" gradientUnits="userSpaceOnUse" x1="218.3977" y1="240.9244" x2="215.5053" y2="237.6814" gradientTransform="matrix(-1 0 0 1 646.299 0)">
				<stop  offset="0" style="stop-color:#A27A2C"/>
				<stop  offset="0.0459" style="stop-color:#A7802D"/>
				<stop  offset="1" style="stop-color:#FFEA93"/>
			</linearGradient>
			<polygon class="st28" points="433.26,234.93 437.91,239.82 422.88,236.44 			"/>
			
				<linearGradient id="SVGID_30_" gradientUnits="userSpaceOnUse" x1="211.865" y1="234.4846" x2="208.5578" y2="232.7575" gradientTransform="matrix(-1 0 0 1 646.299 0)">
				<stop  offset="0" style="stop-color:#A27A2C"/>
				<stop  offset="0.0459" style="stop-color:#A7802D"/>
				<stop  offset="1" style="stop-color:#FFEA93"/>
			</linearGradient>
			<polygon class="st29" points="437.91,225.52 437.91,239.82 433.26,234.93 			"/>
			
				<linearGradient id="SVGID_31_" gradientUnits="userSpaceOnUse" x1="208.9643" y1="232.9556" x2="203.8014" y2="230.3864" gradientTransform="matrix(-1 0 0 1 646.299 0)">
				<stop  offset="0" style="stop-color:#FFEA93"/>
				<stop  offset="0.9541" style="stop-color:#A7802D"/>
				<stop  offset="1" style="stop-color:#A27A2C"/>
			</linearGradient>
			<polygon class="st30" points="442.55,234.93 437.91,239.82 437.91,225.52 			"/>
			
				<linearGradient id="SVGID_32_" gradientUnits="userSpaceOnUse" x1="200.9647" y1="238.3513" x2="198.3822" y2="232.094" gradientTransform="matrix(-1 0 0 1 646.299 0)">
				<stop  offset="0" style="stop-color:#FFEA93"/>
				<stop  offset="0.9541" style="stop-color:#A7802D"/>
				<stop  offset="1" style="stop-color:#A27A2C"/>
			</linearGradient>
			<polygon class="st31" points="452.94,236.44 442.55,234.93 437.91,239.82 			"/>
		</g>
		<g>
			
				<linearGradient id="SVGID_33_" gradientUnits="userSpaceOnUse" x1="246.5506" y1="250.1293" x2="246.5506" y2="231.4734" gradientTransform="matrix(-1 0 0 1 646.299 0)">
				<stop  offset="0" style="stop-color:#A27A2C"/>
				<stop  offset="0.5167" style="stop-color:#FFEA93"/>
				<stop  offset="1" style="stop-color:#FFD77B"/>
			</linearGradient>
			<polygon class="st32" points="399.75,223.18 394.34,234.13 382.25,235.89 391,244.42 388.93,256.46 399.75,250.77 410.56,256.46 
				408.5,244.42 417.25,235.89 405.16,234.13 			"/>
			
				<linearGradient id="SVGID_34_" gradientUnits="userSpaceOnUse" x1="249.6012" y1="250.9516" x2="252.253" y2="247.7865" gradientTransform="matrix(-1 0 0 1 646.299 0)">
				<stop  offset="0" style="stop-color:#A27A2C"/>
				<stop  offset="0.0459" style="stop-color:#A7802D"/>
				<stop  offset="1" style="stop-color:#FFEA93"/>
			</linearGradient>
			<polygon class="st33" points="399.75,250.77 399.75,239.82 388.93,256.46 			"/>
			
				<linearGradient id="SVGID_35_" gradientUnits="userSpaceOnUse" x1="243.4154" y1="250.1749" x2="240.122" y2="247.2237" gradientTransform="matrix(-1 0 0 1 646.299 0)">
				<stop  offset="0" style="stop-color:#A27A2C"/>
				<stop  offset="0.0459" style="stop-color:#A7802D"/>
				<stop  offset="1" style="stop-color:#FFEA93"/>
			</linearGradient>
			<polygon class="st34" points="410.56,256.46 399.75,239.82 399.75,250.77 			"/>
			
				<linearGradient id="SVGID_36_" gradientUnits="userSpaceOnUse" x1="235.1758" y1="251.6429" x2="238.8542" y2="248.8627" gradientTransform="matrix(-1 0 0 1 646.299 0)">
				<stop  offset="0" style="stop-color:#A27A2C"/>
				<stop  offset="0.0459" style="stop-color:#A7802D"/>
				<stop  offset="1" style="stop-color:#FFEA93"/>
			</linearGradient>
			<polygon class="st35" points="408.5,244.42 399.75,239.82 410.56,256.46 			"/>
			
				<linearGradient id="SVGID_37_" gradientUnits="userSpaceOnUse" x1="234.8136" y1="243.1317" x2="237.4265" y2="238.5168" gradientTransform="matrix(-1 0 0 1 646.299 0)">
				<stop  offset="0" style="stop-color:#A27A2C"/>
				<stop  offset="0.0459" style="stop-color:#A7802D"/>
				<stop  offset="1" style="stop-color:#FFEA93"/>
			</linearGradient>
			<polygon class="st36" points="417.25,235.89 399.75,239.82 408.5,244.42 			"/>
			
				<linearGradient id="SVGID_38_" gradientUnits="userSpaceOnUse" x1="255.2368" y1="249.2104" x2="248.1794" y2="241.2977" gradientTransform="matrix(-1 0 0 1 646.299 0)">
				<stop  offset="0" style="stop-color:#A27A2C"/>
				<stop  offset="0.0459" style="stop-color:#A7802D"/>
				<stop  offset="1" style="stop-color:#FFEA93"/>
			</linearGradient>
			<polygon class="st37" points="391,244.42 399.75,239.82 388.93,256.46 			"/>
			
				<linearGradient id="SVGID_39_" gradientUnits="userSpaceOnUse" x1="257.99" y1="240.8706" x2="254.6601" y2="237.1371" gradientTransform="matrix(-1 0 0 1 646.299 0)">
				<stop  offset="0" style="stop-color:#A27A2C"/>
				<stop  offset="0.0459" style="stop-color:#A7802D"/>
				<stop  offset="1" style="stop-color:#FFEA93"/>
			</linearGradient>
			<polygon class="st38" points="382.25,235.89 399.75,239.82 391,244.42 			"/>
			
				<linearGradient id="SVGID_40_" gradientUnits="userSpaceOnUse" x1="258.1998" y1="241.1059" x2="254.833" y2="237.331" gradientTransform="matrix(-1 0 0 1 646.299 0)">
				<stop  offset="0" style="stop-color:#A27A2C"/>
				<stop  offset="0.0459" style="stop-color:#A7802D"/>
				<stop  offset="1" style="stop-color:#FFEA93"/>
			</linearGradient>
			<polygon class="st39" points="394.34,234.13 399.75,239.82 382.25,235.89 			"/>
			
				<linearGradient id="SVGID_41_" gradientUnits="userSpaceOnUse" x1="250.5957" y1="233.6099" x2="246.7462" y2="231.5995" gradientTransform="matrix(-1 0 0 1 646.299 0)">
				<stop  offset="0" style="stop-color:#A27A2C"/>
				<stop  offset="0.0459" style="stop-color:#A7802D"/>
				<stop  offset="1" style="stop-color:#FFEA93"/>
			</linearGradient>
			<polygon class="st40" points="399.75,223.18 399.75,239.82 394.34,234.13 			"/>
			
				<linearGradient id="SVGID_42_" gradientUnits="userSpaceOnUse" x1="247.2194" y1="231.8302" x2="241.2097" y2="228.8396" gradientTransform="matrix(-1 0 0 1 646.299 0)">
				<stop  offset="0" style="stop-color:#FFEA93"/>
				<stop  offset="0.9541" style="stop-color:#A7802D"/>
				<stop  offset="1" style="stop-color:#A27A2C"/>
			</linearGradient>
			<polygon class="st41" points="405.16,234.13 399.75,239.82 399.75,223.18 			"/>
			
				<linearGradient id="SVGID_43_" gradientUnits="userSpaceOnUse" x1="237.9077" y1="238.1108" x2="234.9017" y2="230.8272" gradientTransform="matrix(-1 0 0 1 646.299 0)">
				<stop  offset="0" style="stop-color:#FFEA93"/>
				<stop  offset="0.9541" style="stop-color:#A7802D"/>
				<stop  offset="1" style="stop-color:#A27A2C"/>
			</linearGradient>
			<polygon class="st42" points="417.25,235.89 405.16,234.13 399.75,239.82 			"/>
		</g>
		<g>
			<linearGradient id="SVGID_44_" gradientUnits="userSpaceOnUse" x1="350.3485" y1="253.5345" x2="350.3485" y2="226.9307">
				<stop  offset="0" style="stop-color:#A27A2C"/>
				<stop  offset="0.5167" style="stop-color:#FFEA93"/>
				<stop  offset="1" style="stop-color:#FFD77B"/>
			</linearGradient>
			<polygon class="st43" points="350.35,215.1 358.06,230.72 375.3,233.23 362.83,245.39 365.77,262.56 350.35,254.45 
				334.93,262.56 337.87,245.39 325.4,233.23 342.64,230.72 			"/>
			<linearGradient id="SVGID_45_" gradientUnits="userSpaceOnUse" x1="354.6987" y1="254.7071" x2="358.4803" y2="250.1936">
				<stop  offset="0" style="stop-color:#A27A2C"/>
				<stop  offset="0.0459" style="stop-color:#A7802D"/>
				<stop  offset="1" style="stop-color:#FFEA93"/>
			</linearGradient>
			<polygon class="st44" points="350.35,254.45 350.35,238.83 365.77,262.56 			"/>
			<linearGradient id="SVGID_46_" gradientUnits="userSpaceOnUse" x1="345.8777" y1="253.5994" x2="341.1812" y2="249.3909">
				<stop  offset="0" style="stop-color:#A27A2C"/>
				<stop  offset="0.0459" style="stop-color:#A7802D"/>
				<stop  offset="1" style="stop-color:#FFEA93"/>
			</linearGradient>
			<polygon class="st45" points="334.93,262.56 350.35,238.83 350.35,254.45 			"/>
			<linearGradient id="SVGID_47_" gradientUnits="userSpaceOnUse" x1="334.1278" y1="255.6928" x2="339.3733" y2="251.7282">
				<stop  offset="0" style="stop-color:#A27A2C"/>
				<stop  offset="0.0459" style="stop-color:#A7802D"/>
				<stop  offset="1" style="stop-color:#FFEA93"/>
			</linearGradient>
			<polygon class="st46" points="337.87,245.39 350.35,238.83 334.93,262.56 			"/>
			<linearGradient id="SVGID_48_" gradientUnits="userSpaceOnUse" x1="333.6113" y1="243.5557" x2="337.3373" y2="236.9747">
				<stop  offset="0" style="stop-color:#A27A2C"/>
				<stop  offset="0.0459" style="stop-color:#A7802D"/>
				<stop  offset="1" style="stop-color:#FFEA93"/>
			</linearGradient>
			<polygon class="st47" points="325.4,233.23 350.35,238.83 337.87,245.39 			"/>
			<linearGradient id="SVGID_49_" gradientUnits="userSpaceOnUse" x1="362.7351" y1="252.2241" x2="352.6712" y2="240.9403">
				<stop  offset="0" style="stop-color:#A27A2C"/>
				<stop  offset="0.0459" style="stop-color:#A7802D"/>
				<stop  offset="1" style="stop-color:#FFEA93"/>
			</linearGradient>
			<polygon class="st48" points="362.83,245.39 350.35,238.83 365.77,262.56 			"/>
			<linearGradient id="SVGID_50_" gradientUnits="userSpaceOnUse" x1="366.6613" y1="240.3313" x2="361.9128" y2="235.0072">
				<stop  offset="0" style="stop-color:#A27A2C"/>
				<stop  offset="0.0459" style="stop-color:#A7802D"/>
				<stop  offset="1" style="stop-color:#FFEA93"/>
			</linearGradient>
			<polygon class="st49" points="375.3,233.23 350.35,238.83 362.83,245.39 			"/>
			<linearGradient id="SVGID_51_" gradientUnits="userSpaceOnUse" x1="366.9605" y1="240.6668" x2="362.1594" y2="235.2837">
				<stop  offset="0" style="stop-color:#A27A2C"/>
				<stop  offset="0.0459" style="stop-color:#A7802D"/>
				<stop  offset="1" style="stop-color:#FFEA93"/>
			</linearGradient>
			<polygon class="st50" points="358.06,230.72 350.35,238.83 375.3,233.23 			"/>
			<linearGradient id="SVGID_52_" gradientUnits="userSpaceOnUse" x1="356.117" y1="229.9773" x2="350.6274" y2="227.1105">
				<stop  offset="0" style="stop-color:#A27A2C"/>
				<stop  offset="0.0459" style="stop-color:#A7802D"/>
				<stop  offset="1" style="stop-color:#FFEA93"/>
			</linearGradient>
			<polygon class="st51" points="350.35,215.1 350.35,238.83 358.06,230.72 			"/>
			<linearGradient id="SVGID_53_" gradientUnits="userSpaceOnUse" x1="351.3022" y1="227.4395" x2="342.7323" y2="223.1749">
				<stop  offset="0" style="stop-color:#FFEA93"/>
				<stop  offset="0.9541" style="stop-color:#A7802D"/>
				<stop  offset="1" style="stop-color:#A27A2C"/>
			</linearGradient>
			<polygon class="st52" points="342.64,230.72 350.35,238.83 350.35,215.1 			"/>
			<linearGradient id="SVGID_54_" gradientUnits="userSpaceOnUse" x1="338.0236" y1="236.3958" x2="333.737" y2="226.0092">
				<stop  offset="0" style="stop-color:#FFEA93"/>
				<stop  offset="0.9541" style="stop-color:#A7802D"/>
				<stop  offset="1" style="stop-color:#A27A2C"/>
			</linearGradient>
			<polygon class="st53" points="325.4,233.23 342.64,230.72 350.35,238.83 			"/>
		</g>
		<linearGradient id="SVGID_55_" gradientUnits="userSpaceOnUse" x1="120.4814" y1="148.9406" x2="256.5845" y2="148.9406">
			<stop  offset="0" style="stop-color:#BDA159"/>
			<stop  offset="1" style="stop-color:#9A7C45"/>
		</linearGradient>
		<polygon class="st54" points="120.48,88.97 120.48,208.91 157.84,208.91 157.84,164.49 219.63,164.49 219.63,208.91 
			256.58,208.91 256.58,131.98 158.04,131.98 158.04,88.97 		"/>
		<linearGradient id="SVGID_56_" gradientUnits="userSpaceOnUse" x1="288.6265" y1="214.8131" x2="246.7312" y2="57.2071">
			<stop  offset="0" style="stop-color:#999999"/>
			<stop  offset="1" style="stop-color:#D2D2D2"/>
		</linearGradient>
		<polygon class="st55" points="219.43,88.97 219.43,126.93 256.58,126.93 256.58,116.23 301.01,116.03 301.01,88.97 		"/>
		<linearGradient id="SVGID_57_" gradientUnits="userSpaceOnUse" x1="307.548" y1="209.7834" x2="265.6527" y2="52.1773">
			<stop  offset="0" style="stop-color:#999999"/>
			<stop  offset="1" style="stop-color:#D2D2D2"/>
		</linearGradient>
		<polygon class="st56" points="263.45,122.49 263.45,208.91 342.81,208.91 342.81,177.41 301.01,177.62 301.01,122.49 		"/>
		<linearGradient id="SVGID_58_" gradientUnits="userSpaceOnUse" x1="307.8756" y1="148.9406" x2="453.6715" y2="148.9406">
			<stop  offset="0" style="stop-color:#BDA159"/>
			<stop  offset="1" style="stop-color:#9A7C45"/>
		</linearGradient>
		<polygon class="st57" points="307.88,170.95 307.88,88.97 368.81,88.97 418.33,179.23 418.33,88.97 453.67,88.97 453.67,208.91 
			393.09,208.91 342.81,118.45 342.81,171.2 		"/>
		<linearGradient id="SVGID_59_" gradientUnits="userSpaceOnUse" x1="74.337" y1="204.7008" x2="243.0566" y2="204.7008">
			<stop  offset="0" style="stop-color:#BDA159"/>
			<stop  offset="1" style="stop-color:#9A7C45"/>
		</linearGradient>
		<path class="st58" d="M211.97,270.8c-44.44,16.65-98.63-18.32-121.05-78.13c-9.98-26.63-11.97-53.69-7.19-76.99
			c-12.09,26.58-13,62.31,0.11,97.31c21.97,58.61,74.95,92.95,118.34,76.69c18.97-7.11,32.96-22.71,40.87-42.92
			C235.04,257.7,224.57,266.08,211.97,270.8z"/>
		<linearGradient id="SVGID_60_" gradientUnits="userSpaceOnUse" x1="44.2573" y1="149.9841" x2="160.4627" y2="149.9841">
			<stop  offset="0" style="stop-color:#999999"/>
			<stop  offset="1" style="stop-color:#D2D2D2"/>
		</linearGradient>
		<path class="st59" d="M63.68,194.93c-13.81-64.11,15.55-124.82,65.59-135.6c10.44-2.25,20.96-2.14,31.19,0.02
			c-19.53-11.28-41.04-14.92-61.14-8.48C53.1,65.68,31.79,128.14,51.74,190.39c8.07,25.17,21.64,46.45,38.01,61.89
			C77.65,236.52,68.42,216.96,63.68,194.93z"/>
		<linearGradient id="SVGID_61_" gradientUnits="userSpaceOnUse" x1="45.1744" y1="55.1076" x2="206.9225" y2="55.1076">
			<stop  offset="0" style="stop-color:#FFEA93"/>
			<stop  offset="0.9541" style="stop-color:#A7802D"/>
			<stop  offset="1" style="stop-color:#A27A2C"/>
		</linearGradient>
		<path class="st60" d="M206.92,63.74C173.49,20.24,122.56,1.69,84.87,22.23C59.78,35.91,46.1,63.92,45.17,96.36
			c5-23.56,17.65-43.1,37.32-53.82c31.15-16.98,71.35-7.25,103.24,21.2H206.92z"/>
	</g>
	<linearGradient id="SVGID_62_" gradientUnits="userSpaceOnUse" x1="391.6733" y1="331.8854" x2="398.1533" y2="331.8854">
		<stop  offset="0" style="stop-color:#BDA159"/>
		<stop  offset="1" style="stop-color:#9A7C45"/>
	</linearGradient>
	<path class="st61" d="M398.15,328.85v6.08h-6.48v-6.08H398.15z"/>
	<linearGradient id="SVGID_63_" gradientUnits="userSpaceOnUse" x1="403.8478" y1="323.9485" x2="425.8293" y2="323.9485">
		<stop  offset="0" style="stop-color:#BDA159"/>
		<stop  offset="1" style="stop-color:#9A7C45"/>
	</linearGradient>
	<path class="st62" d="M410.7,313v16.46h15.13v5.43h-21.98V313H410.7z"/>
	<linearGradient id="SVGID_64_" gradientUnits="userSpaceOnUse" x1="428.1876" y1="323.9485" x2="454.603" y2="323.9485">
		<stop  offset="0" style="stop-color:#BDA159"/>
		<stop  offset="1" style="stop-color:#9A7C45"/>
	</linearGradient>
	<path class="st63" d="M454.6,313v5.05h-9.86v16.84h-6.88v-16.8h-9.67V313H454.6z"/>
	<linearGradient id="SVGID_65_" gradientUnits="userSpaceOnUse" x1="458.1707" y1="323.9485" x2="487.3452" y2="323.9485">
		<stop  offset="0" style="stop-color:#BDA159"/>
		<stop  offset="1" style="stop-color:#9A7C45"/>
	</linearGradient>
	<path class="st64" d="M478.57,313c0.59,0,1.18,0.03,1.77,0.09c3.47,0.31,4.99,1.64,5.8,3.04c1.02,1.74,1.15,3.81,1.21,5.74v3.53
		c0,0.53,0,1.02-0.03,1.55c-0.19,3.97-1.27,5.7-2.95,6.76c-1.64,1.02-3.26,1.12-5.12,1.18h-21.08V313H478.57z M464.99,329.62h11.16
		c0.25,0,0.87,0.03,1.58-0.09c2.67-0.43,2.79-2.45,2.82-4.68v-2.73c-0.06-1.02-0.15-1.92-0.93-2.73c-0.9-0.93-2.26-0.99-3.66-1.05
		h-10.98V329.62z"/>
	<g>
		<linearGradient id="SVGID_66_" gradientUnits="userSpaceOnUse" x1="24.4749" y1="312.9973" x2="24.7382" y2="337.4873">
			<stop  offset="0" style="stop-color:#BDA159"/>
			<stop  offset="1" style="stop-color:#9A7C45"/>
		</linearGradient>
		<path class="st65" d="M10.58,313.12h6.74v7.66h14.53v-7.66h6.74v21.86h-6.74v-8.54H17.33v8.54h-6.74V313.12z"/>
		<linearGradient id="SVGID_67_" gradientUnits="userSpaceOnUse" x1="59.1215" y1="312.6248" x2="59.3848" y2="337.1147">
			<stop  offset="0" style="stop-color:#BDA159"/>
			<stop  offset="1" style="stop-color:#9A7C45"/>
		</linearGradient>
		<path class="st66" d="M73.71,324.02c0,5.32-0.64,8.51-1.93,9.55c-1.39,1.12-5.57,1.67-12.54,1.67c-5.1,0-8.45-0.18-10.05-0.54
			c-2-0.47-3.27-1.49-3.8-3.07c-0.41-1.21-0.61-3.75-0.61-7.63c0-5.33,0.63-8.52,1.9-9.55c1.39-1.15,5.57-1.72,12.56-1.72
			c6.96,0,11.13,0.56,12.52,1.69C73.06,315.49,73.71,318.68,73.71,324.02z M51.52,324.02c0,2.79,0.32,4.42,0.96,4.88
			c0.64,0.46,2.89,0.7,6.75,0.7c3.88,0,6.14-0.23,6.78-0.7c0.64-0.46,0.96-2.09,0.96-4.88c0-2.82-0.32-4.46-0.96-4.92
			c-0.64-0.46-2.89-0.69-6.75-0.69c-3.88,0-6.14,0.23-6.78,0.69C51.84,319.56,51.52,321.2,51.52,324.02z"/>
		<linearGradient id="SVGID_68_" gradientUnits="userSpaceOnUse" x1="93.1297" y1="312.2591" x2="93.393" y2="336.7491">
			<stop  offset="0" style="stop-color:#BDA159"/>
			<stop  offset="1" style="stop-color:#9A7C45"/>
		</linearGradient>
		<path class="st67" d="M87.59,313.09h11.57L110,334.95h-7.86l-2.08-3.65H86.71l-2.09,3.65h-7.86L87.59,313.09z M90.79,303.55
			l7.58,5.41l-1.23,2.33l-8.76-2.99L90.79,303.55z M93.9,318.01h-1.05l-3.63,7.63h8.3L93.9,318.01z"/>
		<linearGradient id="SVGID_69_" gradientUnits="userSpaceOnUse" x1="129.1723" y1="311.8715" x2="129.4357" y2="336.3615">
			<stop  offset="0" style="stop-color:#BDA159"/>
			<stop  offset="1" style="stop-color:#9A7C45"/>
		</linearGradient>
		<path class="st68" d="M144.08,334.98h-11.02l-11.54-16.19c-0.12-0.25-0.25-0.51-0.38-0.79c-0.13-0.27-0.27-0.41-0.41-0.41
			c0,0.2,0.01,0.4,0.03,0.61c0.35,1.1,0.52,1.65,0.52,1.67v15.1h-6.74v-21.86h11.02l11.51,16.16c0.13,0.27,0.26,0.54,0.39,0.8
			c0.13,0.26,0.27,0.4,0.42,0.4c-0.02-0.2-0.03-0.4-0.03-0.61c-0.17-0.55-0.33-1.11-0.49-1.69v-15.06h6.73V334.98z"/>
		<linearGradient id="SVGID_70_" gradientUnits="userSpaceOnUse" x1="165.0167" y1="311.4861" x2="165.28" y2="335.9761">
			<stop  offset="0" style="stop-color:#BDA159"/>
			<stop  offset="1" style="stop-color:#9A7C45"/>
		</linearGradient>
		<path class="st69" d="M179.38,320.98h-6.74c0-1.29-0.32-2.04-0.95-2.25c-0.63-0.21-2.82-0.32-6.56-0.32
			c-3.73,0-5.91,0.23-6.54,0.7c-0.63,0.47-0.95,2.11-0.95,4.93c0,2.79,0.31,4.42,0.93,4.88c0.62,0.46,2.82,0.7,6.59,0.7
			c3.76,0,5.94-0.09,6.56-0.28c0.61-0.18,0.92-0.86,0.92-2.03h-8.33v-4.9h15.07c0,4.76-0.17,7.78-0.52,9.05
			c-0.49,1.77-1.71,2.89-3.68,3.33c-1.45,0.33-4.78,0.49-10.02,0.49c-6.86,0-10.95-0.55-12.28-1.64c-1.33-1.1-1.99-4.31-1.99-9.63
			c0-5.33,0.64-8.53,1.93-9.58c1.37-1.13,5.48-1.69,12.34-1.69c6.58,0,10.55,0.38,11.92,1.14
			C178.61,314.72,179.38,317.08,179.38,320.98z"/>
	</g>
	<g>
		<linearGradient id="SVGID_71_" gradientUnits="userSpaceOnUse" x1="206.1754" y1="310.9839" x2="206.4388" y2="335.4738">
			<stop  offset="0" style="stop-color:#BDA159"/>
			<stop  offset="1" style="stop-color:#9A7C45"/>
		</linearGradient>
		<path class="st70" d="M195.39,313.09h6.74v16.19h15.28v5.67h-22.02V313.09z"/>
		<linearGradient id="SVGID_72_" gradientUnits="userSpaceOnUse" x1="224.2475" y1="310.7895" x2="224.5108" y2="335.2795">
			<stop  offset="0" style="stop-color:#BDA159"/>
			<stop  offset="1" style="stop-color:#9A7C45"/>
		</linearGradient>
		<path class="st71" d="M221.02,334.98v-21.86h6.74v21.86H221.02z"/>
		<linearGradient id="SVGID_73_" gradientUnits="userSpaceOnUse" x1="247.7123" y1="310.5372" x2="247.9756" y2="335.0272">
			<stop  offset="0" style="stop-color:#BDA159"/>
			<stop  offset="1" style="stop-color:#9A7C45"/>
		</linearGradient>
		<path class="st72" d="M262.63,334.98h-11.02l-11.54-16.19c-0.12-0.25-0.25-0.51-0.38-0.79c-0.13-0.27-0.27-0.41-0.41-0.41
			c0,0.2,0.01,0.4,0.03,0.61c0.35,1.1,0.52,1.65,0.52,1.67v15.1h-6.74v-21.86h11.02l11.51,16.16c0.13,0.27,0.26,0.54,0.39,0.8
			c0.13,0.26,0.27,0.4,0.42,0.4c-0.02-0.2-0.03-0.4-0.03-0.61c-0.17-0.55-0.33-1.11-0.49-1.69v-15.06h6.73V334.98z"/>
		<linearGradient id="SVGID_74_" gradientUnits="userSpaceOnUse" x1="282.3969" y1="310.1643" x2="282.6602" y2="334.6543">
			<stop  offset="0" style="stop-color:#BDA159"/>
			<stop  offset="1" style="stop-color:#9A7C45"/>
		</linearGradient>
		<path class="st73" d="M268.54,313.12h6.74v7.66h14.53v-7.66h6.74v21.86h-6.74v-8.54h-14.53v8.54h-6.74V313.12z"/>
	</g>
	<g>
		<linearGradient id="SVGID_75_" gradientUnits="userSpaceOnUse" x1="325.8268" y1="309.6111" x2="326.0901" y2="334.1011">
			<stop  offset="0" style="stop-color:#BDA159"/>
			<stop  offset="1" style="stop-color:#9A7C45"/>
		</linearGradient>
		<path class="st74" d="M340.75,334.98h-11.02l-11.54-16.19c-0.12-0.25-0.25-0.51-0.38-0.79c-0.13-0.27-0.27-0.41-0.41-0.41
			c0,0.2,0.01,0.4,0.03,0.61c0.35,1.1,0.52,1.65,0.52,1.67v15.1h-6.74v-21.86h11.02l11.51,16.16c0.13,0.27,0.26,0.54,0.39,0.8
			c0.13,0.26,0.27,0.4,0.42,0.4c-0.02-0.2-0.03-0.4-0.03-0.61c-0.17-0.55-0.33-1.11-0.49-1.69v-15.06h6.73V334.98z"/>
		<linearGradient id="SVGID_76_" gradientUnits="userSpaceOnUse" x1="360.5115" y1="309.2382" x2="360.7748" y2="333.7281">
			<stop  offset="0" style="stop-color:#BDA159"/>
			<stop  offset="1" style="stop-color:#9A7C45"/>
		</linearGradient>
		<path class="st75" d="M346.66,313.12h6.74v7.66h14.53v-7.66h6.74v21.86h-6.74v-8.54H353.4v8.54h-6.74V313.12z"/>
		<linearGradient id="SVGID_77_" gradientUnits="userSpaceOnUse" x1="383.1989" y1="308.9942" x2="383.4622" y2="333.4842">
			<stop  offset="0" style="stop-color:#BDA159"/>
			<stop  offset="1" style="stop-color:#9A7C45"/>
		</linearGradient>
		<path class="st76" d="M379.99,334.98v-21.86h6.74v21.86H379.99z"/>
	</g>
</g>
</svg>
