<?xml version="1.0" encoding="utf-8"?>
<!-- Generator: Adobe Illustrator 23.0.0, SVG Export Plug-In . SVG Version: 6.00 Build 0)  -->
<svg version="1.1" id="Layer_1" xmlns="http://www.w3.org/2000/svg" xmlns:xlink="http://www.w3.org/1999/xlink" x="0px" y="0px"
	 viewBox="0 0 500 500" style="enable-background:new 0 0 500 500;" xml:space="preserve">
<style type="text/css">
	.st0{fill:#1C76B9;}
</style>
<path class="st0" d="M488.58,242.91c-0.03,1.78,0.1,3.55,0.19,5.33c0.1,2-0.13,4.03-0.2,6.04c-0.02,0.43,0.01,0.87,0.02,1.31
	c-0.01,0.15-0.01,0.3-0.02,0.46c-0.36,1.17-0.56,2.37-0.45,3.6c-0.65,4.82-1.93,9.48-3.65,14.02c-3.46,9.15-8.66,17.2-15.5,24.19
	c-7.15,7.31-15.47,12.86-24.96,16.7c-5.58,2.26-11.35,3.83-17.3,4.66c-6.36,0.89-12.75,1.01-19.13,0.23
	c-1.26-0.16-2.52-0.31-3.77-0.53c-0.71-0.12-1.18,0.08-1.65,0.63c-4.34,5.07-9.28,9.48-14.8,13.22c-0.68,0.46-0.91,0.95-0.91,1.75
	c0.02,16.74-0.19,33.48,0.07,50.21c0.24,15.53-10.42,29.76-26.03,33.48c-1.27,0.3-2.54,0.66-3.87,0.62c-1.63,0-3.26,0-4.89,0
	c-67.44,0-134.87,0-202.31,0c-1.75,0-3.5,0-5.25,0c-5.62-0.53-10.75-2.48-15.31-5.75c-9.59-6.9-14.51-16.29-14.53-28.15
	c-0.02-14.71-0.02-29.43,0.02-44.14c0-1.11-0.22-1.5-1.43-1.45c-7.37,0.28-14.68-0.25-21.95-1.59
	c-17.04-3.13-32.2-10.25-45.46-21.36c-12.72-10.66-22.06-23.75-27.88-39.3c-2.46-6.56-4.19-13.31-4.96-20.29
	c0.13-1.47-0.13-2.9-0.46-4.32c-0.01-0.15-0.01-0.29-0.02-0.44c0-4.56-0.01-9.12-0.01-13.68c0.41-7.26,1.85-14.33,4.07-21.23
	c4.82-15.01,13.02-27.93,24.35-38.84c10.84-10.44,23.45-17.96,37.78-22.59c6.17-1.99,12.48-3.35,18.92-4.1
	c0.89-0.1,1.33-0.46,1.68-1.21c5.89-12.73,14.01-23.89,24.1-33.59c10.15-9.75,21.7-17.4,34.6-23.05c7.22-3.16,14.67-5.58,22.34-7.29
	c10.77-2.4,21.69-3.22,32.7-2.59c8.38,0.48,16.63,1.88,24.74,4.12c15.54,4.29,29.63,11.4,42.31,21.35
	c9.74,7.64,18.03,16.63,24.86,26.96c0.49,0.74,0.84,0.91,1.69,0.44c5.91-3.22,12.14-5.61,18.67-7.26c8.81-2.23,17.73-2.87,26.73-2
	c15.91,1.54,30.15,7.33,42.49,17.51c10.55,8.7,18.23,19.5,22.82,32.43c0.34,0.96,0.78,1.36,1.93,1.41
	c15.35,0.6,29.24,5.42,41.55,14.62c11.03,8.24,19.06,18.8,23.98,31.67C486.71,230.82,488.14,236.76,488.58,242.91z M205.13,106.01
	c-1.51,0.08-3.81,0.21-6.11,0.34c-8.5,0.46-16.74,2.25-24.77,5.02c-9.87,3.41-18.94,8.31-27.21,14.7
	c-11.75,9.08-20.82,20.31-27.15,33.75c-1.81,3.84-3.26,7.83-4.73,11.81c-0.34,0.93-0.69,1.49-1.87,1.51
	c-3.18,0.06-6.36,0.06-9.53,0.29c-6.5,0.45-12.82,1.71-18.98,3.78c-9.24,3.11-17.57,7.88-24.95,14.27
	c-11.27,9.78-18.92,21.85-22.69,36.29c-1.86,7.11-2.51,14.37-2.03,21.74c0.62,9.52,2.99,18.58,7.34,27.04
	c9,17.51,22.97,29.49,41.4,36.18c9.5,3.45,19.4,4.79,29.53,4.17c4.97-0.3,9.86-1.03,14.69-2.26c4.11-1.05,8.12-2.44,12.18-3.67
	c0.71-0.21,0.98-0.04,1.29,0.54c1.21,2.24,2.46,4.44,3.69,6.67c5.81,10.56,13.47,19.54,23.06,26.83
	c10.92,8.3,23.13,13.75,36.62,16.35c7.93,1.53,15.91,2,23.96,1.35c9.5-0.77,18.63-2.97,27.41-6.69
	c14.71-6.24,26.84-15.74,36.31-28.62c3.77-5.13,6.75-10.76,9.97-16.23c0.42-0.72,0.75-0.87,1.48-0.41c2.19,1.37,4.44,2.63,6.62,4.01
	c5.71,3.6,11.76,6.45,18.35,7.99c9.13,2.13,18.25,2.11,27.37-0.25c10.09-2.61,18.76-7.64,26.05-15.07c3.9-3.97,6.84-8.66,9.89-13.26
	c0.66-1,1.25-1.1,2.33-0.77c5.09,1.52,10.13,3.19,15.46,3.81c7.8,0.9,15.39,0.09,22.77-2.48c8.22-2.86,15.25-7.55,21.02-14.11
	c7.49-8.53,11.52-18.47,11.94-29.78c0.35-9.28-1.88-18.01-6.85-25.87c-9.49-15.02-23.3-22.85-40.99-23.85
	c-5.79-0.33-11.48,0.83-17.21,1.41c-1.06,0.11-1.53-0.01-1.73-1.19c-0.66-3.83-1.32-7.67-2.24-11.45
	c-1.89-7.8-5.43-14.79-10.61-20.95c-7.39-8.78-16.66-14.61-27.7-17.6c-8.14-2.21-16.39-2.46-24.68-0.9
	c-8.82,1.67-16.79,5.22-23.81,10.84c-3.88,3.11-7.65,6.34-11.47,9.51c-1.12,0.93-1.14,0.93-1.78-0.4c-1.64-3.39-3.29-6.78-4.9-10.19
	c-6.29-13.36-15.19-24.65-26.85-33.7C247.65,113.02,227.89,106.32,205.13,106.01z"/>
<g>
	<path class="st0" d="M96.98,243.59c-0.5-0.12-1.37,0.1-1.44-0.51c-0.08-0.68,0.84-0.7,1.33-0.98c6.52-3.69,7.51-12.77,1.85-17.34
		c-2.3-1.85-5.04-2.65-7.89-3.09c-5.26-0.82-10.54-0.6-15.82-0.18c-4.25,0.34-8.44,1-12.37,2.76c-4.39,1.97-7.22,5.08-7.39,10.15
		c-0.17,5.18,3.63,8.37,8.67,7.24c2.78-0.62,4.49-3.5,3.7-6.22c-0.56-1.94-2.18-2.53-3.82-1.4c-0.42,0.29-0.85,0.59-1.32,0.81
		c-1.48,0.69-2.79,0.09-3.26-1.48c-0.6-1.98,0.08-3.63,1.46-4.99c2.61-2.56,5.83-3.6,9.45-3.42c1.39,0.07,1.85,0.64,1.85,2.09
		c0.01,6.04,0,12.09,0,18.13c0.01,0,0.01,0,0.02,0c0,6.04-0.03,12.09,0.01,18.13c0.02,3.54,1.79,5.84,5.23,6.76
		c6.2,1.64,12.45,1.6,18.6-0.16c5.52-1.58,9.35-5.01,10.3-10.96C107.27,251.95,104.51,245.4,96.98,243.59z M90.94,266.99
		c-1.6,1.43-3.53,1.75-5.58,1.23c-1.17-0.3-1.98-1.02-2.14-2.28c-0.09-0.67-0.13-1.35-0.13-2.02c-0.01-5.97-0.01-11.93-0.01-17.9
		c0-6.05,0.01-12.09,0-18.14c0-1.43,0.03-2.87,1.52-3.61c1.65-0.82,3.26-0.53,4.72,0.53c1.91,1.38,2.71,3.44,3,5.63
		c0.4,2.98,0.24,5.95-1.14,8.73c-1.06,2.15-2.81,3.28-5.18,3.45c-0.51,0.04-0.84,0.11-1.11,0.64c-0.38,0.75-0.34,0.98,0.56,1.12
		c4.99,0.78,8.28,3.59,9.38,8.54C96.01,258.25,95.25,263.16,90.94,266.99z"/>
	<path class="st0" d="M165.75,241.53c-3.47-6.05-11.9-7.08-16.69-2c-0.63,0.67-0.82,0.45-1.13-0.18c-0.87-1.81-2.38-2.73-4.32-2.96
		c-3.47-0.41-6.48,0.75-9.23,2.76c-0.31,0.23-0.52,0.49-0.41,0.89c0.39,0.23,0.72,0.23,1.18-0.01c1.61-0.82,2.94-0.02,3.11,1.79
		c0.04,0.39,0.01,0.79,0.01,1.19c0,13.56,0,27.12,0,40.68c0,1.89,0.58,2.76,2.34,3.43c1.69,0.64,3.46,0.59,5.15,0.12
		c2-0.55,2.57-1.47,2.57-3.58c0-4.81-0.01-9.62,0-14.44c0-0.33-0.18-0.79,0.26-0.94c0.33-0.12,0.55,0.25,0.8,0.44
		c4.95,3.9,12.95,3.36,16.44-3.48c2.58-5.06,2.81-10.45,2.3-15.93C167.86,246.59,167.14,243.96,165.75,241.53z M156.62,263.34
		c-0.35,0.98-0.81,1.9-1.5,2.68c-1.3,1.47-3.28,1.69-4.79,0.45c-1.28-1.05-2.01-2.41-2.01-4.13c0.02-5.64,0.02-11.28-0.01-16.93
		c-0.01-1.18,0.38-2.18,1.04-3.09c1.78-2.45,4.7-2.47,6.49-0.01c1.49,2.04,1.73,4.49,1.99,6.89c0.14,1.34,0.13,2.7,0.17,3.45
		C157.93,256.66,157.79,260.07,156.62,263.34z"/>
	<path class="st0" d="M133.96,240.05C133.95,240.05,133.95,240.05,133.96,240.05C133.95,240.05,133.95,240.05,133.96,240.05
		c0,0,0,0.01,0.01,0.01l0,0C133.96,240.06,133.96,240.06,133.96,240.05C133.96,240.05,133.95,240.05,133.96,240.05L133.96,240.05z"
		/>
	<path class="st0" d="M116.66,238.46c-7.15,3.92-10.07,11.21-9.12,18.82c0.44,3.47,1.67,6.64,4.1,9.2
		c4.11,4.33,9.25,5.31,14.89,4.18c3.75-0.76,6.8-2.8,9.2-5.78c0.28-0.35,0.82-0.65,0.31-1.19c-0.57-0.6-0.91-0.01-1.29,0.28
		c-0.32,0.24-0.61,0.51-0.93,0.74c-2.38,1.73-5.01,2.44-7.87,1.57c-3.92-1.19-6.14-4.07-7.33-7.82c-0.9-2.85-0.83-2.86,1.7-4.35
		c3.73-2.2,7.47-4.36,11.15-6.65c2.69-1.68,3.36-3.68,2.51-6.7c-0.06-0.22-0.02-0.47-0.03-0.7c-1.2-1.07-2.24-2.32-3.84-2.86
		C125.43,235.59,120.94,236.11,116.66,238.46z M125.96,247.39c-0.24,0.61-0.72,1.01-1.29,1.34c-2,1.13-3.99,2.28-5.96,3.46
		c-0.74,0.44-1.08,0.4-1-0.56c0.04-0.47,0.01-0.95,0.01-1.71c0.17-2.29,0.39-4.86,1.38-7.28c0.55-1.34,1.33-2.53,2.9-2.91
		c0.93-0.23,1.72-0.02,2.41,0.63C125.88,241.76,126.72,245.5,125.96,247.39z"/>
	<path class="st0" d="M117.21,232.6c1.73-1.2,3.5-2.33,5.2-3.56c0.65-0.47,1.11-0.5,1.78-0.02c1.74,1.25,3.55,2.39,5.3,3.62
		c0.69,0.49,0.98,0.1,1.31-0.44c-0.15-0.24-0.28-0.48-0.45-0.69c-1.66-2.17-3.32-4.36-5-6.51c-0.79-1.01-3.32-0.99-4.12,0.03
		c-1.68,2.16-3.32,4.35-4.98,6.53c-0.23,0.3-0.58,0.57-0.17,1.02C116.49,233.01,116.8,232.89,117.21,232.6z"/>
	<path class="st0" d="M117.49,224.16c3.01-1.32,6.03-2.6,9.02-3.95c0.73-0.33,1.31-0.91,1.28-1.74c0-1.17-0.53-1.97-1.41-2.42
		c-0.94-0.48-1.89-0.17-2.63,0.53c-2.3,2.18-4.58,4.4-6.87,6.6c-0.23,0.22-0.51,0.43-0.23,0.79
		C116.87,224.24,117.14,224.31,117.49,224.16z"/>
	<path class="st0" d="M439.83,238.33c-0.16-1.03-0.58-1.86-1.72-1.99c-1.03-0.11-2.05,0.02-3.01,0.49
		c-0.86,0.42-1.13,1.07-0.86,1.96c0.21,0.68,0.46,1.35,0.67,2.04c0.97,3.11,0.79,6.27,0.49,9.45c-0.48,5.03-2.08,9.73-4.12,14.37
		c-0.44-0.25-0.48-0.54-0.56-0.8c-0.93-3.03-1.8-6.08-2.79-9.1c-1.55-4.75-3.22-9.47-5.61-13.89c-0.92-1.71-2.04-3.3-3.96-3.94
		c-4.14-1.37-7.9-0.62-11.2,2.27c-0.22,0.19-0.59,0.35-0.31,0.76c0.29,0.44,0.59,0.37,1,0.12c1-0.61,1.87-0.39,2.65,0.47
		c1.33,1.46,2.25,3.17,3.06,4.94c4.35,9.51,7.35,19.51,10.3,29.51c0.17,0.58-0.07,0.91-0.42,1.25c-2.3,2.33-4.73,4.51-7.82,5.73
		c-5.01,1.98-6.24,1.45-8.1-2.01c-0.02-0.03-0.04-0.07-0.07-0.1c-0.76-0.99-1.6-1.07-2.52-0.23c-1.91,1.74-1.42,4.63,1.04,5.64
		c2.61,1.07,5.32,0.84,7.98,0.19c5.75-1.4,10.27-4.78,13.99-9.21c7.78-9.26,11.28-20.17,11.94-32.11
		C440.01,242.21,440.13,240.27,439.83,238.33z"/>
	<path class="st0" d="M411.97,266.68c0.1-0.26,0.1-0.44-0.12-0.62c-0.23-0.19-0.45-0.35-0.74-0.11c-0.18,0.15-0.34,0.33-0.52,0.48
		c-0.46,0.41-0.97,0.75-1.62,0.53c-0.69-0.24-0.91-0.85-0.99-1.51c-0.05-0.39-0.04-0.79-0.04-1.19c-0.01-6.04-0.05-12.08-0.01-18.12
		c0.03-4.01-1.95-6.72-5.43-8.36c-3.76-1.78-7.76-1.81-11.78-1.06c-2.51,0.47-4.78,1.44-6.47,3.48c-1.57,1.89-1.71,5.05-0.3,6.88
		c0.9,1.16,2.63,1.71,4.06,1.29c1.54-0.45,2.48-1.52,2.58-2.92c0.12-1.7-1.08-2.31-2.36-2.88c-1.16-0.52-1.19-1.37-0.06-2.23
		c1.47-1.11,3.15-1.4,4.96-1.31c2.6,0.13,4.64,2.14,4.75,4.74c0.13,2.97-1.2,4.95-4.09,6.14c-2.56,1.05-5.24,1.79-7.62,3.25
		c-1.68,0.83-3.18,1.84-4.08,3.55c-0.43,0.26-0.62,0.71-0.8,1.14c-1.12,2.59-1.11,5.26-0.28,7.9c0.26,0.82,0.16,1.17-0.64,1.38
		c-0.22,0.06-0.41,0.24-0.61,0.36l-0.02,0c-0.23,0.03-0.47,0.04-0.7,0.09c-1.61,0.32-2.26-0.1-2.6-1.73
		c-0.19-0.89-0.34-1.78-0.51-2.67c-0.01-0.16-0.03-0.32-0.04-0.47c-0.32-3.12-0.67-6.24-0.97-9.36c-0.72-7.59-1.51-15.18-2.11-22.78
		c-0.35-4.47-1.5-8.98,0.27-13.42v0c0.47-0.72,0.94-1.44,1.41-2.16v0c0.2-0.07,0.3-0.21,0.32-0.42c0,0,0,0.01,0,0.02
		c0.91-0.62,1.68-1.42,2.68-1.92c1.62-0.79,2.78-0.52,3.75,0.97c0.24,0.37,0.44,0.76,0.72,1.09c0.59,0.67,1.38,0.62,1.92-0.07
		c1.39-1.77,0.54-4.73-1.62-5.19c-2.65-0.57-5.17-0.11-7.34,1.67c0,0,0,0,0,0c-0.8,0.26-1.37,0.83-1.89,1.45l0,0
		c-0.61,0.34-1.1,0.81-1.43,1.43c-0.4,0.2-0.63,0.55-0.84,0.92c-0.06,0-0.09,0.03-0.1,0.09c-2.08,2.3-3.78,4.86-5.27,7.57v0
		c-0.74,1.09-1.44,2.21-2.09,3.35c-0.65,1.14-1.26,2.31-1.8,3.51c0,0-0.02-0.01-0.02-0.01c-0.26,0.11-0.31,0.33-0.32,0.57
		l-0.02,0.05c-0.96,1.41-1.73,2.91-2.41,4.47l0,0.01c-0.24,0.27-0.46,0.56-0.49,0.95c-0.21,0.29-0.42,0.58-0.59,0.9
		c-0.17,0.31-0.3,0.64-0.37,1.01c-0.37,0.21-0.45,0.56-0.49,0.94l0,0c-0.66,0.78-1.04,1.71-1.4,2.65l-0.01,0.01
		c-0.32,0.23-0.38,0.59-0.49,0.93l0,0c-0.36,0.64-0.75,1.27-1.09,1.92c-0.78,1.53-0.77,1.54-1.74,0.22l0-0.01
		c-0.93-2.39-2.12-4.66-3.35-6.9l-0.01-0.01c-1.31-2.92-2.67-5.83-4.26-8.61c0,0,0.01,0,0.01,0c-0.51-1.27-1.09-2.48-1.87-3.54
		c-0.77-1.06-1.75-1.95-3.05-2.57c-3.52-1.67-7.18-1.59-10.88-0.79l-0.01,0c-0.84-0.07-1.61,0.18-2.37,0.49l-0.01,0
		c-1.29,0.14-2.42,0.73-3.57,1.25c-5.15,2.34-8.14,7.14-7.72,12.28c0.44,5.28,5.7,7.52,9.91,5.47c2.21-1.07,3.26-3.96,2.31-6.1
		c-0.75-1.69-2.12-2.07-3.63-1.05c-0.49,0.33-0.99,0.68-1.53,0.92c-1.36,0.58-2.87-0.16-3.15-1.59c-0.25-1.26-0.24-2.52,0.39-3.72
		c1.53-2.88,4.12-4.34,7.1-5.18c1.97-0.56,3.88-0.51,5.15,1.51l0.01,0.03c0.22,0.62,0.49,1.21,0.92,1.71
		c-0.03,0.07-0.02,0.14,0.02,0.21c-0.43,7.62-0.7,15.24-1.4,22.84c-0.43,4.62-0.51,9.3-2.45,13.64l0.01,0
		c-0.19,0.25-0.39,0.49-0.57,0.75c-3.32,4.8-9.56,4.67-12.57-0.28c-0.04-0.07-0.08-0.14-0.13-0.2c-0.71-1.1-1.47-1.2-2.42-0.3
		c-1.81,1.7-1.37,4.22,1.02,5.28c3.71,1.64,7.59,1.67,11.43,0.67c3.29-0.86,5.83-2.8,7.12-6.1l0,0c0.3-0.13,0.33-0.43,0.42-0.68
		c2.16-5.56,2.21-11.41,2.4-17.24c0.01-0.23,0.01-0.46,0.02-0.69c0.16-0.61,0.22-1.22,0.08-1.84c0.14-0.36,0.14-0.72,0.05-1.09
		c0.5-2.31,0.18-4.68,0.5-7.08c0.72,0.47,0.71,1.28,1.24,1.71c-0.03,0.07-0.01,0.12,0.05,0.16c0,0.38,0.24,0.65,0.47,0.92
		c0.04,0.09,0.07,0.18,0.1,0.28c1.49,3.06,2.92,6.15,4.64,9.09l-0.01,0.01c-0.03,0.42,0.22,0.71,0.48,1
		c-0.03,0.07-0.01,0.13,0.05,0.17c1.15,2.52,2.35,5.03,3.78,7.41c0.35,1.2,0.57,1.83,1,2.15c0.43,0.33,1.08,0.36,2.28,0.37
		c0.96,0,1.5-0.32,1.53-1.31h-0.01c0.42-0.28,0.45-0.73,0.51-1.17l-0.01,0c0.88-1.23,1.29-2.68,1.91-4.03
		c0.99-2.15,1.9-4.33,2.84-6.5c0,0,0,0,0,0c0.48-0.56,0.76-1.21,0.94-1.91l0-0.01c0.95-1.83,1.91-3.65,2.86-5.47v-0.01
		c0.72-0.57,0.72-1.73,1.82-2.23c0.11,2.28,0.07,4.42,0.55,6.51l0,0.01c-0.07,1.85,0.16,3.67,0.47,5.48v0.01
		c0.02,2.74,0.47,5.44,0.78,8.15c0.41,3.62,0.79,7.24,1.61,10.8c0.37,1.59,1.32,2.69,2.8,3.31c2.74,1.15,5.48,0.94,8.21-0.06
		l0.11,0.01l0.1-0.06c0.51-0.11,0.99-0.28,1.45-0.49c0.46-0.21,0.91-0.46,1.36-0.7c0.64-0.35,1.2-1.07,1.85-1.14
		c0.72-0.07,0.98,1,1.63,1.37c0.1,0.06,0.21,0.09,0.32,0.12c0,0-0.01,0.01-0.01,0.01c0.37,0.52,0.88,0.78,1.49,0.88
		c1.51,0.71,3.08,0.94,4.74,0.73c3.12-0.39,5.61-1.87,7.58-4.26c0.45-0.54,0.64-0.63,0.86,0.17c0.44,1.6,1.41,2.79,2.94,3.55
		C404.62,272.19,410.7,269.98,411.97,266.68z M368.01,220.28C368,220.28,368,220.28,368.01,220.28c-0.03-0.01-0.05-0.02-0.07-0.02
		c-0.12-0.01-0.13,0.02-0.11,0.06c-0.8,0.03-0.93,0.66-1.18,1.17c0.25-0.56,0.34-1.25,1.18-1.25c-0.01-0.72,0.4-1.23,0.77-1.76
		C368.24,219.01,367.87,219.53,368.01,220.28z M397.48,263.23c-0.52,1.3-1.29,2.35-2.61,2.93c-1.51,0.66-3.1,0.24-3.74-1.26
		c-1.54-3.67-1.5-7.35,0.63-10.82c0.75-1.23,1.95-1.94,3.38-2.25c1.66-0.36,2.7,0.46,2.72,2.17c0.01,1.23,0,2.46,0,3.98
		C397.69,259.53,398.2,261.41,397.48,263.23z"/>
	<path class="st0" d="M389.45,232.57c1.72-1.2,3.5-2.34,5.19-3.58c0.67-0.49,1.13-0.46,1.78,0.02c1.67,1.21,3.4,2.33,5.1,3.49
		c0.4,0.28,0.73,0.6,1.23,0.11c0.58-0.57-0.01-0.87-0.25-1.18c-1.5-2-3.07-3.95-4.54-5.97c-0.62-0.85-1.28-1.39-2.39-1.09
		c-1.18-0.34-1.89,0.25-2.56,1.17c-1.47,2.02-3.03,3.98-4.54,5.97c-0.24,0.32-0.67,0.62-0.16,1.1
		C388.75,233.03,389.05,232.85,389.45,232.57z"/>
	<path class="st0" d="M223.88,226.99c1.63-2.14,0.5-4.93-2.16-5.27c-1.61-0.2-3.24-0.38-4.87-0.41c-6.08-0.08-12.17-0.48-18.22,0.36
		c-4.31,0.6-8.53,1.54-12.29,3.84c-4.02,2.46-6.64,5.72-6.64,10.8c0,4.63,3.96,8.04,8.98,6.59c2.79-0.8,4.31-3.8,3.3-6.42
		c-0.64-1.67-2.16-2.17-3.6-1.19c-0.39,0.27-0.79,0.54-1.2,0.77c-1.76,0.97-3.38,0.1-3.63-1.88c-0.37-2.9,1.31-4.64,3.46-6.03
		c3.25-2.1,6.9-3.13,10.7-3.76c1.09-0.18,1.26,0.1,1.26,1.09c-0.03,6.84-0.02,13.68-0.02,20.52c0,4.18,0,8.35,0,12.53
		c0,2.66-0.03,5.33,0.02,7.99c0.04,2.2,0.98,3.69,2.69,4.21c1.17,0.36,2.39,0.56,3.65,0.39c3.3-0.44,4.51-1.78,4.51-5.11
		c0-8.51,0-17.02,0-25.53c0-5.05,0.01-10.1-0.01-15.15c0-0.66,0-1.18,0.91-1.11c4.05,0.31,8.12,0.51,11.56,3.06
		C222.97,227.81,223.44,227.56,223.88,226.99z"/>
	<path class="st0" d="M242.18,244.19c0.47-1.4,0.8-2.84,0.72-4.32c-0.15-2.62-1.85-3.92-4.43-3.48c-1.44,0.24-2.56,1.05-3.61,1.97
		c-1.47,1.29-2.69,2.8-3.82,4.49c-0.44-0.37-0.29-0.75-0.32-1.09c-0.3-3.6-2.44-5.55-6.05-5.47c-2.92,0.07-5.51,1.04-7.82,2.8
		c-0.28,0.21-0.83,0.35-0.47,0.89c0.33,0.48,0.68,0.29,1.12,0.06c1.47-0.76,2.58-0.24,2.96,1.35c0.12,0.49,0.13,1.02,0.13,1.53
		c0.01,8.03,0.01,16.06,0.01,24.09c0,2.38,0.91,3.48,3.23,3.97c1.31,0.28,2.6,0.26,3.9-0.03c2.18-0.49,3.03-1.51,3.03-3.74
		c0-6.64,0-13.28,0.01-19.92c0-0.49-0.11-1,0.39-1.41c1.56-1.31,3.2-2.49,5.13-3.18c2.05-0.73,3.49-0.21,4.61,1.63
		c0.16,0.26,0.35,0.43,0.65,0.45C241.97,244.81,242.08,244.51,242.18,244.19z"/>
	<path class="st0" d="M300.46,242.02c-1.07-2.99-2.88-5.16-6.29-5.61c-4.6-0.6-7.69,1.77-10.35,5.08c0,0.23,0,0.47-0.01,0.7
		c0-0.23,0-0.47,0.01-0.7c-0.16,0.18-0.32,0.37-0.47,0.55c-0.94-0.39-0.29-1.38-0.73-1.96c0.01-0.48-0.19-0.87-0.48-1.24
		c-0.22-0.63-0.65-1.08-1.21-1.41c-0.25-0.39-0.66-0.57-1.06-0.7c-2.2-0.7-4.39-0.62-6.55,0.2c-1.57,0.26-2.82,1.17-4.13,1.98
		c-0.45,0.28-0.68,0.92-1.34,0.86c0-0.2-0.06-0.36-0.26-0.45c-0.74-1.11-1.85-1.73-3.05-2.16c-3.41-1.25-6.87-1.2-10.28-0.05
		c-7.62,2.59-12.2,8.93-12.35,17.02c-0.08,4.51,0.95,8.7,4.07,12.12c6.47,7.09,18.84,6.21,24.57-1.7c0.26-0.36,0.33-0.58-0.01-0.9
		c-0.34-0.32-0.62-0.24-0.94,0.02c-0.53,0.42-1.06,0.84-1.61,1.22c-2.93,2.04-6.06,2.36-9.2,0.7c-3.73-1.97-5.49-5.36-6.21-9.38
		c-0.12-0.7,0.31-0.97,0.82-1.27c4.14-2.43,8.29-4.85,12.39-7.34c2.75-1.66,3.68-4.02,2.75-6.61c0.06-0.31-0.34-0.55-0.1-0.93
		c0.37,0.16,0.7,0.26,1.16,0.03c1.73-0.87,2.96-0.11,3.08,1.83c0.02,0.32,0.01,0.64,0.01,0.95c0,8.07,0,16.13,0,24.2
		c0,1.43,0.3,2.69,1.8,3.3l0.03-0.04v0c0,0-0.03,0.04-0.03,0.04c1.1,0.76,2.37,0.91,3.64,0.82c4.32-0.31,4.86-1.66,4.85-4.9
		c-0.03-5.95,0.03-11.89-0.03-17.84c-0.02-1.73-0.01-3.39,1.11-4.82c-0.24,0-0.48,0-0.72,0c-0.32,1.45-0.52,2.91-0.65,4.37
		c0.12-1.46,0.33-2.91,0.65-4.37c0.24,0,0.48,0,0.72,0c0.22-0.1,0.35-0.27,0.41-0.51c1.2-1.25,2.6-1.85,4.34-1.39
		c0.15,0.29,0.42,0.4,0.71,0.49c1.4,1.89,1.82,4.09,2.02,6.37c0.6,6.88,0.47,13.74-1.08,20.5c-0.54,2.39-1.58,4.62-4.26,5.46
		c-0.46,0.15-0.55,0.49-0.48,0.95c0.08,0.54,0.43,0.6,0.86,0.58c1.12-0.06,2.21-0.31,3.26-0.66c6.29-2.07,9.51-6.8,11.13-12.91
		c1.07-4.05,1.02-8.18,0.9-12.32C301.8,247.41,301.4,244.66,300.46,242.02z M260.44,247.47c-0.25,0.63-0.78,0.99-1.33,1.31
		c-1.98,1.16-3.97,2.31-5.96,3.45c-0.25,0.14-0.5,0.5-0.84,0.23c-0.26-0.2-0.07-0.52-0.07-0.79c0-0.4,0-0.79,0-1.11
		c0.16-2.66,0.36-5.24,1.28-7.68c0.54-1.44,1.35-2.7,2.98-3.15c0.98-0.27,1.8-0.01,2.5,0.68
		C260.45,241.84,261.21,245.58,260.44,247.47z M273.36,236.98c0,0-0.01-0.01-0.02-0.01L273.36,236.98L273.36,236.98z M280.96,239.33
		C280.96,239.33,280.96,239.33,280.96,239.33c0-0.08,0.01-0.15,0.03-0.2C280.97,239.19,280.96,239.25,280.96,239.33z M282.39,241.72
		L282.39,241.72c0.02-0.02,0.03-0.04,0.05-0.07C282.43,241.67,282.41,241.7,282.39,241.72z M283.36,242.18
		C283.36,242.18,283.35,242.19,283.36,242.18C283.35,242.19,283.36,242.18,283.36,242.18L283.36,242.18z"/>
	<path class="st0" d="M251.82,232.53c1.69-1.17,3.43-2.28,5.09-3.49c0.7-0.51,1.2-0.52,1.89-0.02c1.63,1.19,3.32,2.3,4.99,3.43
		c0.36,0.24,0.69,0.72,1.22,0.2c0.52-0.52,0.12-0.82-0.17-1.2c-1.53-1.98-3.09-3.93-4.54-5.96c-0.65-0.91-1.34-1.43-2.48-1.12
		c-1.14-0.34-1.81,0.24-2.45,1.12c-1.47,2.02-3.02,3.98-4.54,5.96c-0.26,0.34-0.65,0.62-0.23,1.12
		C251.06,233.11,251.41,232.82,251.82,232.53z"/>
</g>
</svg>
