<?xml version="1.0" encoding="utf-8"?>
<!-- Generator: Adobe Illustrator 23.0.0, SVG Export Plug-In . SVG Version: 6.00 Build 0)  -->
<svg version="1.1" id="Layer_1" xmlns="http://www.w3.org/2000/svg" xmlns:xlink="http://www.w3.org/1999/xlink" x="0px" y="0px"
	 viewBox="0 0 500 500" style="enable-background:new 0 0 500 500;" xml:space="preserve">
<style type="text/css">
	.st0{fill:#26AF4B;}
	.st1{fill:none;stroke:#F2EA22;stroke-width:7.3259;stroke-linecap:round;stroke-linejoin:round;stroke-miterlimit:10;}
	.st2{fill:#ED1E29;}
	.st3{fill:#F2EA22;stroke:#ED1E29;stroke-width:6.8657;stroke-linecap:round;stroke-linejoin:round;stroke-miterlimit:10;}
	.st4{fill:#FFFFFF;}
</style>
<g>
	<path class="st0" d="M443.58,240.73c-6.65,7.02-19.51,12.53-28.15,15.77c0.02,0.7,0.02,1.39,0.02,2.09
		c0,102.89-83.41,186.3-186.3,186.3s-186.3-83.41-186.3-186.3s83.41-186.3,186.3-186.3c55.96,0,106.16,24.67,140.31,63.74
		c1.31-2.41,4.29-6.44,10.02-7.88c7-1.76,10.93-8.51,12.06-10.71c-39.44-45.35-97.56-74.01-162.39-74.01
		c-118.84,0-215.16,96.33-215.16,215.16s96.33,215.16,215.16,215.16s215.16-96.33,215.16-215.16
		C444.32,252.57,444.07,246.62,443.58,240.73z"/>
	<path class="st0" d="M408.31,259.08c-3.83,1.37-8.12,5.29-10.76,7.99c-4.41,89.17-78.11,160.13-168.39,160.13
		c-93.11,0-168.6-75.48-168.6-168.6s75.48-168.6,168.6-168.6c53.28,0,100.79,24.72,131.67,63.3c4.33-4.07,2.56-9.32,3.09-11.78
		c0.11-0.5,0.33-0.94,0.63-1.33c-32.97-37.67-81.4-61.46-135.39-61.46c-99.33,0-179.86,80.53-179.86,179.86
		s80.53,179.86,179.86,179.86c99.26,0,179.73-80.4,179.86-179.63C408.77,258.91,408.53,258.99,408.31,259.08z"/>
	<path class="st0" d="M489.61,133.08c-1.39,50.81-23.74,85.73-46.34,104.18c-7.98,6.52-15.99,10.99-23.12,13.37
		c-1.69,0.57-3.3,1.16-4.81,1.78c-2.33,0.95-4.44,1.95-6.36,2.99c-4.99,2.67-8.64,5.57-11.32,8.3c-6.35,6.49-7.16,12.12-7.16,12.12
		c-5.43-17.74-1.75-34.84,4.31-48.7c2.46-5.62,5.31-10.7,8.11-15.08c1.63-2.55,3.23-4.84,4.73-6.88c4.5-6.07,8.03-9.67,8.25-9.89
		c-3.39,1.83-6.45,4.12-9.22,6.72c-1.81,1.69-3.5,3.53-5.06,5.45c-3.23,3.96-5.97,8.31-8.28,12.75
		c-9.22,17.73-11.68,36.79-11.68,36.79c-4.67-11.74-3.82-36.29,5.54-57.19c1.97-4.4,4.32-8.64,7.08-12.57c1.4-2,2.9-3.9,4.51-5.71
		c6.42-7.2,14.55-12.78,24.63-15.48c1.52-0.41,3.08-0.75,4.69-1.03C473.42,157.37,489.61,133.08,489.61,133.08z"/>
	<path class="st0" d="M414.31,148.91c0,0-0.01,0.01,0,0.02c-1.31,16.38-12.12,25.84-15.82,29.44c-0.25,0.24-0.5,0.5-0.77,0.79
		c-1.34,1.45-2.88,3.42-4.49,5.65v0.01c-2.55,3.53-5.24,7.66-7.46,11.24c-2.96,4.7-5.11,8.41-5.11,8.41s-3.81-7.22,0.2-19.5
		c0.07-0.23,0.16-0.46,0.23-0.69c0.07-0.23,0.16-0.47,0.25-0.7c0.17-0.47,0.36-0.93,0.55-1.42c0.18-0.48,0.38-0.95,0.6-1.45
		c0.08-0.2,0.17-0.41,0.27-0.61c0.05-0.13,0.12-0.27,0.18-0.39c0.25-0.55,0.52-1.1,0.81-1.66c0.46-0.9,0.95-1.82,1.5-2.77
		c0.3-0.52,0.61-1.04,0.93-1.57c0.18-0.29,0.38-0.6,0.57-0.9c0.1-0.16,0.19-0.3,0.28-0.45c1.47-2.31,2.71-4.46,3.76-6.46
		c7.77-14.69,5.58-21.34,5.58-21.34c0,1.01-3.45,10.27-7.92,17.37c-1.29,2.03-2.66,3.88-4.05,5.31c-0.06,0.05-0.12,0.12-0.17,0.18
		c-0.21,0.22-0.41,0.47-0.61,0.72c-0.08,0.09-0.16,0.18-0.22,0.28c-0.1,0.12-0.18,0.24-0.27,0.37c-0.15,0.2-0.29,0.41-0.43,0.63
		c-0.09,0.14-0.18,0.28-0.27,0.43c-0.09,0.15-0.18,0.29-0.27,0.45c-0.1,0.16-0.2,0.34-0.3,0.5c-0.08,0.15-0.16,0.29-0.24,0.44
		c-0.16,0.3-0.33,0.61-0.5,0.93c-0.18,0.37-0.37,0.73-0.54,1.12c-0.19,0.39-0.38,0.8-0.55,1.21c-0.14,0.3-0.27,0.6-0.4,0.92
		c-0.39,0.94-0.78,1.92-1.14,2.91c-0.09,0.24-0.18,0.49-0.27,0.73c-0.05,0.12-0.08,0.25-0.13,0.37c-2.83,7.92-4.61,16.27-4.61,16.27
		c-6.62-14.45-8.92-26.8-8.25-36.72c0.36-5.38,1.58-10.04,3.47-13.92c1.03-2.14,2.26-4.05,3.64-5.71c2.38-2.83,5.21-4.95,8.33-6.3
		c6.11-2.66,10.52-7.64,13.59-12.48c4.15-6.58,5.81-12.94,5.81-12.94C411.95,124.56,415.15,138.2,414.31,148.91z"/>
	<g>
		<g>
			<g>
				<path class="st1" d="M85.05,257.81c-1.07,8.14-1.75,12.91-2.05,14.31c-0.74,3.37-1.87,5.06-3.38,5.06
					c-1.49,0-2.55-1.48-3.2-4.44c-0.42-1.88-1.2-9.03-2.34-21.45c-1.09-11.75-1.64-20.82-1.64-27.19c0-3.82,0.53-6.99,1.6-9.51
					c1.34-3.18,3.37-4.78,6.1-4.78c2.48,0,4.41,1.37,5.8,4.11c1.04,2.04,1.56,5.48,1.56,10.33c0,5.58-0.63,14.97-1.9,28.16
					c1.41-2.65,3.29-3.97,5.62-3.97c2.23,0,4.22,1.29,5.95,3.87c-1.17-12.59-1.75-22.17-1.75-28.75c0-3.8,0.55-6.9,1.64-9.3
					c1.34-2.97,3.37-4.46,6.1-4.46c4.91,0,7.37,4.82,7.37,14.46c0,10.85-1.14,24.69-3.42,41.51c-0.5,3.7-0.86,5.97-1.08,6.8
					c-0.77,3.06-1.87,4.6-3.31,4.6c-1.64,0-2.77-1.66-3.38-4.97c-0.3-1.56-0.84-6.41-1.64-14.53c-1.39,3.7-3.5,5.55-6.32,5.55
					C88.52,263.22,86.42,261.42,85.05,257.81z"/>
				<path class="st1" d="M125.97,232.23c1.91,0.03,2.86,1.37,2.86,4.02c0,1.12-0.24,2.91-0.71,5.36c-0.82,4.25-1.23,7.31-1.23,9.2
					c0,2.17,0.41,3.96,1.23,5.36c0.92,1.57,2.2,2.35,3.83,2.35c1.69,0,3-0.8,3.94-2.4c0.87-1.47,1.3-3.33,1.3-5.57
					c0-1.76-0.29-4.3-0.86-7.63c-0.52-3.01-0.78-5.07-0.78-6.19c0-3.01,0.93-4.51,2.79-4.51c1.88,0,3.87,2.32,5.95,6.95
					c2.38,5.3,3.57,10.68,3.57,16.15c0,4.66-0.93,8.94-2.79,12.84c-2.85,6.01-7.24,9.01-13.17,9.01c-4.98,0-8.92-2.44-11.79-7.32
					c-2.43-4.15-3.65-9.2-3.65-15.17c0-6.1,1.41-11.9,4.24-17.42C122.46,233.88,124.21,232.2,125.97,232.23z"/>
				<path class="st1" d="M174.89,268.09c-1.49,2.87-2.84,4.91-4.05,6.12c-2.11,2.07-4.38,3.11-6.81,3.11
					c-3.15,0-5.77-1.69-7.85-5.07c-2.63-4.24-3.94-9.85-3.94-16.83c0-6.95,1.4-12.67,4.2-17.16c2.43-3.92,5.34-5.88,8.74-5.88
					c2.98,0,5.78,1.5,8.41,4.49c1.29-3.09,2.98-4.64,5.06-4.64c2.23,0,3.88,1.45,4.95,4.35c0.79,2.17,1.19,4.86,1.19,8.07
					c0,4.36-0.22,8.93-0.67,13.71c-0.45,4.87-1.02,8.79-1.71,11.75c-1.12,4.81-2.41,7.21-3.87,7.21c-0.89,0-1.71-1.32-2.45-3.95
					C176,273.15,175.61,271.39,174.89,268.09z M170.16,212.87c1.71,0,3.74,1.24,6.1,3.73c2.03,2.17,3.05,4.24,3.05,6.22
					c0,1.34-0.35,2.42-1.06,3.25c-0.71,0.83-1.58,1.24-2.62,1.24c-1.34,0-3.09-1.04-5.24-3.11c-1.04-0.99-1.8-1.48-2.27-1.48
					c-0.42,0-0.97,0.38-1.64,1.15c-2.11,2.45-3.72,3.68-4.84,3.68c-1.61,0-2.42-1.02-2.42-3.06c0-2.23,1.49-4.85,4.46-7.84
					C166.19,214.13,168.35,212.87,170.16,212.87z M172.73,246.29c-1.66-2.2-3.27-3.3-4.84-3.3c-1.66,0-2.96,0.97-3.91,2.92
					c-0.79,1.66-1.19,3.63-1.19,5.93c0,2.84,0.56,4.97,1.67,6.41c0.94,1.21,2.06,1.82,3.35,1.82c2.23,0,3.98-1.86,5.24-5.59
					C172.91,251.6,172.8,248.87,172.73,246.29z"/>
				<path class="st1" d="M200.52,248.3c2.06-4.64,3.82-8.23,5.28-10.77c2.23-3.88,4.39-5.82,6.47-5.82c2.83,0,5.05,3.73,6.66,11.18
					c1.24,5.73,1.86,12.29,1.86,19.68c0,10.35-2.59,15.52-7.77,15.52c-1.39,0-2.32-0.7-2.79-2.1c-0.3-0.89-0.66-3.44-1.08-7.65
					c-0.89-9.08-2.21-13.63-3.94-13.63c-1.19,0-2.57,2.47-4.13,7.41c-0.35,1.12-1.18,4.19-2.49,9.23c-0.89,3.41-2.02,5.12-3.38,5.12
					s-2.41-2.14-3.12-6.43c-1.59-9.59-2.38-18.62-2.38-27.07c0-7.5,1.98-11.25,5.95-11.25c1.84,0,3.27,0.93,4.31,2.8
					c0.89,1.64,1.34,3.68,1.34,6.12C201.3,242.1,201.04,244.66,200.52,248.3z"/>
				<path class="st1" d="M261.6,233.67l-0.41,10.85c1.41-2.93,3.46-4.4,6.14-4.4c1.79,0,3.31,0.67,4.58,2.01
					c1.31,1.43,1.97,3.28,1.97,5.55c0,2.17-0.65,3.94-1.95,5.31s-2.81,2.06-4.52,2.06c-3.05,0-5.21-1.88-6.47-5.64
					c-0.4,8.37-0.72,13.54-0.97,15.51c-1.02,8.18-2.77,12.27-5.24,12.27c-2.48,0-3.99-3.46-4.54-10.37
					c-0.94-11.85-1.52-23.73-1.75-35.64c-1.54-0.86-2.73-2.13-3.57-3.82c-1.39-2.77-2.08-5.89-2.08-9.36c0-1.66,0.21-3.23,0.63-4.73
					c0.55-2.01,1.36-3.01,2.45-3.01c0.3,0,0.94,0.22,1.93,0.67c0.64,0.29,1.19,0.51,1.64,0.67c1.31-3.22,3.22-4.83,5.73-4.83
					c2.53,0,4.53,1.99,5.99,5.98c1.41,0.03,2.49,0.05,3.24,0.05c3.17,0,6.84-0.92,11.01-2.77c0.72-0.32,1.43-0.48,2.12-0.48
					c1.51,0,2.7,1.2,3.57,3.59c0.69,1.88,1.04,3.91,1.04,6.07c0,4.27-1.17,7.63-3.5,10.09c-2.06,2.2-4.84,3.52-8.33,3.97
					C268.34,233.49,265.44,233.64,261.6,233.67z"/>
				<path class="st1" d="M295.97,231.71c1.74,0,3.5,0.43,5.28,1.29c2.28,1.12,3.42,2.61,3.42,4.49c0,1.82-0.67,2.72-2.01,2.72
					c-0.37,0-0.88-0.14-1.53-0.43c-1.81-0.8-3.17-1.19-4.09-1.19c-1.71,0-3.09,0.94-4.13,2.82c-0.94,1.66-1.41,3.63-1.41,5.93
					c0,2.55,0.56,4.61,1.69,6.17s2.68,2.34,4.67,2.34c1.96,0,3.5-0.76,4.63-2.29s1.69-3.55,1.69-6.07c0-0.25-0.07-1.37-0.22-3.35
					c-0.03-0.32-0.04-0.7-0.04-1.15c0-1.82,0.68-2.72,2.05-2.72c1.46,0,2.68,1.43,3.65,4.3c1.09,3.28,1.64,7.19,1.64,11.71
					c0,5.29-1.15,9.9-3.46,13.82c-2.85,4.85-6.83,7.27-11.94,7.27c-4.09,0-7.51-1.64-10.27-4.92c-3.55-4.21-5.32-9.91-5.32-17.12
					c0-6.5,1.33-11.95,3.98-16.35C287.15,234.16,291.06,231.74,295.97,231.71z"/>
				<path class="st1" d="M331.08,231.71c1.74,0,3.5,0.43,5.28,1.29c2.28,1.12,3.42,2.61,3.42,4.49c0,1.82-0.67,2.72-2.01,2.72
					c-0.37,0-0.88-0.14-1.53-0.43c-1.81-0.8-3.17-1.19-4.09-1.19c-1.71,0-3.09,0.94-4.13,2.82c-0.94,1.66-1.41,3.63-1.41,5.93
					c0,2.55,0.56,4.61,1.69,6.17s2.68,2.34,4.67,2.34c1.96,0,3.5-0.76,4.63-2.29s1.69-3.55,1.69-6.07c0-0.25-0.07-1.37-0.22-3.35
					c-0.03-0.32-0.04-0.7-0.04-1.15c0-1.82,0.68-2.72,2.05-2.72c1.46,0,2.68,1.43,3.65,4.3c1.09,3.28,1.64,7.19,1.64,11.71
					c0,5.29-1.15,9.9-3.46,13.82c-2.85,4.85-6.83,7.27-11.94,7.27c-4.09,0-7.51-1.64-10.27-4.92c-3.55-4.21-5.32-9.91-5.32-17.12
					c0-6.5,1.33-11.95,3.98-16.35C322.27,234.16,326.17,231.74,331.08,231.71z"/>
				<path class="st1" d="M373.97,266.85c-1.41,3.89-2.88,6.52-4.39,7.89c-1.76,1.63-3.73,2.44-5.91,2.44
					c-3.82,0-7.01-2.47-9.56-7.41c-2.23-4.3-3.35-9.47-3.35-15.49c0-5.58,0.94-10.45,2.83-14.63c2.26-5.04,5.41-7.55,9.45-7.55
					c3.52,0,6.26,2.06,8.22,6.17c-0.55-8.13-0.82-13.63-0.82-16.49c0-4.53,0.82-7.75,2.46-9.66c1.24-1.43,2.66-2.15,4.28-2.15
					c2.46,0,4.3,1.47,5.54,4.4c0.84,2.01,1.26,5.1,1.26,9.27c0,7.49-1.18,22.97-3.53,46.44c-0.47,4.75-1.49,7.12-3.05,7.12
					c-1.24,0-2.15-1.41-2.72-4.24C374.55,272.27,374.32,270.24,373.97,266.85z M372.67,253.8c-0.47-4.33-0.89-8.61-1.26-12.81
					c-0.17,1.4-0.74,2.1-1.71,2.1c-0.27,0-0.87-0.23-1.8-0.69c-0.93-0.46-1.69-0.69-2.29-0.69c-1.59,0-2.85,0.85-3.79,2.53
					c-0.87,1.53-1.3,3.35-1.3,5.45c0,2.58,0.51,4.73,1.53,6.45c1.12,1.88,2.64,2.82,4.58,2.82c1.39,0,2.58-0.48,3.57-1.43
					C370.85,256.86,371.68,255.61,372.67,253.8z"/>
			</g>
		</g>
		<g>
			<path class="st0" d="M85.05,257.81c-1.07,8.14-1.75,12.91-2.05,14.31c-0.74,3.37-1.87,5.06-3.38,5.06c-1.49,0-2.55-1.48-3.2-4.44
				c-0.42-1.88-1.2-9.03-2.34-21.45c-1.09-11.75-1.64-20.82-1.64-27.19c0-3.82,0.53-6.99,1.6-9.51c1.34-3.18,3.37-4.78,6.1-4.78
				c2.48,0,4.41,1.37,5.8,4.11c1.04,2.04,1.56,5.48,1.56,10.33c0,5.58-0.63,14.97-1.9,28.16c1.41-2.65,3.29-3.97,5.62-3.97
				c2.23,0,4.22,1.29,5.95,3.87c-1.17-12.59-1.75-22.17-1.75-28.75c0-3.8,0.55-6.9,1.64-9.3c1.34-2.97,3.37-4.46,6.1-4.46
				c4.91,0,7.37,4.82,7.37,14.46c0,10.85-1.14,24.69-3.42,41.51c-0.5,3.7-0.86,5.97-1.08,6.8c-0.77,3.06-1.87,4.6-3.31,4.6
				c-1.64,0-2.77-1.66-3.38-4.97c-0.3-1.56-0.84-6.41-1.64-14.53c-1.39,3.7-3.5,5.55-6.32,5.55
				C88.52,263.22,86.42,261.42,85.05,257.81z"/>
			<path class="st0" d="M125.97,232.23c1.91,0.03,2.86,1.37,2.86,4.02c0,1.12-0.24,2.91-0.71,5.36c-0.82,4.25-1.23,7.31-1.23,9.2
				c0,2.17,0.41,3.96,1.23,5.36c0.92,1.57,2.2,2.35,3.83,2.35c1.69,0,3-0.8,3.94-2.4c0.87-1.47,1.3-3.33,1.3-5.57
				c0-1.76-0.29-4.3-0.86-7.63c-0.52-3.01-0.78-5.07-0.78-6.19c0-3.01,0.93-4.51,2.79-4.51c1.88,0,3.87,2.32,5.95,6.95
				c2.38,5.3,3.57,10.68,3.57,16.15c0,4.66-0.93,8.94-2.79,12.84c-2.85,6.01-7.24,9.01-13.17,9.01c-4.98,0-8.92-2.44-11.79-7.32
				c-2.43-4.15-3.65-9.2-3.65-15.17c0-6.1,1.41-11.9,4.24-17.42C122.46,233.88,124.21,232.2,125.97,232.23z"/>
			<path class="st0" d="M174.89,268.09c-1.49,2.87-2.84,4.91-4.05,6.12c-2.11,2.07-4.38,3.11-6.81,3.11c-3.15,0-5.77-1.69-7.85-5.07
				c-2.63-4.24-3.94-9.85-3.94-16.83c0-6.95,1.4-12.67,4.2-17.16c2.43-3.92,5.34-5.88,8.74-5.88c2.98,0,5.78,1.5,8.41,4.49
				c1.29-3.09,2.98-4.64,5.06-4.64c2.23,0,3.88,1.45,4.95,4.35c0.79,2.17,1.19,4.86,1.19,8.07c0,4.36-0.22,8.93-0.67,13.71
				c-0.45,4.87-1.02,8.79-1.71,11.75c-1.12,4.81-2.41,7.21-3.87,7.21c-0.89,0-1.71-1.32-2.45-3.95
				C176,273.15,175.61,271.39,174.89,268.09z M170.16,212.87c1.71,0,3.74,1.24,6.1,3.73c2.03,2.17,3.05,4.24,3.05,6.22
				c0,1.34-0.35,2.42-1.06,3.25c-0.71,0.83-1.58,1.24-2.62,1.24c-1.34,0-3.09-1.04-5.24-3.11c-1.04-0.99-1.8-1.48-2.27-1.48
				c-0.42,0-0.97,0.38-1.64,1.15c-2.11,2.45-3.72,3.68-4.84,3.68c-1.61,0-2.42-1.02-2.42-3.06c0-2.23,1.49-4.85,4.46-7.84
				C166.19,214.13,168.35,212.87,170.16,212.87z M172.73,246.29c-1.66-2.2-3.27-3.3-4.84-3.3c-1.66,0-2.96,0.97-3.91,2.92
				c-0.79,1.66-1.19,3.63-1.19,5.93c0,2.84,0.56,4.97,1.67,6.41c0.94,1.21,2.06,1.82,3.35,1.82c2.23,0,3.98-1.86,5.24-5.59
				C172.91,251.6,172.8,248.87,172.73,246.29z"/>
			<path class="st0" d="M200.52,248.3c2.06-4.64,3.82-8.23,5.28-10.77c2.23-3.88,4.39-5.82,6.47-5.82c2.83,0,5.05,3.73,6.66,11.18
				c1.24,5.73,1.86,12.29,1.86,19.68c0,10.35-2.59,15.52-7.77,15.52c-1.39,0-2.32-0.7-2.79-2.1c-0.3-0.89-0.66-3.44-1.08-7.65
				c-0.89-9.08-2.21-13.63-3.94-13.63c-1.19,0-2.57,2.47-4.13,7.41c-0.35,1.12-1.18,4.19-2.49,9.23c-0.89,3.41-2.02,5.12-3.38,5.12
				s-2.41-2.14-3.12-6.43c-1.59-9.59-2.38-18.62-2.38-27.07c0-7.5,1.98-11.25,5.95-11.25c1.84,0,3.27,0.93,4.31,2.8
				c0.89,1.64,1.34,3.68,1.34,6.12C201.3,242.1,201.04,244.66,200.52,248.3z"/>
			<path class="st0" d="M261.6,233.67l-0.41,10.85c1.41-2.93,3.46-4.4,6.14-4.4c1.79,0,3.31,0.67,4.58,2.01
				c1.31,1.43,1.97,3.28,1.97,5.55c0,2.17-0.65,3.94-1.95,5.31s-2.81,2.06-4.52,2.06c-3.05,0-5.21-1.88-6.47-5.64
				c-0.4,8.37-0.72,13.54-0.97,15.51c-1.02,8.18-2.77,12.27-5.24,12.27c-2.48,0-3.99-3.46-4.54-10.37
				c-0.94-11.85-1.52-23.73-1.75-35.64c-1.54-0.86-2.73-2.13-3.57-3.82c-1.39-2.77-2.08-5.89-2.08-9.36c0-1.66,0.21-3.23,0.63-4.73
				c0.55-2.01,1.36-3.01,2.45-3.01c0.3,0,0.94,0.22,1.93,0.67c0.64,0.29,1.19,0.51,1.64,0.67c1.31-3.22,3.22-4.83,5.73-4.83
				c2.53,0,4.53,1.99,5.99,5.98c1.41,0.03,2.49,0.05,3.24,0.05c3.17,0,6.84-0.92,11.01-2.77c0.72-0.32,1.43-0.48,2.12-0.48
				c1.51,0,2.7,1.2,3.57,3.59c0.69,1.88,1.04,3.91,1.04,6.07c0,4.27-1.17,7.63-3.5,10.09c-2.06,2.2-4.84,3.52-8.33,3.97
				C268.34,233.49,265.44,233.64,261.6,233.67z"/>
			<path class="st0" d="M295.97,231.71c1.74,0,3.5,0.43,5.28,1.29c2.28,1.12,3.42,2.61,3.42,4.49c0,1.82-0.67,2.72-2.01,2.72
				c-0.37,0-0.88-0.14-1.53-0.43c-1.81-0.8-3.17-1.19-4.09-1.19c-1.71,0-3.09,0.94-4.13,2.82c-0.94,1.66-1.41,3.63-1.41,5.93
				c0,2.55,0.56,4.61,1.69,6.17s2.68,2.34,4.67,2.34c1.96,0,3.5-0.76,4.63-2.29s1.69-3.55,1.69-6.07c0-0.25-0.07-1.37-0.22-3.35
				c-0.03-0.32-0.04-0.7-0.04-1.15c0-1.82,0.68-2.72,2.05-2.72c1.46,0,2.68,1.43,3.65,4.3c1.09,3.28,1.64,7.19,1.64,11.71
				c0,5.29-1.15,9.9-3.46,13.82c-2.85,4.85-6.83,7.27-11.94,7.27c-4.09,0-7.51-1.64-10.27-4.92c-3.55-4.21-5.32-9.91-5.32-17.12
				c0-6.5,1.33-11.95,3.98-16.35C287.15,234.16,291.06,231.74,295.97,231.71z"/>
			<path class="st0" d="M331.08,231.71c1.74,0,3.5,0.43,5.28,1.29c2.28,1.12,3.42,2.61,3.42,4.49c0,1.82-0.67,2.72-2.01,2.72
				c-0.37,0-0.88-0.14-1.53-0.43c-1.81-0.8-3.17-1.19-4.09-1.19c-1.71,0-3.09,0.94-4.13,2.82c-0.94,1.66-1.41,3.63-1.41,5.93
				c0,2.55,0.56,4.61,1.69,6.17s2.68,2.34,4.67,2.34c1.96,0,3.5-0.76,4.63-2.29s1.69-3.55,1.69-6.07c0-0.25-0.07-1.37-0.22-3.35
				c-0.03-0.32-0.04-0.7-0.04-1.15c0-1.82,0.68-2.72,2.05-2.72c1.46,0,2.68,1.43,3.65,4.3c1.09,3.28,1.64,7.19,1.64,11.71
				c0,5.29-1.15,9.9-3.46,13.82c-2.85,4.85-6.83,7.27-11.94,7.27c-4.09,0-7.51-1.64-10.27-4.92c-3.55-4.21-5.32-9.91-5.32-17.12
				c0-6.5,1.33-11.95,3.98-16.35C322.27,234.16,326.17,231.74,331.08,231.71z"/>
			<path class="st0" d="M373.97,266.85c-1.41,3.89-2.88,6.52-4.39,7.89c-1.76,1.63-3.73,2.44-5.91,2.44c-3.82,0-7.01-2.47-9.56-7.41
				c-2.23-4.3-3.35-9.47-3.35-15.49c0-5.58,0.94-10.45,2.83-14.63c2.26-5.04,5.41-7.55,9.45-7.55c3.52,0,6.26,2.06,8.22,6.17
				c-0.55-8.13-0.82-13.63-0.82-16.49c0-4.53,0.82-7.75,2.46-9.66c1.24-1.43,2.66-2.15,4.28-2.15c2.46,0,4.3,1.47,5.54,4.4
				c0.84,2.01,1.26,5.1,1.26,9.27c0,7.49-1.18,22.97-3.53,46.44c-0.47,4.75-1.49,7.12-3.05,7.12c-1.24,0-2.15-1.41-2.72-4.24
				C374.55,272.27,374.32,270.24,373.97,266.85z M372.67,253.8c-0.47-4.33-0.89-8.61-1.26-12.81c-0.17,1.4-0.74,2.1-1.71,2.1
				c-0.27,0-0.87-0.23-1.8-0.69c-0.93-0.46-1.69-0.69-2.29-0.69c-1.59,0-2.85,0.85-3.79,2.53c-0.87,1.53-1.3,3.35-1.3,5.45
				c0,2.58,0.51,4.73,1.53,6.45c1.12,1.88,2.64,2.82,4.58,2.82c1.39,0,2.58-0.48,3.57-1.43
				C370.85,256.86,371.68,255.61,372.67,253.8z"/>
		</g>
	</g>
	<g>
		<path class="st2" d="M129.89,315.66c-0.5-0.76-0.93-1.51-1.3-2.27c-0.36-0.75-0.63-1.46-0.8-2.12c-0.17-0.66-0.25-1.31-0.25-1.96
			c0-1.04,0.21-2.11,0.62-3.19c0.41-1.08,1-2.1,1.74-3.07c0.75-0.97,1.6-1.8,2.56-2.5c1.01-0.73,2.11-1.31,3.28-1.75
			c1.17-0.44,2.4-0.75,3.68-0.93c1.28-0.18,2.61-0.27,3.99-0.27c1.1,0,2.2,0.04,3.31,0.12c1.11,0.08,2.3,0.18,3.55,0.31
			c1.26,0.12,2.58,0.24,3.97,0.36c1.39,0.12,2.57,0.18,3.54,0.18c0.56,0,0.85,0.2,0.85,0.6c0,0.19-0.08,0.43-0.25,0.69
			c-0.13,0.42-0.26,0.83-0.39,1.24c-0.13,0.41-0.25,0.74-0.37,1.01c-0.12,0.26-0.28,0.47-0.48,0.61s-0.46,0.22-0.77,0.22
			c-2.44,0-4.25-0.06-5.45-0.18l-4.96-0.32c-0.72-0.04-1.35-0.08-1.9-0.13c-0.55-0.05-1.11-0.09-1.66-0.13s-1.06-0.07-1.52-0.1
			c-0.46-0.03-0.98-0.04-1.55-0.04c-2.3,0-4.26,0.27-5.87,0.82c-1.61,0.55-2.82,1.36-3.64,2.43c-0.82,1.07-1.23,2.41-1.23,4.01
			c0,0.91,0.15,1.82,0.45,2.71c0.3,0.9,0.78,1.94,1.44,3.14L129.89,315.66z M142.1,315.95c-1.11-0.44-2.38-0.66-3.81-0.66
			c-1.15,0-2.21,0.16-3.19,0.49c-0.98,0.33-1.78,0.85-2.39,1.55c-0.61,0.71-0.92,1.6-0.92,2.67c0,0.59,0.18,1.13,0.55,1.62
			c0.37,0.49,0.88,0.87,1.54,1.14c0.65,0.28,1.39,0.41,2.2,0.41c0.89,0,1.79-0.18,2.7-0.55c0.91-0.36,1.69-0.87,2.35-1.53
			c1.04-1.04,1.89-2.49,2.53-4.32c0.64-1.84,1.25-3.6,1.83-5.27s1.43-3.22,2.57-4.61c1.14-1.4,2.83-2.58,5.06-3.55l0.49,0.49
			c-0.45,0.81-0.84,1.92-1.18,3.32c-0.34,1.41-0.66,2.81-0.97,4.19c-0.31,1.39-0.72,2.73-1.23,4.02c-0.51,1.3-1.19,2.48-2.05,3.56
			c-1.29,1.66-2.97,2.91-5.05,3.76c-2.08,0.85-4.23,1.28-6.45,1.28c-1.17,0-2.19-0.17-3.06-0.52c-0.88-0.34-1.54-0.84-2-1.49
			c-0.46-0.65-0.69-1.4-0.69-2.23c0-1.3,0.3-2.38,0.9-3.23c0.6-0.85,1.39-1.47,2.38-1.86c0.99-0.38,2.07-0.58,3.26-0.58
			c1.8,0,3.46,0.37,4.96,1.11L142.1,315.95z"/>
		<path class="st2" d="M161.42,322.2l-0.09,0.29l0.09,0.22c0.02-0.04,0.06-0.09,0.11-0.15c0.05-0.06,0.12-0.11,0.2-0.15
			c0.02-0.05,0.18-0.38,0.48-0.98c0.3-0.6,0.57-1.17,0.81-1.69c0.67-1.32,1.32-2.54,1.97-3.65c0.65-1.12,1.44-2.25,2.38-3.4
			c0.94-1.15,1.95-2.1,3.05-2.84s2.21-1.11,3.33-1.11c0.91,0,1.57,0.21,1.99,0.63c0.41,0.42,0.62,0.98,0.62,1.69
			c0,0.64-0.15,1.36-0.45,2.15l-2.58,6.22c-0.26,0.95-0.38,1.59-0.38,1.92c0,0.78,0.42,1.17,1.26,1.17c0.47,0,0.94-0.07,1.4-0.21
			c0.47-0.14,0.88-0.31,1.23-0.49c0.35-0.18,0.85-0.47,1.47-0.84c0.63-0.38,0.98-0.59,1.05-0.63l0.32,0.51
			c-2.55,1.82-5.01,2.73-7.37,2.73c-1.35,0-2.45-0.29-3.29-0.87c-0.84-0.58-1.27-1.33-1.27-2.27c0-0.33,0.05-0.69,0.15-1.08
			c0.1-0.39,0.25-0.89,0.45-1.5l3.09-7.55c0.04-0.04,0.08-0.11,0.11-0.2c0.03-0.09,0.06-0.15,0.08-0.17l-0.18-0.14
			c-0.17,0-0.94,0.74-2.29,2.21c-2.04,2.43-4.28,5.8-6.74,10.12c-0.56,1.07-1.39,1.61-2.49,1.61c-0.54,0-1.06-0.14-1.55-0.41
			c-0.49-0.27-0.89-0.64-1.19-1.12c-0.3-0.48-0.45-1.01-0.45-1.59c0-0.49,0.12-0.98,0.37-1.47l7.2-19.66l6.03-1.17L161.42,322.2z"/>
		<path class="st2" d="M195.03,319.13c-0.31,0.87-0.46,1.55-0.46,2.04c0,0.82,0.43,1.23,1.29,1.23c1.12,0,2.8-0.76,5.05-2.27
			l0.29,0.48c-0.66,0.47-1.4,0.92-2.24,1.34c-0.84,0.42-1.74,0.78-2.7,1.07c-0.96,0.29-1.88,0.44-2.77,0.44
			c-1.78,0-3.08-0.65-3.9-1.95c-1.06,0.63-2.09,1.09-3.07,1.4c-0.98,0.31-2.01,0.46-3.09,0.46c-0.84,0-1.59-0.14-2.24-0.41
			c-0.66-0.27-1.17-0.66-1.53-1.16c-0.36-0.5-0.54-1.08-0.54-1.74c0-0.6,0.13-1.18,0.38-1.73l3.15-8.42l5.94-1.2l-3.87,10.5
			c-0.32,0.75-0.48,1.41-0.48,1.98c0,0.82,0.4,1.23,1.2,1.23c0.9,0,2.22-0.51,3.96-1.52v-0.6c0-0.39,0.12-1.01,0.37-1.87l3.18-8.43
			l6.08-1.2l-1.04,2.67c1.32-0.97,1.98-1.9,1.98-2.8c0-0.42-0.1-0.74-0.3-0.96c-0.2-0.22-0.46-0.33-0.78-0.33h-0.31l-0.22-0.38
			l3.27-1.54c0.6,0.74,0.91,1.48,0.91,2.23c0,0.83-0.3,1.63-0.91,2.4c-0.61,0.77-1.32,1.41-2.14,1.91c-0.82,0.5-1.5,0.78-2.04,0.84
			v-0.03L195.03,319.13z M189.22,325.89c0.33,0.4,0.5,0.88,0.5,1.44c0,0.56-0.17,1.04-0.5,1.43c-0.33,0.39-0.82,0.58-1.45,0.58
			c-0.58,0-1.04-0.19-1.36-0.58c-0.32-0.39-0.48-0.85-0.48-1.4c0-0.53,0.16-1.01,0.49-1.44c0.33-0.42,0.78-0.64,1.35-0.64
			C188.4,325.29,188.89,325.49,189.22,325.89z"/>
		<path class="st2" d="M216.45,320.7c-0.86,0.6-1.76,1.12-2.71,1.54c-0.95,0.42-1.92,0.73-2.92,0.93c-1,0.2-2.04,0.3-3.11,0.3
			c-1.78,0-3.36-0.26-4.74-0.78c-1.38-0.52-2.06-1.5-2.06-2.95c0-1.31,0.32-2.64,0.95-3.98c0.63-1.35,1.48-2.56,2.54-3.65
			c1.06-1.08,2.26-1.96,3.59-2.62c1.34-0.66,2.66-0.99,3.98-0.99c1.05,0,1.84,0.31,2.36,0.93c0.52,0.62,0.78,1.4,0.78,2.34
			c0,0.84-0.2,1.71-0.59,2.6c-0.39,0.9-0.92,1.63-1.59,2.2c-0.67,0.57-1.39,0.86-2.17,0.86c-0.47,0-0.85-0.15-1.14-0.45
			c-0.29-0.3-0.43-0.64-0.43-1.03c0-0.58,0.21-1.1,0.63-1.55c0.42-0.45,1.03-0.94,1.82-1.46c0.79-0.52,1.39-0.97,1.79-1.34
			c0.4-0.37,0.6-0.78,0.6-1.23c0-0.3-0.1-0.53-0.3-0.71c-0.2-0.17-0.45-0.26-0.76-0.26c-0.88,0-1.73,0.4-2.54,1.21
			c-0.81,0.8-1.52,1.8-2.1,2.99c-0.59,1.19-1.06,2.42-1.4,3.69s-0.52,2.32-0.52,3.12c0,0.73,0.22,1.29,0.65,1.69
			c0.43,0.4,1.04,0.6,1.82,0.6c0.74,0,1.46-0.08,2.16-0.25c0.7-0.16,1.42-0.4,2.17-0.71c0.74-0.31,1.73-0.79,2.96-1.44L216.45,320.7
			z"/>
		<path class="st2" d="M230.67,314.03c-0.33-1.07-0.49-2.12-0.49-3.14c0-2.35,0.64-4.38,1.91-6.07c1.27-1.69,2.95-3.05,5.01-4.08
			c2.07-1.03,4.26-1.78,6.59-2.24c2.32-0.47,4.56-0.7,6.71-0.7c4.3,0,8.04,0.76,11.21,2.29c3.17,1.52,4.76,4.2,4.76,8.03
			c0,2.29-0.54,4.4-1.61,6.31c-1.07,1.91-2.52,3.54-4.33,4.88c-1.81,1.34-3.82,2.36-6.03,3.06c-2.21,0.7-4.4,1.05-6.58,1.05
			c-0.97,0-2-0.08-3.09-0.25c-0.38,1.32-0.77,2.32-1.17,2.99c-0.4,0.67-0.9,1.18-1.51,1.54c-0.5,0.27-1.29,0.57-2.35,0.91
			c-1.07,0.34-2.17,0.6-3.3,0.78c0.47-0.94,0.94-2.06,1.41-3.36l1.29-3.73l1.66-4.97c1.5-4.64,3.25-8.53,5.27-11.68
			c2.02-3.15,4.79-5.27,8.32-6.38l0.41,0.32c-1.3,1.88-2.44,3.91-3.41,6.07c-0.97,2.16-1.99,4.7-3.04,7.62l-1.49,4.27l-1.51,4.05
			l-0.28,0.89c0.64,0.14,1.32,0.22,2.01,0.22c1.82,0,3.56-0.51,5.21-1.52c1.65-1.01,3.1-2.35,4.33-4c1.23-1.65,2.19-3.45,2.88-5.38
			c0.69-1.93,1.03-3.76,1.03-5.48c0-2.55-0.8-4.49-2.39-5.83c-1.59-1.34-3.9-2-6.92-2c-2.33,0-4.53,0.37-6.57,1.1
			c-2.05,0.73-4.12,1.89-6.22,3.46c-1.23,0.85-2.35,1.79-3.37,2.83c-1.02,1.04-1.84,2.16-2.46,3.37c-0.62,1.21-0.94,2.42-0.94,3.64
			c0,1.42,0.43,2.77,1.29,4.05l-0.69,0.6C231.53,316.27,231,315.1,230.67,314.03z"/>
		<path class="st2" d="M270.18,322.2l-0.09,0.29l0.09,0.22c0.02-0.04,0.06-0.09,0.11-0.15c0.05-0.06,0.12-0.11,0.2-0.15
			c0.02-0.05,0.18-0.38,0.48-0.98c0.3-0.6,0.57-1.17,0.81-1.69c0.67-1.32,1.32-2.54,1.97-3.65c0.65-1.12,1.44-2.25,2.38-3.4
			c0.94-1.15,1.95-2.1,3.05-2.84s2.21-1.11,3.33-1.11c0.91,0,1.57,0.21,1.99,0.63c0.41,0.42,0.62,0.98,0.62,1.69
			c0,0.64-0.15,1.36-0.45,2.15l-2.58,6.22c-0.26,0.95-0.38,1.59-0.38,1.92c0,0.78,0.42,1.17,1.26,1.17c0.47,0,0.94-0.07,1.4-0.21
			c0.47-0.14,0.88-0.31,1.23-0.49c0.35-0.18,0.85-0.47,1.47-0.84c0.63-0.38,0.98-0.59,1.05-0.63l0.32,0.51
			c-2.55,1.82-5.01,2.73-7.37,2.73c-1.35,0-2.45-0.29-3.29-0.87c-0.84-0.58-1.27-1.33-1.27-2.27c0-0.33,0.05-0.69,0.15-1.08
			c0.1-0.39,0.25-0.89,0.45-1.5l3.09-7.55c0.04-0.04,0.08-0.11,0.11-0.2c0.03-0.09,0.06-0.15,0.08-0.17l-0.18-0.14
			c-0.17,0-0.94,0.74-2.29,2.21c-2.04,2.43-4.28,5.8-6.74,10.12c-0.56,1.07-1.39,1.61-2.49,1.61c-0.54,0-1.06-0.14-1.55-0.41
			c-0.49-0.27-0.89-0.64-1.19-1.12c-0.3-0.48-0.45-1.01-0.45-1.59c0-0.49,0.12-0.98,0.37-1.47l7.2-19.66l6.03-1.17L270.18,322.2z"/>
		<path class="st2" d="M303.43,319.62c-0.24,0.6-0.35,1.07-0.35,1.4c0,0.79,0.49,1.18,1.46,1.18c0.57,0,1.34-0.18,2.31-0.54
			c0.97-0.36,1.84-0.81,2.62-1.35l0.32,0.38c-0.93,0.76-2.11,1.43-3.55,2.01c-1.43,0.58-2.78,0.87-4.04,0.87
			c-1.79,0-3.13-0.59-4.02-1.78c-0.74,0.47-1.62,0.86-2.64,1.17c-1.02,0.31-2.03,0.46-3.03,0.46c-1.26,0-2.28-0.29-3.06-0.88
			c-0.78-0.59-1.18-1.53-1.18-2.82c0-0.7,0.14-1.51,0.42-2.45c0.28-0.94,0.68-1.87,1.18-2.79c0.51-0.93,1.08-1.76,1.73-2.5
			c0.47-0.55,1.11-1.1,1.9-1.64c0.8-0.54,1.66-0.98,2.6-1.32c0.93-0.34,1.81-0.51,2.64-0.51c1.24,0,2.23,0.42,2.98,1.26l5.76-1.06
			L303.43,319.62z M299.56,309.38c-1.24,0-2.47,1.36-3.69,4.09c-0.61,1.41-1.13,2.78-1.54,4.1c-0.41,1.32-0.62,2.27-0.62,2.86
			c0,1.15,0.46,1.72,1.38,1.72c0.71,0,1.66-0.34,2.86-1.03l-0.18-0.8c0-0.31,0.17-0.93,0.51-1.87l3.09-8.06
			C300.77,309.71,300.17,309.38,299.56,309.38z M304.03,302.4c0.25,1.53,0.78,2.99,1.6,4.41h-1.35c-0.29-0.2-0.61-0.44-0.97-0.71
			c-0.36-0.27-0.7-0.52-1.02-0.77c-0.32-0.25-0.72-0.54-1.19-0.89c-0.14,0.13-0.51,0.48-1.11,1.05c-0.59,0.57-1.07,1.01-1.44,1.31
			h-1.21c1.56-1.48,2.65-2.96,3.27-4.44l-0.05,0.03H304.03z M304.53,300.54c0-0.82,0.4-1.49,1.2-2.01c0.8-0.52,1.68-0.78,2.66-0.78
			c0.78,0,1.42,0.17,1.93,0.52c0.51,0.35,0.76,0.89,0.76,1.61c0,0.51-0.21,0.91-0.64,1.21s-1.04,0.63-1.83,1.01
			c-0.79,0.38-1.18,0.68-1.18,0.9c0,0.4,0.16,0.6,0.48,0.6c0.22,0,0.49-0.12,0.78-0.35v0.63c0,0.11-0.17,0.24-0.5,0.37
			s-0.64,0.2-0.91,0.2c-0.63,0-1.02-0.13-1.2-0.4c-0.17-0.27-0.26-0.65-0.26-1.14c0-0.42,0.14-0.79,0.43-1.11
			c0.29-0.32,0.69-0.64,1.21-0.98c0.52-0.33,0.91-0.61,1.17-0.84c0.26-0.22,0.39-0.47,0.39-0.74c0-0.15-0.09-0.31-0.27-0.46
			c-0.18-0.15-0.38-0.23-0.61-0.23c-0.64,0-1.23,0.21-1.74,0.61c-0.52,0.41-0.81,0.89-0.87,1.43l-0.21-0.06H304.53z"/>
		<path class="st2" d="M313.81,322.11c-0.04,0.12-0.06,0.25-0.06,0.38c0,0.16,0.02,0.25,0.06,0.25c0.02,0,0.08-0.08,0.18-0.25
			c0.06-0.12,0.59-1.26,1.6-3.42c1-2.16,1.94-3.95,2.8-5.37c0.86-1.42,1.87-2.62,3-3.6c1.14-0.98,2.37-1.47,3.7-1.47
			c0.92,0,1.62,0.25,2.11,0.76c0.49,0.51,0.73,1.15,0.73,1.94c0,0.4-0.09,0.85-0.26,1.35l-3.78,9.43c-0.1,0.1-0.15,0.22-0.15,0.35
			c0,0.14,0.07,0.21,0.2,0.21c0.13,0,0.26-0.12,0.37-0.37l1.89-4.07c0.69-1.56,1.47-3.05,2.35-4.48c0.88-1.43,1.93-2.66,3.16-3.71
			c1.22-1.04,2.53-1.57,3.92-1.57c0.53,0,1.02,0.11,1.45,0.32c0.43,0.21,0.77,0.51,1.01,0.89c0.24,0.38,0.35,0.8,0.35,1.27
			c0,0.39-0.08,0.76-0.23,1.11l-3.07,7.92c-0.07,0.2-0.11,0.51-0.11,0.91c0,0.9,0.43,1.35,1.29,1.35c0.73,0,1.6-0.25,2.61-0.74
			c1.01-0.5,1.83-0.96,2.46-1.39l0.29,0.48c-0.86,0.63-1.7,1.14-2.53,1.54c-0.83,0.4-1.67,0.7-2.52,0.91
			c-0.85,0.21-1.68,0.31-2.5,0.31c-1.29,0-2.34-0.31-3.16-0.94c-0.81-0.63-1.22-1.46-1.22-2.48c0-0.56,0.14-1.17,0.41-1.83
			l3.36-8.11v-0.32c0-0.02,0-0.04-0.01-0.06c-0.01-0.02-0.03-0.03-0.08-0.03l-0.28,0.09c-0.82,0.82-1.6,1.7-2.33,2.65
			c-0.74,0.95-1.42,1.91-2.03,2.88c-0.62,0.97-1.11,1.78-1.46,2.42c-0.35,0.64-1.07,1.93-2.14,3.88c-0.29,0.61-0.52,1.04-0.71,1.27
			c-0.18,0.23-0.41,0.39-0.68,0.47c-0.27,0.08-0.7,0.12-1.28,0.12c-1.04,0-1.81-0.28-2.3-0.85c-0.49-0.57-0.74-1.3-0.74-2.2
			c0-0.62,0.12-1.32,0.37-2.07l3.27-8.23c0-0.04,0.01-0.1,0.02-0.17c0.02-0.07,0.04-0.12,0.07-0.15l-0.09-0.09
			c-0.12,0-0.32,0.14-0.6,0.41c-0.77,0.77-1.53,1.64-2.27,2.6c-0.75,0.97-1.41,1.92-1.99,2.86c-0.58,0.94-1.15,1.94-1.7,2.99
			c-0.56,1.06-1.11,2.17-1.67,3.33c-0.23,0.57-0.51,0.98-0.85,1.21c-0.34,0.24-0.82,0.35-1.42,0.35c-1.1,0-1.94-0.28-2.52-0.84
			c-0.58-0.56-0.88-1.27-0.88-2.14c0-0.59,0.15-1.24,0.45-1.95l3.04-8.43l5.94-1.29L313.81,322.11z"/>
	</g>
	<g>
		<g>
			<path class="st3" d="M208.94,379.13c-1.06-0.72-2-1.25-2.8-1.59c-0.81-0.35-1.86-0.73-3.17-1.15c-0.08,1.84-0.56,3.44-1.45,4.8
				c-0.89,1.36-2.05,2.44-3.47,3.25c-1.43,0.81-3,1.4-4.72,1.77c-1.72,0.37-3.46,0.56-5.21,0.56c-1.98,0-3.68-0.24-5.1-0.73
				c-1.42-0.49-2.51-1.18-3.27-2.09c-0.76-0.91-1.14-1.98-1.14-3.2c0-1.29,0.34-2.39,1.02-3.29c0.68-0.9,1.54-1.61,2.59-2.11
				c1.05-0.51,2.17-0.87,3.38-1.09c1.2-0.22,2.41-0.34,3.63-0.34c0.55,0,1.22,0.02,2,0.05c0.79,0.03,1.5,0.09,2.15,0.17
				c0.64,0.08,1.24,0.18,1.79,0.3c-0.27-0.55-0.81-1.57-1.63-3.05c-0.82-1.48-1.42-2.63-1.81-3.44c-0.39-0.81-0.74-1.71-1.06-2.69
				c-0.31-0.98-0.47-1.89-0.47-2.73c0-1.36,0.48-2.63,1.43-3.82c0.95-1.19,2.24-2.13,3.87-2.83c1.62-0.7,3.37-1.05,5.24-1.05
				c1.82,0,3.25,0.34,4.29,1.02c1.04,0.68,1.56,1.58,1.56,2.71c0,1.09-0.31,2.05-0.92,2.89c-0.61,0.84-1.42,1.51-2.41,2
				c-0.99,0.5-1.99,0.81-2.98,0.92c0.91-1.32,1.57-2.47,1.98-3.44c0.41-0.98,0.61-1.94,0.61-2.89c0-1.65-0.71-2.48-2.13-2.48
				c-0.99,0-1.85,0.48-2.58,1.45c-0.74,0.97-1.1,2.1-1.1,3.39c0,1.1,0.22,2.19,0.67,3.27c0.45,1.08,1.13,2.43,2.04,4.06
				c0.92,1.62,1.63,3.02,2.16,4.19c0.52,1.17,0.84,2.34,0.94,3.5c0.56,0.19,1.48,0.46,2.75,0.82c1.27,0.35,2.22,0.66,2.83,0.91
				L208.94,379.13z M193.18,375.05c-1.61,0-3.13,0.2-4.56,0.59c-1.43,0.4-2.59,1.08-3.5,2.06c-0.91,0.98-1.36,2.28-1.36,3.9
				c0,1.28,0.43,2.34,1.3,3.19c0.86,0.84,2,1.27,3.41,1.27c1.1,0,2.11-0.24,3.02-0.71c0.91-0.47,1.71-1.12,2.39-1.95
				c0.68-0.83,1.19-1.73,1.53-2.72c0.35-0.98,0.52-2,0.52-3.05c0-0.78-0.13-1.61-0.38-2.48C194.79,375.08,194,375.05,193.18,375.05z
				"/>
			<path class="st3" d="M227.82,381.72c-0.29,0.76-0.44,1.34-0.44,1.75c0,0.98,0.61,1.48,1.82,1.48c0.72,0,1.68-0.22,2.89-0.67
				c1.21-0.45,2.3-1.01,3.27-1.69l0.4,0.48c-1.16,0.95-2.64,1.78-4.43,2.51c-1.79,0.73-3.47,1.09-5.05,1.09
				c-2.24,0-3.91-0.74-5.03-2.22c-0.92,0.59-2.02,1.07-3.3,1.46c-1.28,0.38-2.54,0.58-3.78,0.58c-1.57,0-2.85-0.37-3.83-1.1
				c-0.98-0.74-1.47-1.91-1.47-3.52c0-0.87,0.18-1.89,0.53-3.06c0.35-1.17,0.84-2.33,1.48-3.49c0.63-1.16,1.35-2.2,2.16-3.12
				c0.59-0.69,1.38-1.37,2.38-2.04c1-0.67,2.08-1.22,3.24-1.65c1.16-0.43,2.26-0.64,3.3-0.64c1.55,0,2.79,0.52,3.72,1.57l7.2-1.32
				L227.82,381.72z M222.98,368.92c-1.55,0-3.08,1.7-4.61,5.1c-0.77,1.76-1.41,3.47-1.93,5.12c-0.52,1.65-0.78,2.84-0.78,3.57
				c0,1.43,0.58,2.15,1.73,2.15c0.88,0,2.07-0.43,3.57-1.29l-0.23-1c0-0.38,0.21-1.16,0.63-2.34l3.86-10.07
				C224.5,369.34,223.75,368.92,222.98,368.92z M220.67,389.21c0.41,0.5,0.62,1.1,0.62,1.8c0,0.68-0.21,1.27-0.64,1.77
				c-0.43,0.5-1.03,0.75-1.79,0.75c-0.72,0-1.28-0.24-1.7-0.73c-0.42-0.49-0.62-1.07-0.62-1.75c0-0.69,0.21-1.3,0.63-1.81
				c0.42-0.52,0.98-0.78,1.69-0.78C219.65,388.46,220.25,388.71,220.67,389.21z"/>
			<path class="st3" d="M254.66,383.07c-1.07,0.76-2.2,1.39-3.39,1.92c-1.18,0.53-2.4,0.91-3.65,1.16
				c-1.25,0.25-2.54,0.37-3.89,0.37c-2.23,0-4.2-0.33-5.92-0.98c-1.72-0.65-2.58-1.88-2.58-3.68c0-1.64,0.4-3.3,1.19-4.98
				c0.79-1.68,1.85-3.2,3.18-4.56c1.32-1.36,2.82-2.45,4.49-3.27c1.67-0.83,3.33-1.24,4.98-1.24c1.32,0,2.3,0.39,2.95,1.16
				c0.65,0.77,0.98,1.75,0.98,2.93c0,1.05-0.25,2.13-0.74,3.25c-0.49,1.12-1.15,2.04-1.99,2.75c-0.83,0.72-1.73,1.07-2.71,1.07
				c-0.59,0-1.06-0.19-1.42-0.56c-0.36-0.37-0.54-0.8-0.54-1.29c0-0.73,0.26-1.37,0.79-1.94c0.53-0.56,1.28-1.17,2.27-1.82
				c0.99-0.65,1.74-1.21,2.24-1.67c0.5-0.46,0.75-0.97,0.75-1.54c0-0.37-0.12-0.66-0.37-0.88c-0.25-0.22-0.57-0.33-0.95-0.33
				c-1.1,0-2.16,0.5-3.17,1.51c-1.02,1-1.89,2.25-2.63,3.73c-0.74,1.48-1.32,3.02-1.76,4.62s-0.65,2.89-0.65,3.9
				c0,0.91,0.27,1.61,0.82,2.11c0.54,0.5,1.3,0.75,2.27,0.75c0.92,0,1.82-0.1,2.7-0.31s1.78-0.5,2.71-0.89
				c0.93-0.39,2.16-0.99,3.69-1.79L254.66,383.07z"/>
			<path class="st3" d="M260.55,384.95l-0.12,0.36l0.12,0.27c0.03-0.05,0.07-0.12,0.13-0.19c0.06-0.08,0.15-0.14,0.25-0.19
				c0.03-0.06,0.23-0.47,0.6-1.23c0.38-0.75,0.71-1.46,1.01-2.11c0.83-1.65,1.65-3.17,2.47-4.57c0.81-1.39,1.8-2.81,2.97-4.25
				c1.17-1.44,2.44-2.62,3.81-3.55c1.37-0.93,2.76-1.39,4.16-1.39c1.14,0,1.97,0.26,2.49,0.79c0.52,0.52,0.78,1.23,0.78,2.11
				c0,0.81-0.19,1.7-0.56,2.69l-3.22,7.77c-0.32,1.19-0.48,1.99-0.48,2.4c0,0.97,0.53,1.46,1.57,1.46c0.59,0,1.17-0.09,1.76-0.27
				c0.58-0.18,1.09-0.38,1.54-0.61s1.06-0.58,1.84-1.05c0.79-0.47,1.22-0.74,1.31-0.79l0.4,0.63c-3.18,2.28-6.25,3.41-9.21,3.41
				c-1.69,0-3.06-0.36-4.12-1.08s-1.58-1.67-1.58-2.83c0-0.41,0.06-0.86,0.19-1.35c0.13-0.49,0.31-1.12,0.56-1.87l3.86-9.44
				c0.05-0.05,0.1-0.13,0.13-0.25c0.04-0.12,0.07-0.19,0.1-0.21l-0.23-0.17c-0.22,0-1.17,0.92-2.86,2.76
				c-2.55,3.03-5.35,7.25-8.42,12.65c-0.7,1.34-1.74,2.01-3.11,2.01c-0.68,0-1.32-0.17-1.94-0.51c-0.61-0.34-1.11-0.81-1.49-1.4
				c-0.38-0.59-0.57-1.26-0.57-1.99c0-0.61,0.15-1.23,0.46-1.84l9-24.56l7.54-1.46L260.55,384.95z"/>
		</g>
		<g>
			<path class="st4" d="M208.94,379.13c-1.06-0.72-2-1.25-2.8-1.59c-0.81-0.35-1.86-0.73-3.17-1.15c-0.08,1.84-0.56,3.44-1.45,4.8
				c-0.89,1.36-2.05,2.44-3.47,3.25c-1.43,0.81-3,1.4-4.72,1.77c-1.72,0.37-3.46,0.56-5.21,0.56c-1.98,0-3.68-0.24-5.1-0.73
				c-1.42-0.49-2.51-1.18-3.27-2.09c-0.76-0.91-1.14-1.98-1.14-3.2c0-1.29,0.34-2.39,1.02-3.29c0.68-0.9,1.54-1.61,2.59-2.11
				c1.05-0.51,2.17-0.87,3.38-1.09c1.2-0.22,2.41-0.34,3.63-0.34c0.55,0,1.22,0.02,2,0.05c0.79,0.03,1.5,0.09,2.15,0.17
				c0.64,0.08,1.24,0.18,1.79,0.3c-0.27-0.55-0.81-1.57-1.63-3.05c-0.82-1.48-1.42-2.63-1.81-3.44c-0.39-0.81-0.74-1.71-1.06-2.69
				c-0.31-0.98-0.47-1.89-0.47-2.73c0-1.36,0.48-2.63,1.43-3.82c0.95-1.19,2.24-2.13,3.87-2.83c1.62-0.7,3.37-1.05,5.24-1.05
				c1.82,0,3.25,0.34,4.29,1.02c1.04,0.68,1.56,1.58,1.56,2.71c0,1.09-0.31,2.05-0.92,2.89c-0.61,0.84-1.42,1.51-2.41,2
				c-0.99,0.5-1.99,0.81-2.98,0.92c0.91-1.32,1.57-2.47,1.98-3.44c0.41-0.98,0.61-1.94,0.61-2.89c0-1.65-0.71-2.48-2.13-2.48
				c-0.99,0-1.85,0.48-2.58,1.45c-0.74,0.97-1.1,2.1-1.1,3.39c0,1.1,0.22,2.19,0.67,3.27c0.45,1.08,1.13,2.43,2.04,4.06
				c0.92,1.62,1.63,3.02,2.16,4.19c0.52,1.17,0.84,2.34,0.94,3.5c0.56,0.19,1.48,0.46,2.75,0.82c1.27,0.35,2.22,0.66,2.83,0.91
				L208.94,379.13z M193.18,375.05c-1.61,0-3.13,0.2-4.56,0.59c-1.43,0.4-2.59,1.08-3.5,2.06c-0.91,0.98-1.36,2.28-1.36,3.9
				c0,1.28,0.43,2.34,1.3,3.19c0.86,0.84,2,1.27,3.41,1.27c1.1,0,2.11-0.24,3.02-0.71c0.91-0.47,1.71-1.12,2.39-1.95
				c0.68-0.83,1.19-1.73,1.53-2.72c0.35-0.98,0.52-2,0.52-3.05c0-0.78-0.13-1.61-0.38-2.48C194.79,375.08,194,375.05,193.18,375.05z
				"/>
			<path class="st4" d="M227.82,381.72c-0.29,0.76-0.44,1.34-0.44,1.75c0,0.98,0.61,1.48,1.82,1.48c0.72,0,1.68-0.22,2.89-0.67
				c1.21-0.45,2.3-1.01,3.27-1.69l0.4,0.48c-1.16,0.95-2.64,1.78-4.43,2.51c-1.79,0.73-3.47,1.09-5.05,1.09
				c-2.24,0-3.91-0.74-5.03-2.22c-0.92,0.59-2.02,1.07-3.3,1.46c-1.28,0.38-2.54,0.58-3.78,0.58c-1.57,0-2.85-0.37-3.83-1.1
				c-0.98-0.74-1.47-1.91-1.47-3.52c0-0.87,0.18-1.89,0.53-3.06c0.35-1.17,0.84-2.33,1.48-3.49c0.63-1.16,1.35-2.2,2.16-3.12
				c0.59-0.69,1.38-1.37,2.38-2.04c1-0.67,2.08-1.22,3.24-1.65c1.16-0.43,2.26-0.64,3.3-0.64c1.55,0,2.79,0.52,3.72,1.57l7.2-1.32
				L227.82,381.72z M222.98,368.92c-1.55,0-3.08,1.7-4.61,5.1c-0.77,1.76-1.41,3.47-1.93,5.12c-0.52,1.65-0.78,2.84-0.78,3.57
				c0,1.43,0.58,2.15,1.73,2.15c0.88,0,2.07-0.43,3.57-1.29l-0.23-1c0-0.38,0.21-1.16,0.63-2.34l3.86-10.07
				C224.5,369.34,223.75,368.92,222.98,368.92z M220.67,389.21c0.41,0.5,0.62,1.1,0.62,1.8c0,0.68-0.21,1.27-0.64,1.77
				c-0.43,0.5-1.03,0.75-1.79,0.75c-0.72,0-1.28-0.24-1.7-0.73c-0.42-0.49-0.62-1.07-0.62-1.75c0-0.69,0.21-1.3,0.63-1.81
				c0.42-0.52,0.98-0.78,1.69-0.78C219.65,388.46,220.25,388.71,220.67,389.21z"/>
			<path class="st4" d="M254.66,383.07c-1.07,0.76-2.2,1.39-3.39,1.92c-1.18,0.53-2.4,0.91-3.65,1.16
				c-1.25,0.25-2.54,0.37-3.89,0.37c-2.23,0-4.2-0.33-5.92-0.98c-1.72-0.65-2.58-1.88-2.58-3.68c0-1.64,0.4-3.3,1.19-4.98
				c0.79-1.68,1.85-3.2,3.18-4.56c1.32-1.36,2.82-2.45,4.49-3.27c1.67-0.83,3.33-1.24,4.98-1.24c1.32,0,2.3,0.39,2.95,1.16
				c0.65,0.77,0.98,1.75,0.98,2.93c0,1.05-0.25,2.13-0.74,3.25c-0.49,1.12-1.15,2.04-1.99,2.75c-0.83,0.72-1.73,1.07-2.71,1.07
				c-0.59,0-1.06-0.19-1.42-0.56c-0.36-0.37-0.54-0.8-0.54-1.29c0-0.73,0.26-1.37,0.79-1.94c0.53-0.56,1.28-1.17,2.27-1.82
				c0.99-0.65,1.74-1.21,2.24-1.67c0.5-0.46,0.75-0.97,0.75-1.54c0-0.37-0.12-0.66-0.37-0.88c-0.25-0.22-0.57-0.33-0.95-0.33
				c-1.1,0-2.16,0.5-3.17,1.51c-1.02,1-1.89,2.25-2.63,3.73c-0.74,1.48-1.32,3.02-1.76,4.62s-0.65,2.89-0.65,3.9
				c0,0.91,0.27,1.61,0.82,2.11c0.54,0.5,1.3,0.75,2.27,0.75c0.92,0,1.82-0.1,2.7-0.31s1.78-0.5,2.71-0.89
				c0.93-0.39,2.16-0.99,3.69-1.79L254.66,383.07z"/>
			<path class="st4" d="M260.55,384.95l-0.12,0.36l0.12,0.27c0.03-0.05,0.07-0.12,0.13-0.19c0.06-0.08,0.15-0.14,0.25-0.19
				c0.03-0.06,0.23-0.47,0.6-1.23c0.38-0.75,0.71-1.46,1.01-2.11c0.83-1.65,1.65-3.17,2.47-4.57c0.81-1.39,1.8-2.81,2.97-4.25
				c1.17-1.44,2.44-2.62,3.81-3.55c1.37-0.93,2.76-1.39,4.16-1.39c1.14,0,1.97,0.26,2.49,0.79c0.52,0.52,0.78,1.23,0.78,2.11
				c0,0.81-0.19,1.7-0.56,2.69l-3.22,7.77c-0.32,1.19-0.48,1.99-0.48,2.4c0,0.97,0.53,1.46,1.57,1.46c0.59,0,1.17-0.09,1.76-0.27
				c0.58-0.18,1.09-0.38,1.54-0.61s1.06-0.58,1.84-1.05c0.79-0.47,1.22-0.74,1.31-0.79l0.4,0.63c-3.18,2.28-6.25,3.41-9.21,3.41
				c-1.69,0-3.06-0.36-4.12-1.08s-1.58-1.67-1.58-2.83c0-0.41,0.06-0.86,0.19-1.35c0.13-0.49,0.31-1.12,0.56-1.87l3.86-9.44
				c0.05-0.05,0.1-0.13,0.13-0.25c0.04-0.12,0.07-0.19,0.1-0.21l-0.23-0.17c-0.22,0-1.17,0.92-2.86,2.76
				c-2.55,3.03-5.35,7.25-8.42,12.65c-0.7,1.34-1.74,2.01-3.11,2.01c-0.68,0-1.32-0.17-1.94-0.51c-0.61-0.34-1.11-0.81-1.49-1.4
				c-0.38-0.59-0.57-1.26-0.57-1.99c0-0.61,0.15-1.23,0.46-1.84l9-24.56l7.54-1.46L260.55,384.95z"/>
		</g>
	</g>
</g>
</svg>
