<?xml version="1.0" encoding="utf-8"?>
<!-- Generator: Adobe Illustrator 23.0.0, SVG Export Plug-In . SVG Version: 6.00 Build 0)  -->
<svg version="1.1" id="Layer_1" xmlns="http://www.w3.org/2000/svg" xmlns:xlink="http://www.w3.org/1999/xlink" x="0px" y="0px"
	 viewBox="0 0 500 500" style="enable-background:new 0 0 500 500;" xml:space="preserve">
<style type="text/css">
	.st0{fill:#28582B;}
	.st1{fill:#EDCB48;}
	.st2{fill:#29582B;}
</style>
<g>
	<g>
		<g>
			<path class="st0" d="M92.58,413.12c1.15,0.97,2.25,1.91,3.29,2.79c1.04,0.89,1.97,1.76,2.79,2.63c0.82,0.86,1.48,1.72,1.99,2.56
				c0.51,0.84,0.76,1.71,0.76,2.59c0.04,1.33-0.24,2.63-0.86,3.89c-0.62,1.26-1.52,2.38-2.69,3.36c-1.17,0.97-2.63,1.75-4.35,2.33
				c-1.73,0.58-3.7,0.86-5.92,0.86c-2.7,0-5-0.37-6.88-1.1c-1.88-0.73-3.4-1.54-4.55-2.43c-1.37-1.02-2.5-2.19-3.39-3.52l7.11-5.58
				c0.22,2.3,0.8,4.23,1.73,5.78c0.93,1.55,2.03,2.77,3.29,3.66c1.26,0.89,2.59,1.46,3.99,1.73c1.4,0.27,2.69,0.26,3.89-0.03
				c1.2-0.29,2.18-0.83,2.96-1.63c0.77-0.8,1.18-1.79,1.23-2.99c0.04-1.06-0.33-2.21-1.13-3.46c-0.8-1.24-1.85-2.51-3.16-3.82
				c-1.31-1.31-2.76-2.6-4.35-3.89c-1.59-1.28-3.17-2.53-4.72-3.72c-1.2-0.89-2.32-1.77-3.36-2.66c-1.04-0.89-1.96-1.77-2.76-2.66
				c-0.8-0.89-1.43-1.76-1.89-2.63s-0.7-1.74-0.7-2.63c-0.04-1.33,0.18-2.63,0.66-3.89c0.49-1.26,1.25-2.38,2.29-3.36
				c1.04-0.97,2.37-1.76,3.99-2.36c1.62-0.6,3.53-0.9,5.75-0.9c2.26,0,4.19,0.29,5.78,0.86c1.6,0.58,2.84,1.36,3.72,2.36
				c0.89,1,1.42,2.17,1.6,3.52c0.18,1.35,0,2.8-0.53,4.35l-7.84,2.79c1.68-2.92,2.57-5.28,2.66-7.08c0.09-1.79-0.29-3.17-1.13-4.12
				c-0.84-0.95-2.01-1.52-3.49-1.7c-1.49-0.18-2.94-0.09-4.35,0.27c-1.42,0.36-2.66,0.92-3.72,1.7c-1.06,0.78-1.62,1.65-1.66,2.63
				c0,1.06,0.4,2.19,1.2,3.39c0.8,1.2,1.86,2.45,3.19,3.76s2.83,2.66,4.52,4.05C89.22,410.23,90.9,411.66,92.58,413.12z"/>
			<path class="st0" d="M103.09,434.12v-0.4c0.62-0.09,1.17-0.29,1.66-0.6c0.4-0.22,0.76-0.58,1.1-1.06c0.33-0.49,0.5-1.11,0.5-1.86
				v-34.16c0-0.8-0.17-1.43-0.5-1.89c-0.33-0.46-0.7-0.81-1.1-1.03c-0.49-0.31-1.04-0.51-1.66-0.6v-0.47h11.17v0.47
				c-0.62,0.09-1.15,0.29-1.6,0.6c-0.44,0.22-0.83,0.57-1.16,1.03c-0.33,0.47-0.5,1.1-0.5,1.89v34.16c0,0.75,0.17,1.37,0.5,1.86
				c0.33,0.49,0.72,0.84,1.16,1.06c0.44,0.31,0.97,0.51,1.6,0.6v0.4H103.09z"/>
			<path class="st0" d="M115.71,433.72c0.62-0.09,1.17-0.29,1.66-0.6c0.4-0.22,0.76-0.58,1.1-1.06c0.33-0.49,0.5-1.11,0.5-1.86
				v-34.16c0-0.8-0.17-1.43-0.5-1.89c-0.33-0.46-0.7-0.81-1.1-1.03c-0.49-0.31-1.04-0.51-1.66-0.6v-0.47h22.4l2.66,6.12h-2.53
				c-1.15-1.86-2.26-3.22-3.32-4.09s-2.33-1.3-3.79-1.3h-7.51v15.62h5.32c1.46,0,2.65-0.25,3.56-0.76c0.91-0.51,1.69-1.65,2.36-3.42
				h0.47v9.11h-0.47c-0.66-1.77-1.45-2.91-2.36-3.42c-0.91-0.51-2.09-0.76-3.56-0.76h-5.32v24.26h10.9c1.51,0,2.79-0.42,3.85-1.26
				s2.17-2.19,3.32-4.05h2.53l-2.72,6.05h-25.79V433.72z M131,380.69c0.53,0.89,1.15,1.83,1.86,2.83c0.71,1,1.47,1.91,2.29,2.72
				c0.82,0.82,1.67,1.46,2.56,1.93c0.89,0.46,1.77,0.61,2.66,0.43l0.2,0.6c-0.84,0.18-1.94,0.13-3.29-0.13
				c-1.35-0.27-2.71-0.64-4.09-1.13c-1.37-0.49-2.63-1.02-3.76-1.6c-1.13-0.58-1.94-1.08-2.43-1.53c-0.89,0.97-1.98,1.86-3.29,2.66
				c-1.31,0.8-2.78,1.37-4.42,1.73l-0.13-0.33c1.28-0.35,2.41-0.8,3.39-1.33c0.97-0.53,1.83-1.15,2.56-1.86
				c0.73-0.71,1.4-1.48,1.99-2.33s1.19-1.73,1.76-2.66H131z"/>
			<path class="st0" d="M148.88,396.04c0-0.8-0.17-1.43-0.5-1.89c-0.33-0.46-0.7-0.81-1.1-1.03c-0.49-0.31-1.04-0.51-1.66-0.6v-0.47
				h11.17v0.47c-0.62,0.09-1.15,0.29-1.6,0.6c-0.44,0.22-0.83,0.57-1.16,1.03c-0.33,0.47-0.5,1.1-0.5,1.89v22.33
				c0,2.26,0.3,4.32,0.9,6.18c0.6,1.86,1.44,3.45,2.53,4.75c1.09,1.31,2.37,2.32,3.85,3.02c1.48,0.71,3.11,1.06,4.88,1.06
				c1.6,0,3.13-0.32,4.62-0.96c1.48-0.64,2.78-1.59,3.89-2.86c1.11-1.26,1.99-2.83,2.66-4.72c0.66-1.88,1-4.04,1-6.48v-22.66
				c0-1.11-0.37-1.92-1.1-2.43c-0.73-0.51-1.58-0.76-2.56-0.76v-0.47h8.11v0.47c-0.98,0-1.84,0.25-2.59,0.76
				c-0.75,0.51-1.13,1.32-1.13,2.43v22.66c0,2.26-0.28,4.34-0.83,6.25c-0.55,1.91-1.41,3.57-2.56,4.98
				c-1.15,1.42-2.61,2.53-4.39,3.32c-1.77,0.8-3.88,1.2-6.31,1.2c-2.04,0-4-0.35-5.88-1.06c-1.88-0.71-3.55-1.71-4.98-2.99
				c-1.44-1.29-2.59-2.83-3.46-4.62c-0.86-1.79-1.3-3.78-1.3-5.95V396.04z"/>
			<path class="st0" d="M237.6,400.09h-3.46c-0.49-1.37-1.13-2.59-1.93-3.66c-0.66-0.93-1.55-1.77-2.66-2.53
				c-1.11-0.75-2.48-1.13-4.12-1.13h-5.98v37.42c0,0.75,0.17,1.37,0.5,1.86c0.33,0.49,0.72,0.84,1.16,1.06
				c0.44,0.31,0.97,0.51,1.6,0.6v0.4h-11.17v-0.4c0.58-0.09,1.11-0.29,1.6-0.6c0.4-0.22,0.76-0.58,1.1-1.06
				c0.33-0.49,0.5-1.11,0.5-1.86v-37.42h-5.98c-1.59,0-2.95,0.38-4.05,1.13c-1.11,0.75-2.02,1.59-2.72,2.53
				c-0.8,1.06-1.44,2.28-1.93,3.66h-3.46l1.99-8.04h37.02L237.6,400.09z"/>
			<path class="st0" d="M238.87,434.12v-0.4c0.62-0.09,1.17-0.29,1.66-0.6c0.4-0.22,0.76-0.58,1.1-1.06c0.33-0.49,0.5-1.11,0.5-1.86
				v-34.16c0-0.8-0.17-1.43-0.5-1.89c-0.33-0.46-0.7-0.81-1.1-1.03c-0.49-0.31-1.04-0.51-1.66-0.6v-0.47h11.17v0.47
				c-0.62,0.09-1.15,0.29-1.6,0.6c-0.44,0.22-0.83,0.57-1.16,1.03c-0.33,0.47-0.5,1.1-0.5,1.89v12.1h19.81v-12.1
				c0-0.8-0.17-1.43-0.5-1.89c-0.33-0.46-0.7-0.81-1.1-1.03c-0.49-0.31-1.04-0.51-1.66-0.6v-0.47h11.17v0.47
				c-0.62,0.09-1.15,0.29-1.59,0.6c-0.44,0.22-0.83,0.57-1.16,1.03c-0.33,0.47-0.5,1.1-0.5,1.89v34.16c0,0.75,0.17,1.37,0.5,1.86
				s0.72,0.84,1.16,1.06c0.44,0.31,0.97,0.51,1.59,0.6v0.4h-11.17v-0.4c0.62-0.09,1.17-0.29,1.66-0.6c0.4-0.22,0.76-0.58,1.1-1.06
				s0.5-1.11,0.5-1.86v-21.33h-19.81v21.33c0,0.75,0.17,1.37,0.5,1.86c0.33,0.49,0.72,0.84,1.16,1.06c0.44,0.31,0.97,0.51,1.6,0.6
				v0.4H238.87z"/>
			<path class="st0" d="M275.69,434.12v-0.4c0.62-0.09,1.17-0.29,1.66-0.6c0.4-0.22,0.76-0.58,1.1-1.06c0.33-0.49,0.5-1.11,0.5-1.86
				v-34.16c0-0.8-0.17-1.43-0.5-1.89c-0.33-0.46-0.7-0.81-1.1-1.03c-0.49-0.31-1.04-0.51-1.66-0.6v-0.47h11.17v0.47
				c-0.62,0.09-1.15,0.29-1.6,0.6c-0.44,0.22-0.83,0.57-1.16,1.03c-0.33,0.47-0.5,1.1-0.5,1.89v34.16c0,0.75,0.17,1.37,0.5,1.86
				c0.33,0.49,0.72,0.84,1.16,1.06c0.44,0.31,0.97,0.51,1.6,0.6v0.4H275.69z M279.28,437.71c0-0.58,0.19-1.07,0.57-1.5
				c0.38-0.42,0.85-0.63,1.43-0.63c0.58,0,1.05,0.21,1.43,0.63c0.38,0.42,0.57,0.92,0.57,1.5c0,0.58-0.19,1.05-0.57,1.43
				c-0.38,0.38-0.85,0.56-1.43,0.56c-0.58,0-1.05-0.19-1.43-0.56C279.46,438.76,279.28,438.29,279.28,437.71z"/>
			<path class="st0" d="M321.21,413.12c1.15,0.97,2.25,1.91,3.29,2.79c1.04,0.89,1.97,1.76,2.79,2.63c0.82,0.86,1.48,1.72,1.99,2.56
				c0.51,0.84,0.76,1.71,0.76,2.59c0.04,1.33-0.24,2.63-0.86,3.89c-0.62,1.26-1.52,2.38-2.69,3.36c-1.17,0.97-2.63,1.75-4.35,2.33
				c-1.73,0.58-3.7,0.86-5.92,0.86c-2.7,0-5-0.37-6.88-1.1c-1.88-0.73-3.4-1.54-4.55-2.43c-1.37-1.02-2.5-2.19-3.39-3.52l7.11-5.58
				c0.22,2.3,0.8,4.23,1.73,5.78c0.93,1.55,2.03,2.77,3.29,3.66c1.26,0.89,2.59,1.46,3.99,1.73s2.69,0.26,3.89-0.03
				c1.2-0.29,2.18-0.83,2.96-1.63c0.78-0.8,1.19-1.79,1.23-2.99c0.04-1.06-0.33-2.21-1.13-3.46c-0.8-1.24-1.85-2.51-3.16-3.82
				c-1.31-1.31-2.76-2.6-4.35-3.89c-1.6-1.28-3.17-2.53-4.72-3.72c-1.2-0.89-2.32-1.77-3.36-2.66c-1.04-0.89-1.96-1.77-2.76-2.66
				c-0.8-0.89-1.43-1.76-1.89-2.63c-0.46-0.86-0.7-1.74-0.7-2.63c-0.04-1.33,0.18-2.63,0.66-3.89s1.25-2.38,2.29-3.36
				c1.04-0.97,2.37-1.76,3.99-2.36c1.62-0.6,3.53-0.9,5.75-0.9c2.26,0,4.19,0.29,5.78,0.86c1.6,0.58,2.83,1.36,3.72,2.36
				s1.42,2.17,1.6,3.52c0.18,1.35,0,2.8-0.53,4.35l-7.84,2.79c1.68-2.92,2.57-5.28,2.66-7.08c0.09-1.79-0.29-3.17-1.13-4.12
				c-0.84-0.95-2.01-1.52-3.49-1.7c-1.49-0.18-2.94-0.09-4.35,0.27c-1.42,0.36-2.66,0.92-3.72,1.7c-1.06,0.78-1.62,1.65-1.66,2.63
				c0,1.06,0.4,2.19,1.2,3.39c0.8,1.2,1.86,2.45,3.19,3.76s2.83,2.66,4.52,4.05C317.85,410.23,319.53,411.66,321.21,413.12z"/>
			<path class="st0" d="M337.9,434.12h-8.11v-0.4c0.97,0,1.92-0.27,2.82-0.8c0.91-0.53,1.54-1.35,1.89-2.46l10.5-32.3l-1.99-6.12
				h4.92l12.43,38.15c0.27,0.75,0.64,1.37,1.13,1.86c0.49,0.49,0.97,0.84,1.46,1.06c0.53,0.31,1.13,0.51,1.79,0.6v0.4h-11.43v-0.4
				c0.58-0.09,1.06-0.29,1.46-0.6c0.35-0.22,0.62-0.58,0.8-1.06c0.18-0.49,0.13-1.11-0.13-1.86l-2.39-7.31h-15.29l-2.46,7.58
				c-0.36,1.11-0.24,1.93,0.33,2.46c0.58,0.53,1.33,0.8,2.26,0.8V434.12z M345.41,399.3l-7.44,22.86h14.82L345.41,399.3z"/>
			<path class="st0" d="M374.05,430.2c0,0.75,0.17,1.37,0.5,1.86c0.33,0.49,0.72,0.84,1.16,1.06c0.44,0.31,0.97,0.51,1.6,0.6v0.4
				h-11.17v-0.4c0.62-0.09,1.17-0.29,1.66-0.6c0.4-0.22,0.76-0.58,1.1-1.06c0.33-0.49,0.5-1.11,0.5-1.86v-34.16
				c0-0.8-0.17-1.43-0.5-1.89c-0.33-0.46-0.7-0.81-1.1-1.03c-0.49-0.31-1.04-0.51-1.66-0.6v-0.47h16.55c1.68,0,3.37,0.24,5.05,0.73
				c1.68,0.49,3.2,1.23,4.55,2.23s2.45,2.26,3.29,3.79c0.84,1.53,1.26,3.33,1.26,5.42c0,1.37-0.38,2.69-1.13,3.96
				c-0.75,1.26-1.75,2.44-2.99,3.52s-2.67,2.07-4.29,2.96c-1.62,0.89-3.27,1.66-4.95,2.33c-1.68,0.67-3.35,1.19-4.98,1.56
				c-1.64,0.38-3.12,0.61-4.45,0.7V430.2z M374.05,418.5c2.48-0.27,4.81-0.78,6.98-1.53c2.17-0.75,4.09-1.73,5.75-2.92
				c1.66-1.2,2.97-2.63,3.92-4.29c0.95-1.66,1.43-3.51,1.43-5.55c0-1.68-0.3-3.22-0.9-4.62c-0.6-1.4-1.43-2.59-2.49-3.59
				s-2.33-1.78-3.79-2.36c-1.46-0.58-3.06-0.86-4.79-0.86h-6.11V418.5z"/>
			<path class="st0" d="M398.98,434.12h-8.11v-0.4c0.97,0,1.92-0.27,2.82-0.8c0.91-0.53,1.54-1.35,1.89-2.46l10.5-32.3l-1.99-6.12
				h4.92l12.43,38.15c0.27,0.75,0.64,1.37,1.13,1.86c0.49,0.49,0.97,0.84,1.46,1.06c0.53,0.31,1.13,0.51,1.79,0.6v0.4H414.4v-0.4
				c0.58-0.09,1.06-0.29,1.46-0.6c0.35-0.22,0.62-0.58,0.8-1.06c0.18-0.49,0.13-1.11-0.13-1.86l-2.39-7.31h-15.29l-2.46,7.58
				c-0.36,1.11-0.24,1.93,0.33,2.46c0.58,0.53,1.33,0.8,2.26,0.8V434.12z M406.49,399.3l-7.44,22.86h14.82L406.49,399.3z"/>
		</g>
	</g>
	<g>
		<g>
			<path class="st0" d="M127.2,457.96c-0.15,0-0.23-0.01-0.23-0.05c0-0.66-0.08-1.28-0.25-1.84c-0.17-0.57-0.43-1.06-0.77-1.48
				s-0.79-0.74-1.34-0.97c-0.55-0.23-1.2-0.35-1.95-0.35h-0.09c-0.09,0-0.14,0.03-0.14,0.09v15.05c0,0.06,0.05,0.09,0.14,0.09h1.82
				c0.02,0,0.02,0.03,0.02,0.09s0,0.13,0,0.2c0,0.07,0,0.13,0,0.18c0,0.05-0.01,0.08-0.02,0.08h-6.41c-0.02,0-0.03-0.03-0.03-0.08
				c-0.01-0.05-0.01-0.12-0.01-0.18c0-0.07,0-0.13,0.01-0.2s0.02-0.09,0.03-0.09h1.82c0.08,0,0.12-0.03,0.12-0.09v-15.05
				c0-0.06-0.04-0.09-0.12-0.09h-0.09c-0.77,0-1.41,0.12-1.94,0.35s-0.95,0.55-1.29,0.97c-0.34,0.42-0.58,0.91-0.73,1.48
				c-0.15,0.57-0.22,1.18-0.22,1.84c0,0.03-0.08,0.05-0.24,0.05c-0.16,0-0.24-0.01-0.24-0.05v-5.12c0-0.05,0.02-0.07,0.07-0.07
				h12.27c0.03,0,0.05,0.02,0.05,0.07v5.12C127.43,457.94,127.36,457.96,127.2,457.96z"/>
			<path class="st0" d="M129.21,469.07c-0.02-0.11-0.02-0.2-0.02-0.26c0-0.07,0.01-0.17,0.02-0.29h1.82c0.09,0,0.14-0.03,0.14-0.09
				v-15.05c0-0.06-0.05-0.09-0.14-0.09h-1.82c-0.02-0.11-0.02-0.2-0.02-0.27s0.01-0.17,0.02-0.29h6.46c0.01,0,0.02,0.03,0.02,0.09
				c0,0.06,0,0.13,0,0.2s0,0.13,0,0.18s-0.01,0.08-0.02,0.08h-1.87c-0.08,0-0.12,0.03-0.12,0.09v15.05c0,0.06,0.04,0.09,0.12,0.09
				h1.87c0.01,0,0.02,0.03,0.02,0.09s0,0.13,0,0.2c0,0.07,0,0.13,0,0.18c0,0.05-0.01,0.08-0.02,0.08H129.21z"/>
			<path class="st0" d="M150.16,453.28c-0.08,0-0.12,0.03-0.12,0.09v16c0,0.03-0.08,0.05-0.24,0.06c-0.16,0.01-0.26-0.01-0.29-0.06
				l-9.31-15.75v14.8c0,0.06,0.03,0.09,0.09,0.09h1.87c0.02,0.12,0.02,0.22,0.02,0.29c0,0.07-0.01,0.16-0.02,0.26h-4.43
				c-0.02,0-0.03-0.03-0.03-0.08c-0.01-0.05-0.01-0.12-0.01-0.18c0-0.07,0-0.13,0.01-0.2s0.02-0.09,0.03-0.09h1.82
				c0.08,0,0.12-0.03,0.12-0.09v-15.05c0-0.06-0.04-0.09-0.12-0.09h-1.82c-0.02,0-0.03-0.03-0.03-0.08s-0.01-0.12-0.01-0.18
				s0-0.13,0.01-0.2c0.01-0.06,0.02-0.09,0.03-0.09h4.61c0.08,0,0.15,0.03,0.21,0.08s0.15,0.17,0.28,0.33l6.71,11.39v-11.16
				c0-0.06-0.05-0.09-0.14-0.09h-1.82c-0.03,0-0.05-0.03-0.06-0.08s-0.01-0.12-0.01-0.18s0-0.13,0.01-0.2
				c0.01-0.06,0.03-0.09,0.06-0.09h4.43c0.02,0.12,0.02,0.22,0.02,0.29s-0.01,0.16-0.02,0.27H150.16z"/>
			<path class="st0" d="M162.08,469.07c-0.02,0-0.03-0.03-0.03-0.08c-0.01-0.05-0.01-0.12-0.01-0.18c0-0.07,0-0.13,0.01-0.2
				c0.01-0.06,0.02-0.09,0.03-0.09h1.64c0.08,0,0.12-0.03,0.12-0.09v-7.58h-5.67v7.58c0,0.06,0.05,0.09,0.16,0.09h1.61
				c0.02,0,0.02,0.03,0.02,0.09s0,0.13,0,0.2c0,0.07,0,0.13,0,0.18c0,0.05-0.01,0.08-0.02,0.08h-6.25c-0.02-0.11-0.02-0.2-0.02-0.26
				c0-0.07,0.01-0.17,0.02-0.29h1.84c0.08,0,0.12-0.03,0.12-0.09v-15.05c0-0.06-0.04-0.09-0.12-0.09h-1.84
				c-0.02-0.11-0.02-0.2-0.02-0.27s0.01-0.17,0.02-0.29h6.25c0.02,0,0.02,0.03,0.02,0.09c0,0.06,0,0.13,0,0.2s0,0.13,0,0.18
				s-0.01,0.08-0.02,0.08h-1.61c-0.11,0-0.16,0.03-0.16,0.09v6.92h5.67v-6.92c0-0.06-0.04-0.09-0.12-0.09h-1.64
				c-0.02,0-0.03-0.03-0.03-0.08c-0.01-0.05-0.01-0.12-0.01-0.18s0-0.13,0.01-0.2c0.01-0.06,0.02-0.09,0.03-0.09h6.25
				c0.02,0,0.02,0.03,0.02,0.09c0,0.06,0,0.13,0,0.2s0,0.13,0,0.18s-0.01,0.08-0.02,0.08h-1.82c-0.08,0-0.12,0.03-0.12,0.09v15.05
				c0,0.06,0.04,0.09,0.12,0.09h1.82c0.02,0,0.02,0.03,0.02,0.09s0,0.13,0,0.2c0,0.07,0,0.13,0,0.18c0,0.05-0.01,0.08-0.02,0.08
				H162.08z"/>
			<path class="st0" d="M183.06,469.07c-0.02,0-0.03-0.03-0.03-0.08c-0.01-0.05-0.01-0.12-0.01-0.18c0-0.07,0-0.13,0.01-0.2
				c0.01-0.06,0.02-0.09,0.03-0.09h1.64c0.08,0,0.12-0.03,0.12-0.09v-7.58h-5.67v7.58c0,0.06,0.05,0.09,0.16,0.09h1.61
				c0.02,0,0.02,0.03,0.02,0.09s0,0.13,0,0.2c0,0.07,0,0.13,0,0.18c0,0.05-0.01,0.08-0.02,0.08h-6.25c-0.02-0.11-0.02-0.2-0.02-0.26
				c0-0.07,0.01-0.17,0.02-0.29h1.84c0.08,0,0.12-0.03,0.12-0.09v-15.05c0-0.06-0.04-0.09-0.12-0.09h-1.84
				c-0.02-0.11-0.02-0.2-0.02-0.27s0.01-0.17,0.02-0.29h6.25c0.02,0,0.02,0.03,0.02,0.09c0,0.06,0,0.13,0,0.2s0,0.13,0,0.18
				s-0.01,0.08-0.02,0.08h-1.61c-0.11,0-0.16,0.03-0.16,0.09v6.92h5.67v-6.92c0-0.06-0.04-0.09-0.12-0.09h-1.64
				c-0.02,0-0.03-0.03-0.03-0.08c-0.01-0.05-0.01-0.12-0.01-0.18s0-0.13,0.01-0.2c0.01-0.06,0.02-0.09,0.03-0.09h6.25
				c0.02,0,0.02,0.03,0.02,0.09c0,0.06,0,0.13,0,0.2s0,0.13,0,0.18s-0.01,0.08-0.02,0.08h-1.82c-0.08,0-0.12,0.03-0.12,0.09v15.05
				c0,0.06,0.04,0.09,0.12,0.09h1.82c0.02,0,0.02,0.03,0.02,0.09s0,0.13,0,0.2c0,0.07,0,0.13,0,0.18c0,0.05-0.01,0.08-0.02,0.08
				H183.06z"/>
			<path class="st0" d="M205.29,460.91c0,1.18-0.18,2.29-0.53,3.33c-0.35,1.04-0.84,1.94-1.45,2.72c-0.62,0.78-1.33,1.39-2.16,1.83
				c-0.82,0.45-1.7,0.67-2.64,0.67c-0.94,0-1.82-0.22-2.64-0.67c-0.82-0.45-1.54-1.06-2.16-1.83c-0.61-0.78-1.1-1.68-1.45-2.72
				c-0.35-1.04-0.53-2.15-0.53-3.33c0-1.15,0.17-2.25,0.51-3.29c0.34-1.04,0.81-1.95,1.41-2.73c0.6-0.78,1.31-1.41,2.14-1.87
				s1.74-0.69,2.72-0.69c0.94,0,1.82,0.22,2.64,0.67c0.82,0.45,1.54,1.06,2.16,1.83c0.61,0.78,1.1,1.69,1.45,2.73
				S205.29,459.73,205.29,460.91z M202.59,460.89c0-1.94-0.13-3.48-0.4-4.65c-0.27-1.16-0.66-2.01-1.16-2.55
				c-0.35-0.31-0.74-0.52-1.15-0.65c-0.41-0.12-0.87-0.18-1.36-0.18c-0.51,0-0.96,0.06-1.37,0.18s-0.78,0.34-1.12,0.65
				c-0.51,0.54-0.9,1.39-1.16,2.55c-0.27,1.16-0.4,2.71-0.4,4.65c0,1.11,0.03,2.05,0.1,2.84c0.07,0.78,0.17,1.45,0.3,2.01
				c0.13,0.55,0.29,1.01,0.48,1.38c0.19,0.37,0.42,0.68,0.68,0.95c0.34,0.34,0.71,0.57,1.12,0.68s0.86,0.17,1.37,0.17
				c0.49,0,0.95-0.06,1.36-0.17c0.42-0.12,0.8-0.34,1.15-0.68c0.25-0.26,0.47-0.58,0.67-0.95c0.2-0.37,0.37-0.83,0.5-1.38
				c0.13-0.55,0.23-1.22,0.3-2.01C202.56,462.94,202.59,461.99,202.59,460.89z"/>
			<path class="st0" d="M214.49,469.07c-0.02,0-0.03-0.03-0.03-0.08c-0.01-0.05-0.01-0.12-0.01-0.18c0-0.07,0-0.13,0.01-0.2
				s0.02-0.09,0.03-0.09h1.82c0.11,0,0.14-0.02,0.09-0.07l-1.5-4.59h-5.03l-1.22,3.69c-0.12,0.42-0.19,0.68-0.21,0.79
				s0,0.17,0.05,0.17h1.75c0.02,0,0.03,0.03,0.03,0.09c0.01,0.06,0.01,0.13,0.01,0.2c0,0.07,0,0.13-0.01,0.18
				c-0.01,0.05-0.02,0.08-0.03,0.08h-4.27c-0.02-0.11-0.02-0.2-0.02-0.26c0-0.07,0.01-0.17,0.02-0.29h1.68
				c0.09,0,0.17-0.05,0.22-0.15c0.05-0.1,0.15-0.37,0.29-0.82l4.96-15.15c0.02-0.03,0.1-0.05,0.25-0.05s0.24,0.02,0.25,0.05
				l5.46,16.05c0,0.05,0.05,0.07,0.16,0.07h1.89c0.02,0,0.02,0.03,0.02,0.09s0,0.13,0,0.2c0,0.07,0,0.13,0,0.18
				c0,0.05-0.01,0.08-0.02,0.08H214.49z M212.43,456l-2.38,7.31h4.7L212.43,456z"/>
			<path class="st0" d="M238.39,453.28c-0.08,0-0.12,0.03-0.12,0.09v16c0,0.03-0.08,0.05-0.24,0.06c-0.16,0.01-0.26-0.01-0.29-0.06
				l-9.31-15.75v14.8c0,0.06,0.03,0.09,0.09,0.09h1.87c0.02,0.12,0.02,0.22,0.02,0.29c0,0.07-0.01,0.16-0.02,0.26h-4.43
				c-0.02,0-0.03-0.03-0.03-0.08c-0.01-0.05-0.01-0.12-0.01-0.18c0-0.07,0-0.13,0.01-0.2s0.02-0.09,0.03-0.09h1.82
				c0.08,0,0.12-0.03,0.12-0.09v-15.05c0-0.06-0.04-0.09-0.12-0.09h-1.82c-0.02,0-0.03-0.03-0.03-0.08s-0.01-0.12-0.01-0.18
				s0-0.13,0.01-0.2c0.01-0.06,0.02-0.09,0.03-0.09h4.61c0.08,0,0.15,0.03,0.21,0.08s0.15,0.17,0.28,0.33l6.71,11.39v-11.16
				c0-0.06-0.05-0.09-0.14-0.09h-1.82c-0.03,0-0.05-0.03-0.06-0.08s-0.01-0.12-0.01-0.18s0-0.13,0.01-0.2
				c0.01-0.06,0.03-0.09,0.06-0.09h4.43c0.02,0.12,0.02,0.22,0.02,0.29s-0.01,0.16-0.02,0.27H238.39z"/>
			<path class="st0" d="M253.95,453.28c-0.06,0-0.09,0.03-0.09,0.09v10.86c0,0.8-0.1,1.52-0.29,2.17c-0.19,0.65-0.49,1.2-0.91,1.65
				c-0.41,0.45-0.94,0.8-1.57,1.05c-0.63,0.25-1.38,0.37-2.26,0.37c-0.78,0-1.5-0.1-2.16-0.31c-0.65-0.21-1.21-0.52-1.68-0.95
				s-0.84-0.95-1.11-1.59c-0.27-0.64-0.4-1.39-0.4-2.25v-11c0-0.06-0.04-0.09-0.12-0.09h-1.84c-0.02,0-0.03-0.03-0.03-0.08
				c-0.01-0.05-0.01-0.12-0.01-0.18s0-0.13,0.01-0.2c0.01-0.06,0.02-0.09,0.03-0.09h6.43c0.02,0,0.02,0.03,0.02,0.09
				c0,0.06,0,0.13,0,0.2s0,0.13,0,0.18s-0.01,0.08-0.02,0.08h-1.82c-0.11,0-0.16,0.03-0.16,0.09v11c0,1.55,0.29,2.67,0.86,3.34
				c0.58,0.68,1.42,1.01,2.52,1.01c0.69,0,1.29-0.11,1.79-0.33c0.5-0.22,0.91-0.53,1.23-0.92c0.32-0.39,0.56-0.86,0.71-1.42
				c0.15-0.55,0.23-1.16,0.23-1.82v-10.86c0-0.06-0.04-0.09-0.12-0.09h-1.57c-0.02,0-0.03-0.03-0.04-0.08s-0.01-0.12-0.01-0.18
				s0-0.13,0.01-0.2c0.01-0.06,0.02-0.09,0.04-0.09h4.17c0.02,0,0.02,0.03,0.02,0.09c0,0.06,0,0.13,0,0.2s0,0.13,0,0.18
				s-0.01,0.08-0.02,0.08H253.95z M249.99,448.62h1.52v0.3l-2.95,2.77c0,0.02-0.02,0-0.05-0.04c-0.03-0.04-0.06-0.08-0.08-0.14
				c-0.02-0.05-0.05-0.1-0.07-0.15s-0.03-0.07-0.01-0.07L249.99,448.62z"/>
			<path class="st0" d="M257.41,469.07c-0.02-0.11-0.02-0.2-0.02-0.26c0-0.07,0.01-0.17,0.02-0.29h1.82c0.09,0,0.14-0.03,0.14-0.09
				v-15.05c0-0.06-0.05-0.09-0.14-0.09h-1.82c-0.02-0.11-0.02-0.2-0.02-0.27s0.01-0.17,0.02-0.29h6.46c0.01,0,0.02,0.03,0.02,0.09
				c0,0.06,0,0.13,0,0.2s0,0.13,0,0.18s-0.01,0.08-0.02,0.08H262c-0.08,0-0.12,0.03-0.12,0.09v15.05c0,0.06,0.04,0.09,0.12,0.09
				h1.87c0.01,0,0.02,0.03,0.02,0.09s0,0.13,0,0.2c0,0.07,0,0.13,0,0.18c0,0.05-0.01,0.08-0.02,0.08H257.41z"/>
			<path class="st0" d="M284.8,468.66c-0.22,0.23-0.48,0.42-0.78,0.58s-0.68,0.23-1.13,0.23c-0.45,0-0.86-0.08-1.26-0.23
				s-0.74-0.41-1.04-0.76c-0.3-0.35-0.54-0.81-0.71-1.38c-0.18-0.57-0.27-1.27-0.27-2.1v-1.5c0-0.51-0.08-0.93-0.23-1.27
				c-0.15-0.34-0.37-0.61-0.66-0.82c-0.28-0.21-0.62-0.35-1.01-0.44c-0.39-0.08-0.83-0.13-1.3-0.13h-1.75v7.58
				c0,0.06,0.05,0.09,0.16,0.09h2.1v0.55h-6.73c-0.02,0-0.03-0.03-0.04-0.08c-0.01-0.05-0.01-0.12-0.01-0.18c0-0.07,0-0.13,0.01-0.2
				s0.02-0.09,0.04-0.09h1.84c0.08,0,0.12-0.03,0.12-0.09v-15.05c0-0.06-0.04-0.09-0.12-0.09h-1.84c-0.02,0-0.03-0.03-0.04-0.08
				s-0.01-0.12-0.01-0.18s0-0.13,0.01-0.2c0.01-0.06,0.02-0.09,0.04-0.09h6.39c0.78,0,1.48,0.1,2.1,0.31
				c0.62,0.21,1.14,0.49,1.57,0.85c0.43,0.36,0.76,0.78,0.99,1.27c0.23,0.48,0.35,1.01,0.35,1.58c0,0.54-0.12,1.04-0.35,1.5
				s-0.53,0.87-0.91,1.21s-0.81,0.62-1.29,0.82s-0.98,0.3-1.49,0.3c0.77,0,1.44,0.11,2.02,0.33s1.06,0.53,1.45,0.93
				c0.39,0.4,0.69,0.87,0.89,1.42c0.2,0.55,0.3,1.14,0.3,1.79v2.07c0,0.58,0.11,0.99,0.33,1.22c0.22,0.23,0.53,0.35,0.93,0.35
				c0.26,0,0.46-0.03,0.6-0.08c0.14-0.05,0.29-0.17,0.44-0.33c0.08,0.08,0.13,0.14,0.17,0.18c0.04,0.05,0.07,0.09,0.1,0.14
				C284.81,468.63,284.82,468.66,284.8,468.66z M279.04,456.83c0-0.72-0.07-1.31-0.2-1.78c-0.13-0.46-0.32-0.82-0.56-1.08
				c-0.25-0.26-0.55-0.44-0.92-0.54c-0.37-0.1-0.79-0.15-1.27-0.15h-1.27c-0.11,0-0.16,0.03-0.16,0.09v6.92h1.75
				c0.51,0,0.93-0.04,1.27-0.13c0.34-0.08,0.61-0.25,0.81-0.51c0.2-0.25,0.34-0.6,0.43-1.05
				C278.99,458.16,279.04,457.57,279.04,456.83z"/>
			<path class="st0" d="M298.82,451.8c-0.03,0.2-0.09,0.4-0.18,0.6c-0.09,0.2-0.21,0.38-0.36,0.55c-0.15,0.17-0.33,0.3-0.55,0.4
				c-0.22,0.1-0.48,0.14-0.77,0.13v10.74c0,0.8-0.1,1.52-0.29,2.17c-0.19,0.65-0.5,1.2-0.91,1.65c-0.42,0.45-0.94,0.8-1.57,1.05
				c-0.63,0.25-1.38,0.37-2.26,0.37c-0.78,0-1.5-0.1-2.16-0.31c-0.65-0.21-1.21-0.52-1.68-0.95s-0.84-0.95-1.11-1.59
				c-0.27-0.64-0.4-1.39-0.4-2.25v-11c0-0.06-0.04-0.09-0.12-0.09h-1.84c-0.02,0-0.03-0.03-0.03-0.08s-0.01-0.12-0.01-0.18
				s0-0.13,0.01-0.2c0.01-0.06,0.02-0.09,0.03-0.09h6.43c0.01,0,0.02,0.03,0.02,0.09c0,0.06,0,0.13,0,0.2s0,0.13,0,0.18
				s-0.01,0.08-0.02,0.08h-1.82c-0.11,0-0.16,0.03-0.16,0.09v11c0,1.55,0.29,2.67,0.86,3.34c0.58,0.68,1.42,1.01,2.52,1.01
				c0.69,0,1.29-0.11,1.79-0.33c0.5-0.22,0.91-0.53,1.23-0.92c0.32-0.39,0.56-0.86,0.71-1.42c0.15-0.55,0.23-1.16,0.23-1.82v-10.86
				c0-0.06-0.04-0.09-0.12-0.09h-1.57c-0.02,0-0.03-0.03-0.03-0.08c-0.01-0.05-0.01-0.12-0.01-0.18s0-0.13,0.01-0.2
				c0.01-0.06,0.02-0.09,0.03-0.09h2.21v0.23c0.18,0,0.34-0.03,0.47-0.09s0.22-0.13,0.27-0.22c0.05-0.08,0.05-0.18,0-0.28
				c-0.05-0.1-0.16-0.2-0.35-0.29c-0.14-0.08-0.25-0.2-0.33-0.37c-0.08-0.17-0.11-0.34-0.08-0.51c0.06-0.23,0.19-0.42,0.38-0.56
				c0.19-0.15,0.44-0.19,0.75-0.13c0.31,0.05,0.53,0.19,0.66,0.43C298.84,451.18,298.88,451.47,298.82,451.8z M293.24,451.3
				c0.01,0,0.01,0.02-0.01,0.07c-0.02,0.05-0.05,0.1-0.07,0.15s-0.05,0.1-0.08,0.14c-0.03,0.04-0.05,0.05-0.05,0.04l-2.95-2.77v-0.3
				h1.52L293.24,451.3z"/>
			<path class="st0" d="M312.83,453.28c-0.08,0-0.12,0.03-0.12,0.09v16c0,0.03-0.08,0.05-0.24,0.06s-0.26-0.01-0.29-0.06
				l-9.31-15.75v14.8c0,0.06,0.03,0.09,0.09,0.09h1.87c0.01,0.12,0.02,0.22,0.02,0.29c0,0.07-0.01,0.16-0.02,0.26h-4.43
				c-0.02,0-0.03-0.03-0.03-0.08c-0.01-0.05-0.01-0.12-0.01-0.18c0-0.07,0-0.13,0.01-0.2c0.01-0.06,0.02-0.09,0.03-0.09h1.82
				c0.08,0,0.12-0.03,0.12-0.09v-15.05c0-0.06-0.04-0.09-0.12-0.09h-1.82c-0.02,0-0.03-0.03-0.03-0.08
				c-0.01-0.05-0.01-0.12-0.01-0.18s0-0.13,0.01-0.2c0.01-0.06,0.02-0.09,0.03-0.09h4.61c0.08,0,0.15,0.03,0.21,0.08
				s0.15,0.17,0.28,0.33l6.71,11.39v-11.16c0-0.06-0.05-0.09-0.14-0.09h-1.82c-0.03,0-0.05-0.03-0.06-0.08
				c-0.01-0.05-0.01-0.12-0.01-0.18s0-0.13,0.01-0.2c0.01-0.06,0.03-0.09,0.06-0.09h4.43c0.02,0.12,0.02,0.22,0.02,0.29
				s-0.01,0.16-0.02,0.27H312.83z"/>
			<path class="st0" d="M328.49,462.87c-0.08,0-0.12,0.02-0.12,0.07v6.21c0,0.02-0.03,0.02-0.09,0.02s-0.13,0-0.2,0
				s-0.13,0-0.18-0.01c-0.05-0.01-0.08-0.02-0.08-0.04c0.01-0.28-0.01-0.51-0.08-0.68s-0.24-0.25-0.52-0.25
				c-0.25,0-0.49,0.07-0.73,0.2c-0.24,0.13-0.51,0.27-0.82,0.43c-0.31,0.16-0.67,0.3-1.08,0.44c-0.42,0.14-0.92,0.2-1.5,0.2
				c-1.01,0-1.92-0.24-2.73-0.73c-0.81-0.48-1.49-1.12-2.04-1.91c-0.55-0.79-0.98-1.7-1.28-2.73c-0.3-1.03-0.45-2.1-0.45-3.21
				c0-1.15,0.17-2.25,0.51-3.29s0.81-1.95,1.41-2.73c0.6-0.78,1.31-1.41,2.14-1.87c0.83-0.46,1.74-0.69,2.72-0.69
				c0.32,0,0.61,0.03,0.85,0.09c0.25,0.06,0.46,0.13,0.65,0.22c0.18,0.08,0.35,0.16,0.51,0.22s0.32,0.09,0.48,0.09
				c0.29,0,0.53-0.06,0.71-0.18s0.29-0.25,0.32-0.37c0-0.03,0.08-0.05,0.23-0.05c0.15,0,0.23,0.02,0.23,0.05v4.96
				c0,0.03-0.08,0.05-0.23,0.05c-0.15,0-0.23-0.02-0.23-0.05c0-0.57-0.08-1.12-0.24-1.66c-0.16-0.54-0.4-1.01-0.7-1.43
				s-0.68-0.75-1.12-1c-0.44-0.25-0.93-0.38-1.46-0.38c-0.46,0-0.9,0.06-1.33,0.18s-0.8,0.34-1.14,0.65
				c-0.54,0.54-0.94,1.39-1.2,2.55c-0.26,1.16-0.39,2.71-0.39,4.65c0,1.03,0.02,1.93,0.05,2.71c0.03,0.78,0.09,1.45,0.18,2.03
				c0.09,0.58,0.22,1.06,0.39,1.45c0.17,0.39,0.39,0.72,0.67,0.98c0.31,0.34,0.68,0.57,1.12,0.68c0.44,0.12,0.9,0.17,1.37,0.17
				c0.95,0,1.65-0.19,2.1-0.58c0.45-0.38,0.67-0.89,0.67-1.52v-3.87c0-0.05-0.05-0.07-0.16-0.07h-1.82c-0.02,0-0.03-0.03-0.04-0.08
				s-0.01-0.12-0.01-0.18s0-0.13,0.01-0.2c0.01-0.06,0.02-0.09,0.04-0.09h6.46c0.01,0,0.02,0.03,0.02,0.09c0,0.06,0,0.13,0,0.2
				s0,0.13,0,0.18s-0.01,0.08-0.02,0.08H328.49z"/>
			<path class="st0" d="M348.06,453.28c-0.09,0-0.16,0.05-0.21,0.16c-0.05,0.11-0.15,0.38-0.3,0.81l-4.77,15.17
				c0,0.03-0.08,0.05-0.24,0.05s-0.25-0.02-0.26-0.05l-6.25-16.05c-0.02-0.06-0.08-0.09-0.18-0.09h-2.01
				c-0.01,0-0.03-0.03-0.03-0.08s-0.01-0.12-0.01-0.18s0-0.13,0.01-0.2c0.01-0.06,0.02-0.09,0.03-0.09h7.03
				c0.02,0,0.02,0.03,0.02,0.09c0,0.06,0,0.13,0,0.2s0,0.13,0,0.18s-0.01,0.08-0.02,0.08h-2.03c-0.09,0-0.13,0.03-0.12,0.09
				l4.7,12.4l3.62-11.53c0.15-0.45,0.23-0.72,0.24-0.82c0.01-0.1-0.03-0.15-0.1-0.15h-1.82v-0.55h4.5c0.02,0,0.02,0.03,0.02,0.09
				c0,0.06,0,0.13,0,0.2s0,0.13,0,0.18s-0.01,0.08-0.02,0.08H348.06z"/>
			<path class="st0" d="M350.53,469.07c-0.02-0.11-0.02-0.2-0.02-0.26c0-0.07,0.01-0.17,0.02-0.29h1.82c0.09,0,0.14-0.03,0.14-0.09
				v-15.05c0-0.06-0.05-0.09-0.14-0.09h-1.82c-0.02-0.11-0.02-0.2-0.02-0.27s0.01-0.17,0.02-0.29h6.46c0.01,0,0.02,0.03,0.02,0.09
				c0,0.06,0,0.13,0,0.2s0,0.13,0,0.18s-0.01,0.08-0.02,0.08h-1.87c-0.08,0-0.12,0.03-0.12,0.09v15.05c0,0.06,0.04,0.09,0.12,0.09
				h1.87c0.01,0,0.02,0.03,0.02,0.09s0,0.13,0,0.2c0,0.07,0,0.13,0,0.18c0,0.05-0.01,0.08-0.02,0.08H350.53z"/>
			<path class="st0" d="M371.07,469c0,0.05-0.02,0.07-0.07,0.07h-11.85c-0.02-0.11-0.02-0.2-0.02-0.26c0-0.07,0.01-0.17,0.02-0.29
				h1.82c0.09,0,0.14-0.03,0.14-0.09v-15.05c0-0.06-0.05-0.09-0.14-0.09h-1.82c-0.02-0.11-0.02-0.2-0.02-0.27s0.01-0.17,0.02-0.29
				h10.81c0.03,0,0.05,0.02,0.05,0.07v4.43c0,0.01-0.03,0.03-0.08,0.03s-0.11,0.01-0.17,0.01s-0.12,0-0.17-0.01
				s-0.08-0.02-0.08-0.03c0-0.54-0.07-1.05-0.2-1.52c-0.13-0.48-0.34-0.89-0.63-1.26c-0.29-0.36-0.67-0.65-1.13-0.85
				c-0.46-0.21-1.02-0.31-1.68-0.31h-2.07c-0.12,0-0.18,0.03-0.18,0.09v7.03h0.58c0.84,0,1.5-0.24,1.95-0.71s0.68-1.11,0.68-1.91
				c0-0.03,0.08-0.05,0.23-0.05c0.15,0,0.23,0.02,0.23,0.05v5.81c0,0.03-0.08,0.05-0.23,0.05c-0.15,0-0.23-0.02-0.23-0.05
				c0-0.78-0.23-1.42-0.68-1.9c-0.45-0.48-1.1-0.73-1.95-0.73h-0.58v7.47c0,0.06,0.06,0.09,0.18,0.09h2.14
				c0.86,0,1.59-0.12,2.18-0.36c0.59-0.24,1.07-0.56,1.44-0.96c0.37-0.4,0.63-0.87,0.79-1.4c0.16-0.53,0.24-1.09,0.24-1.69
				c0-0.03,0.08-0.05,0.24-0.05s0.24,0.02,0.24,0.05V469z M368.07,451.43c0.03,0,0.02,0.06-0.02,0.17s-0.08,0.16-0.09,0.13
				l-2.51-1.59l-2.26,1.59c0,0.02-0.02,0.01-0.05-0.02c-0.03-0.03-0.06-0.06-0.09-0.1c-0.03-0.04-0.06-0.1-0.09-0.17
				c0.28-0.34,0.53-0.63,0.75-0.89s0.43-0.48,0.61-0.69c0.18-0.21,0.35-0.41,0.51-0.6s0.3-0.4,0.44-0.61
				c0.03-0.03,0.12-0.05,0.26-0.05s0.23,0.02,0.24,0.05c0.15,0.22,0.31,0.42,0.46,0.61s0.32,0.39,0.5,0.6
				c0.18,0.21,0.38,0.44,0.6,0.69C367.55,450.8,367.79,451.1,368.07,451.43z M366.64,471.68c0,0.31-0.11,0.56-0.33,0.77
				c-0.22,0.21-0.49,0.31-0.8,0.31s-0.57-0.1-0.78-0.31c-0.22-0.21-0.32-0.47-0.32-0.77c0-0.31,0.11-0.57,0.32-0.78
				c0.21-0.22,0.48-0.32,0.78-0.32s0.57,0.11,0.8,0.32C366.53,471.11,366.64,471.37,366.64,471.68z"/>
			<path class="st0" d="M384.74,457.96c-0.15,0-0.23-0.01-0.23-0.05c0-0.66-0.08-1.28-0.25-1.84c-0.17-0.57-0.43-1.06-0.77-1.48
				c-0.35-0.42-0.79-0.74-1.34-0.97s-1.2-0.35-1.95-0.35h-0.09c-0.09,0-0.14,0.03-0.14,0.09v15.05c0,0.06,0.05,0.09,0.14,0.09h1.82
				c0.02,0,0.02,0.03,0.02,0.09s0,0.13,0,0.2c0,0.07,0,0.13,0,0.18c0,0.05-0.01,0.08-0.02,0.08h-6.41c-0.02,0-0.03-0.03-0.03-0.08
				c-0.01-0.05-0.01-0.12-0.01-0.18c0-0.07,0-0.13,0.01-0.2c0.01-0.06,0.02-0.09,0.03-0.09h1.82c0.08,0,0.12-0.03,0.12-0.09v-15.05
				c0-0.06-0.04-0.09-0.12-0.09h-0.09c-0.77,0-1.42,0.12-1.94,0.35c-0.52,0.23-0.95,0.55-1.29,0.97c-0.34,0.42-0.58,0.91-0.73,1.48
				c-0.15,0.57-0.22,1.18-0.22,1.84c0,0.03-0.08,0.05-0.24,0.05c-0.16,0-0.24-0.01-0.24-0.05v-5.12c0-0.05,0.02-0.07,0.07-0.07
				h12.26c0.03,0,0.05,0.02,0.05,0.07v5.12C384.97,457.94,384.89,457.96,384.74,457.96z"/>
		</g>
	</g>
	<circle class="st1" cx="254.25" cy="90.65" r="24.37"/>
	<path class="st2" d="M250.29,27.01c-95.14,0-172.54,77.41-172.54,172.54c0,95.14,77.4,172.54,172.54,172.54
		s172.54-77.4,172.54-172.54C422.83,104.42,345.43,27.01,250.29,27.01z M250.29,41.8c80.83,0,147.64,61.1,156.7,139.54
		c-9.48,0.33-18.86,0.91-28.14,1.74c-4.67-6.47-9.6-13.24-15.03-20.65c-6.75-9.2-13.77-18.67-20.88-28.15
		c-1.26-1.67-2.53-3.34-3.81-5c-2.23-2.91-4.53-5.92-6.7-8.92c-0.74-1.03-1.47-2.08-2.2-3.13c-2.25-3.24-4.58-6.6-7.54-9.58
		c-1.14-1.15-2.43-2.23-3.84-3.19c-6.29-4.31-14.19-5.85-21.66-4.22c-4.11,0.89-7.66,2.5-10.55,4.78c-3.5,2.76-6.14,6.19-8.69,9.51
		c-0.4,0.52-0.79,1.03-1.19,1.55c-2.27,2.93-4.54,5.86-6.83,8.79l-1.03,1.33c-2.47,3.17-4.93,6.35-7.38,9.52
		c-1.17,1.49-2.31,3.02-3.41,4.51c-0.61,0.82-1.23,1.65-1.9,2.54c-0.18,0.24-0.36,0.47-0.54,0.71c-0.33,0.42-0.67,0.83-1.01,1.25
		c-0.15,0.18-0.29,0.37-0.44,0.55c-0.46-0.69-0.97-1.44-1.53-2.16l-0.94-1.22c-0.89-1.15-1.78-2.3-2.66-3.46l-0.21-0.27l-6.77-9.11
		l-0.16-0.22c-0.55-0.74-1.09-1.49-1.62-2.25l-1.21-1.72c-2.06-2.93-4.19-5.96-6.65-8.78l-1.22-1.64l-1.5-2.01
		c-0.02-0.03-0.04-0.06-0.07-0.09l-0.74-1l-0.02,0.02c-1.48-1.89-3.24-3.93-5.42-5.77c-5.12-4.33-11.51-6.72-17.99-6.72
		c-9.48,0-18.71,5.16-24.11,13.48c-1.78,2.39-40.76,54.21-56.59,75.25c-10.15-2.78-20.56-5.18-31.11-7.19
		C103.17,102.42,169.78,41.8,250.29,41.8z M329.29,184.27c1.61-2.67,2.46-5.74,2.46-8.87c0-9.51-7.73-17.24-17.25-17.24
		c-0.19,0-0.37,0-0.57,0.01c-0.3,0-0.6,0.02-0.82,0.04c-4.39,0.33-8.42,2.3-11.36,5.56l-19.89,26.06l-13.02,16.33
		c-17.33,5.95-34.13,12.97-50.39,21.02c-0.56-0.34-1.14-0.66-1.71-1c-2.8-1.62-5.65-3.24-8.52-4.82c-1.02-0.57-2.06-1.11-3.09-1.66
		l24.49-31.55l1.55-2.12c1.74-2.76,2.65-5.93,2.65-9.22c0-9.56-7.78-17.35-17.34-17.35c-8.83,0-13.38,6.17-17.39,11.6
		c-0.6,0.82-1.21,1.64-1.83,2.44c-1.1,1.42-2.21,2.84-3.32,4.26c-2,2.55-3.99,5.11-5.94,7.66c-4.9,6.28-9.79,12.57-14.67,18.86
		l-0.1,0.12c-12.46-5.28-25.28-9.94-38.25-13.88c-0.99-0.29-1.99-0.58-2.98-0.87c47.75-63.46,54.2-72.04,55.18-73.43l0.02,0.02
		c4.12-6.41,11.14-10.39,18.31-10.39c4.9,0,9.56,1.75,13.49,5.08c2.05,1.73,3.74,3.81,5.11,5.61l1.47,1.97l0.33,0.45
		c0.17,0.23,0.34,0.47,0.52,0.7c0.15,0.2,0.3,0.41,0.46,0.62l0.05,0.07l9.28,12.48l0.1,0.13c1.47,2.03,2.97,4.03,4.46,6.02
		c0.69,0.92,1.38,1.83,2.08,2.78l0.43,0.56l5.71,7.69c0.49,0.72,1.05,1.52,1.72,2.34c0.07,0.09,0.17,0.23,0.3,0.37l0.25,0.34
		l0.04-0.02c0.01,0.01,0.02,0.03,0.03,0.04l0.26,0.24c0.9,0.73,2,1.05,3.05,0.9c1.87-0.24,2.79-1.59,3.1-2.03l0.08-0.13
		c0.66-0.98,1.43-1.93,2.25-2.94c0.36-0.45,0.72-0.89,1.06-1.33c0.21-0.26,0.41-0.53,0.62-0.8l0.06-0.08
		c0.64-0.84,1.26-1.68,1.89-2.53c1.07-1.45,2.18-2.94,3.31-4.38c2.46-3.19,4.92-6.36,7.38-9.53l1.03-1.32
		c2.29-2.93,4.56-5.86,6.83-8.8c0.41-0.52,0.81-1.05,1.22-1.57c2.39-3.12,4.65-6.06,7.48-8.28c2.02-1.6,4.69-2.79,7.71-3.45
		c5.52-1.2,11.6-0.02,16.24,3.16c1.04,0.71,1.99,1.5,2.83,2.35c2.53,2.55,4.59,5.51,6.77,8.65c0.75,1.08,1.5,2.17,2.28,3.23
		c2.22,3.08,4.55,6.13,6.81,9.07c1.26,1.65,2.52,3.3,3.77,4.96c7.09,9.46,14.09,18.91,20.83,28.08c4.51,6.15,8.67,11.86,12.62,17.32
		c-15.92,1.68-31.52,4.09-46.79,7.24C326.64,187.72,329.26,184.32,329.29,184.27z M323.29,180.73l-0.09,0.14
		c-0.16,0.25-0.32,0.5-0.47,0.71c-0.11,0.15-0.24,0.32-0.39,0.49l-8.9,11.34c-11.03,2.55-21.88,5.48-32.54,8.8l6.46-8.09l19.67-25.8
		c1.73-1.85,4.07-2.97,6.69-3.17c0.11-0.01,0.71-0.03,0.78-0.02c5.67,0,10.28,4.61,10.28,10.27
		C324.78,177.29,324.27,179.13,323.29,180.73z M204.59,227.97c1.95,1.08,3.9,2.18,5.83,3.28c-0.41,0.21-0.82,0.42-1.22,0.63
		c-3.17,1.67-6.24,3.34-9.24,5.02c-17.81-11.5-36.59-21.31-55.87-29.72c-16.16-7.07-32.66-13.2-49.28-18.85
		c12.97,2.55,25.71,5.7,37.98,9.42c15.99,4.85,31.76,10.81,46.88,17.72C188.04,219.29,196.43,223.5,204.59,227.97z M179.83,207.27
		c4.55-5.86,9.11-11.72,13.69-17.59c1.95-2.56,3.93-5.09,5.91-7.62c1.11-1.43,2.23-2.86,3.34-4.28c0.65-0.84,1.29-1.71,1.93-2.58
		c3.47-4.7,6.47-8.77,11.78-8.77c5.72,0,10.37,4.66,10.37,10.38c0,2.11-0.62,4.13-1.81,5.86l-0.84,1.09l-25.34,32.64
		c-5.32-2.73-10.68-5.35-16.05-7.8C181.82,208.15,180.82,207.71,179.83,207.27z M92.84,189.95c16.62,6.76,33.03,13.98,48.94,22.11
		c17.23,8.79,33.82,18.69,49.46,29.86c-7.15,4.23-13.75,8.44-19.84,12.55c-12.28-12.05-25.58-22.97-39.6-32.71
		c-12.57-8.74-25.72-16.55-39.25-23.53C92.58,195.45,92.67,192.69,92.84,189.95z M92.57,202.13c12.29,7.58,24.12,15.85,35.3,24.87
		c12.62,10.18,24.4,21.31,35.13,33.31c-6.84,4.88-12.88,9.55-18.18,13.86c-7.17-12.08-15.1-23.77-24.1-34.6
		c-8.39-10.13-17.7-19.45-27.72-27.81C92.76,208.57,92.62,205.36,92.57,202.13z M93.91,220.36c7.17,7.73,13.75,15.95,19.63,24.62
		c8.14,11.95,15,24.68,21.06,37.82c-4.66,4.09-8.39,7.59-11.25,10.31C107.9,272.19,97.48,247.34,93.91,220.36z M128.02,299.12
		c22.93-21.7,48.29-40.35,75.78-55.82c-9.13,10.94-17.24,22.8-24.12,35.39c-8.6,15.73-15.24,32.65-19.53,50.25
		C148.11,320.53,137.29,310.48,128.02,299.12z M169.47,334.98c2.79-18.3,8.31-36.29,16.18-53.27c7.07-15.25,16.01-29.7,26.52-42.99
		c17.26-9.16,35.32-17.1,54.11-23.79c-13.77,19.83-25.53,41.16-35.01,63.56c-9.92,23.45-17.35,48.11-21.8,73.45
		C195.25,348.13,181.81,342.38,169.47,334.98z M284.24,315.94c-1.13,12.56-1.38,25.23-0.83,37.86c-10.68,2.29-21.76,3.51-33.12,3.51
		c-8.29,0-16.44-0.65-24.39-1.89c2.28-24.71,7.55-49.29,15.5-73.09c8.14-24.37,19.05-47.93,32.54-70.07
		c15.23-5.1,30.93-9.38,47.04-12.85c-12.48,23-22.73,47.45-29.29,73.16C288.07,286.75,285.56,301.27,284.24,315.94z M354.53,317.86
		c-15.7,13.84-34.16,24.62-54.44,31.39c-1.1-10.78-1.58-21.63-1.35-32.5c0.28-13.94,1.69-27.89,4.22-41.7
		c4.83-26.55,13.84-52.43,25.47-77.17c17.08-3.38,34.6-5.86,52.55-7.4c-9.58,18.9-16.82,39.16-21.25,60.15
		C355.08,272.6,353.49,295.28,354.53,317.86z M369.77,302.45c-1.46-16.61-1.36-33.4,0.57-50.07c2.43-21.25,7.87-42.26,16.04-62.33
		c7.04-0.53,14.14-0.92,21.3-1.16c0.23,3.52,0.36,7.08,0.36,10.66C408.04,238.84,393.61,274.81,369.77,302.45z"/>
</g>
</svg>
