<?xml version="1.0" encoding="utf-8"?>
<!-- Generator: Adobe Illustrator 23.0.0, SVG Export Plug-In . SVG Version: 6.00 Build 0)  -->
<svg version="1.1" xmlns="http://www.w3.org/2000/svg" xmlns:xlink="http://www.w3.org/1999/xlink" x="0px" y="0px"
	 viewBox="0 0 750 500" style="enable-background:new 0 0 750 500;" xml:space="preserve">
<style type="text/css">
	.st0{fill:#FFFFFF;}
	.st1{fill:#B6C8E1;}
	.st2{fill:#E7E8EB;}
	.st3{fill:#CFCFCF;}
	.st4{fill:#FF6C5B;}
	.st5{font-family:'Poppins-Bold';}
	.st6{font-size:14.1723px;}
	.st7{fill:#73B6B0;}
	.st8{fill:#FF9F3E;}
	.st9{fill:#C9CDD8;}
	.st10{fill:#F28551;}
	.st11{fill:#2872E0;}
	.st12{clip-path:url(#SVGID_2_);fill:#F28551;}
	.st13{clip-path:url(#SVGID_2_);fill:#FEC4AD;}
	.st14{clip-path:url(#SVGID_2_);fill:#157C69;}
	.st15{clip-path:url(#SVGID_2_);fill:#613531;}
	.st16{clip-path:url(#SVGID_2_);}
	.st17{fill:#33A18F;}
	.st18{clip-path:url(#SVGID_2_);fill:#33A18F;}
	.st19{fill:#97A3CC;}
	.st20{fill:#CAD2EA;}
	.st21{fill:#FEC4AD;}
	.st22{clip-path:url(#SVGID_4_);fill:#2872E0;}
	.st23{clip-path:url(#SVGID_4_);fill:#FEC1B2;}
	.st24{clip-path:url(#SVGID_4_);fill:#FCFBFF;}
	.st25{clip-path:url(#SVGID_4_);}
	.st26{fill:#BF2500;}
	.st27{fill:url(#SVGID_5_);}
	.st28{fill:url(#SVGID_6_);}
	.st29{fill:url(#SVGID_7_);}
	.st30{clip-path:url(#SVGID_4_);fill:#F28551;}
	.st31{clip-path:url(#SVGID_4_);fill:#C65C30;}
	.st32{fill:#AEB5C9;}
	.st33{fill:url(#SVGID_8_);}
	.st34{fill:url(#SVGID_9_);}
	.st35{clip-path:url(#SVGID_11_);fill:#73B6B0;}
	.st36{clip-path:url(#SVGID_11_);}
	.st37{fill:#C05141;}
	.st38{fill:#FFD0C5;}
	.st39{fill:#FF7554;}
	.st40{fill:#7A3E3A;}
	.st41{fill:#562715;}
	.st42{fill:#E8B09E;}
	.st43{fill:#FF8D6F;}
	.st44{opacity:0.39;fill:#7385C9;}
</style>
<g id="BACKGROUND">
	<path class="st0" d="M559.55,143.21c72.3,11.3,140.96,40.27,142.43,138.76c1.47,98.48-127.74,175.22-287.79,187.56
		S67.87,472.88,48.58,286.5C33.9,144.66,102.85,46.11,221.84,36.52c82.23-6.62,135.09,42.09,202.63,70.49
		C492.01,135.41,517.07,136.58,559.55,143.21z"/>
</g>
<g id="OBJECTS">
	<g>
		<g id="XMLID_21_">
			<g id="XMLID_24_">
				<path id="XMLID_29_" class="st1" d="M475.05,446.71l-173.99,1.16c-8.17,0.05-14.83-6.52-14.88-14.69l-1.69-337.16
					c-0.05-8.17,6.52-14.83,14.69-14.88l173.99-1.16c8.17-0.05,14.83,6.52,14.88,14.69l1.69,337.16
					C489.8,439.99,483.22,446.65,475.05,446.71z"/>
				<g id="XMLID_27_">
					<defs>
						<polygon id="XMLID_28_" points="294.08,412.11 292.67,116.5 480.15,115.25 481.56,410.86 						"/>
					</defs>
					<clipPath id="XMLID_4_">
						<use xlink:href="#XMLID_28_"  style="overflow:visible;"/>
					</clipPath>
				</g>
				<path id="XMLID_26_" class="st2" d="M393.44,428.88c0.03,4.17-3.33,7.57-7.5,7.6c-4.17,0.03-7.57-3.33-7.6-7.5
					c-0.03-4.17,3.33-7.57,7.5-7.6C390.01,421.35,393.42,424.71,393.44,428.88z"/>
				<path id="XMLID_25_" class="st3" d="M414.17,102.37l-56.93,0.38c-1.29,0.01-2.34-1.03-2.35-2.31l0,0
					c-0.01-1.29,1.03-2.34,2.31-2.35l56.93-0.38c1.29-0.01,2.34,1.03,2.35,2.32l0,0C416.49,101.31,415.46,102.36,414.17,102.37z"/>
			</g>
			<g id="XMLID_22_">
				<polygon id="XMLID_23_" class="st0" points="483.39,410.85 292.99,412.12 291.57,114.65 481.97,113.38 				"/>
			</g>
		</g>
		<g>
			<path class="st4" d="M340.05,165.44l96.89-0.84c5.65-0.04,10.2-4.65,10.17-10.3v0c-0.04-5.65-4.65-10.2-10.3-10.17l-96.89,0.84
				c-5.65,0.04-10.2,4.65-10.17,10.3l0,0C329.79,160.92,334.4,165.48,340.05,165.44z"/>
		</g>
		<text transform="matrix(1 0 0 1 350.9487 159.3651)" class="st0 st5 st6">FEEDBACK</text>
		<path class="st7" d="M327.31,219.59L327.31,219.59c-7.69,0-13.92-6.23-13.92-13.92v0c0-7.69,6.23-13.92,13.92-13.92l0,0
			c7.69,0,13.92,6.23,13.92,13.92v0C341.23,213.36,335,219.59,327.31,219.59z"/>
		<g>
			<polygon class="st8" points="355.6,202.34 357.04,205.26 360.26,205.73 357.93,207.99 358.48,211.2 355.6,209.69 352.73,211.2 
				353.28,207.99 350.95,205.73 354.16,205.26 			"/>
			<polygon class="st8" points="367.89,202.34 369.32,205.26 372.54,205.73 370.21,207.99 370.76,211.2 367.89,209.69 365.01,211.2 
				365.56,207.99 363.23,205.73 366.45,205.26 			"/>
			<polygon class="st8" points="380.17,202.34 381.61,205.26 384.82,205.73 382.5,207.99 383.05,211.2 380.17,209.69 377.29,211.2 
				377.84,207.99 375.52,205.73 378.73,205.26 			"/>
			<polygon class="st9" points="392.45,202.34 393.89,205.26 397.11,205.73 394.78,207.99 395.33,211.2 392.45,209.69 389.58,211.2 
				390.13,207.99 387.8,205.73 391.01,205.26 			"/>
			<polygon class="st9" points="404.74,202.34 406.17,205.26 409.39,205.73 407.06,207.99 407.61,211.2 404.74,209.69 401.86,211.2 
				402.41,207.99 400.08,205.73 403.3,205.26 			"/>
			<rect x="353.28" y="218.8" class="st9" width="4.9" height="4.85"/>
			<rect x="364.04" y="218.8" class="st9" width="74.83" height="4.85"/>
			<rect x="364.04" y="229.09" class="st9" width="89.74" height="4.85"/>
			<rect x="364.04" y="239.37" class="st9" width="62.56" height="4.85"/>
			<rect x="364.93" y="250.99" class="st8" width="32.51" height="3.4"/>
			<rect x="404.47" y="250.99" class="st8" width="44.27" height="3.4"/>
			<rect x="353.28" y="191.39" class="st9" width="64.35" height="7.21"/>
		</g>
		<path class="st10" d="M327.31,307.52L327.31,307.52c-7.69,0-13.92-6.23-13.92-13.92v0c0-7.69,6.23-13.92,13.92-13.92l0,0
			c7.69,0,13.92,6.23,13.92,13.92v0C341.23,301.29,335,307.52,327.31,307.52z"/>
		<g>
			<polygon class="st8" points="355.6,290.27 357.04,293.19 360.26,293.65 357.93,295.92 358.48,299.13 355.6,297.61 352.73,299.13 
				353.28,295.92 350.95,293.65 354.16,293.19 			"/>
			<polygon class="st8" points="367.89,290.27 369.32,293.19 372.54,293.65 370.21,295.92 370.76,299.13 367.89,297.61 
				365.01,299.13 365.56,295.92 363.23,293.65 366.45,293.19 			"/>
			<polygon class="st8" points="380.17,290.27 381.61,293.19 384.82,293.65 382.5,295.92 383.05,299.13 380.17,297.61 
				377.29,299.13 377.84,295.92 375.52,293.65 378.73,293.19 			"/>
			<polygon class="st8" points="392.45,290.27 393.89,293.19 397.11,293.65 394.78,295.92 395.33,299.13 392.45,297.61 
				389.58,299.13 390.13,295.92 387.8,293.65 391.01,293.19 			"/>
			<polygon class="st8" points="404.74,290.27 406.17,293.19 409.39,293.65 407.06,295.92 407.61,299.13 404.74,297.61 
				401.86,299.13 402.41,295.92 400.08,293.65 403.3,293.19 			"/>
			<rect x="353.28" y="306.73" class="st9" width="4.9" height="4.85"/>
			<rect x="364.04" y="306.73" class="st9" width="74.83" height="4.85"/>
			<rect x="364.04" y="317.02" class="st9" width="95.74" height="4.85"/>
			<rect x="353.28" y="279.32" class="st9" width="64.35" height="7.21"/>
		</g>
		<path class="st11" d="M327.31,374.93L327.31,374.93c-7.69,0-13.92-6.23-13.92-13.92l0,0c0-7.69,6.23-13.92,13.92-13.92l0,0
			c7.69,0,13.92,6.23,13.92,13.92l0,0C341.23,368.7,335,374.93,327.31,374.93z"/>
		<g>
			<polygon class="st8" points="355.6,357.68 357.04,360.6 360.26,361.06 357.93,363.33 358.48,366.53 355.6,365.02 352.73,366.53 
				353.28,363.33 350.95,361.06 354.16,360.6 			"/>
			<polygon class="st8" points="367.89,357.68 369.32,360.6 372.54,361.06 370.21,363.33 370.76,366.53 367.89,365.02 
				365.01,366.53 365.56,363.33 363.23,361.06 366.45,360.6 			"/>
			<polygon class="st8" points="380.17,357.68 381.61,360.6 384.82,361.06 382.5,363.33 383.05,366.53 380.17,365.02 377.29,366.53 
				377.84,363.33 375.52,361.06 378.73,360.6 			"/>
			<polygon class="st8" points="392.45,357.68 393.89,360.6 397.11,361.06 394.78,363.33 395.33,366.53 392.45,365.02 
				389.58,366.53 390.13,363.33 387.8,361.06 391.01,360.6 			"/>
			<polygon class="st9" points="404.74,357.68 406.17,360.6 409.39,361.06 407.06,363.33 407.61,366.53 404.74,365.02 
				401.86,366.53 402.41,363.33 400.08,361.06 403.3,360.6 			"/>
			<rect x="353.28" y="374.14" class="st9" width="4.9" height="4.85"/>
			<rect x="364.04" y="374.14" class="st9" width="74.83" height="4.85"/>
			<rect x="353.28" y="346.73" class="st9" width="64.35" height="7.21"/>
		</g>
	</g>
	<g>
		<defs>
			<path id="SVGID_1_" d="M283.88,140.19c-2.33,19.72-33.52,47.73-45.23,61.95c-15.1,18.33-37.96,30.01-63.56,30.01
				c-45.46,0-82.31-36.85-82.31-82.31s38.89-113.93,84.34-113.93c27.77,0,55.23,37.9,70.14,58.97
				C256.75,108.29,289.36,93.79,283.88,140.19z"/>
		</defs>
		<clipPath id="SVGID_2_">
			<use xlink:href="#SVGID_1_"  style="overflow:visible;"/>
		</clipPath>
		
			<ellipse transform="matrix(0.7071 -0.7071 0.7071 0.7071 -54.6711 167.6884)" class="st12" cx="175.08" cy="149.84" rx="82.31" ry="82.31"/>
		<path class="st13" d="M215.36,161.87c0,0,17,9.44,20.43,10.48c3.43,1.04,7.48,2.36,12.03,0c4.55-2.36,14.61-12.87,16.53-19.48
			l-9.63-5.13l-15.05,12.97l-17.73-8.73L215.36,161.87z"/>
		<path class="st14" d="M186.56,128.97l19.42-7.75c0,0,5.77,3.02,10.65,12.14c4.88,9.12,13.64,18.69,13.64,18.69l-16,18.67
			c0,0-11.17-11.38-16.58-21.03C192.28,140.04,186.56,128.97,186.56,128.97z"/>
		<path class="st13" d="M201.69,65.16c1.05,5.2,1.5,17.27,0.85,22.29c-0.91,6.96-4.12,12.83-8.78,15.72
			c-4.67,2.88-13.7-1.52-18.12-5.58c-4.42-4.06-5.17-10.45-6.59-16.31c-1.42-5.86-0.47-12.32-0.47-12.32s-2.76-9.65,2.04-13.77
			C188.99,39.41,200.64,59.96,201.69,65.16z"/>
		<path class="st15" d="M202.38,61.83c-3.75-1.43-9.77-2.24-19.99-0.18c-5,1.01-10.33-2.37-10.33-2.37
			c-0.04,1.5,2.82,7.36,3.17,8.89c0.56,2.46-1.62,5.29-1.38,7.31c0.38,3.28-3.16,4.74-3.16,4.74s1.13,1.98-0.09,3.55
			c-1.22,1.57-2.36,12.57-2.36,12.57s-5.63-8.94-6.19-10.44c-0.57-1.5-5.79-3.85-8.78-8.55c-2.99-4.7-4.75-25.55,8.02-27.42
			c0,0,11.23-12.47,30.36-3.42C199,49.97,202.38,61.83,202.38,61.83z"/>
		<path class="st13" d="M172.01,78.36c-0.3-2.43-0.47-8.62-5.98-8.27c-5.5,0.35-3.16,8.47-1.07,10.12c2.1,1.65,5,5.42,5,5.42
			S172.46,82,172.01,78.36z"/>
		<path class="st13" d="M169.64,83.5c0,0-1.25,9.63-2.27,14.53c-1.02,4.9-2.73,6.59-3.92,7.77c-1.19,1.18-14.65,10.3-14.65,10.3
			s29.37,54.74,37.85,26.23c2.68-9,13.62-23.87,13.62-23.87s-10.24-8.02-11.77-12.08c-1.53-4.05-2.38-15.79-2.38-15.79L169.64,83.5z
			"/>
		<g class="st16">
			<path class="st17" d="M184.56,241.36c14.74-0.59,35.52-7.27,34.14-8.64c-3.07-3.07-6.83-48.63-6.93-57.42
				c-0.29-24.75-5.79-54.08-5.79-54.08l-14.15-10.31c0,0-0.63,9.85-11.65,10.74c-24.11,1.94-23.18-11.17-23.18-11.17
				s-19.19,6.45-25.23,11.43c-8.16,6.72-4.42,14.73,0.37,47.23c1.97,13.41,1.68,29.69,3.18,42.01c1.21,9.96-0.79,34.78,6.55,34.18
				C154.11,240.5,170.93,240.89,184.56,241.36z"/>
		</g>
		<path class="st13" d="M137.41,155c0,0,16.95,13.85,23.9,18.15c10.01,6.2,11.36,8.34,15.93,7.08c4.57-1.26,52.74-41.12,52.74-41.12
			l-2.4-9.06c0,0-20.16,13.39-34.02,20.76c-7.96,4.24-18.17,9.77-18.17,9.77l-17.89-15.3L137.41,155z"/>
		<path class="st18" d="M172.91,155.16c0,0-24.58-24.09-27.72-27.01c-16.25-15.1-23.67-0.47-15.58,19.11
			c2.55,6.16,13.37,20.62,24.75,27.04C161.5,171.87,169.19,159.9,172.91,155.16z"/>
		<path class="st14" d="M172.91,155.16c0,0-24.58-24.09-27.72-27.01c-16.25-15.1-23.67-0.47-15.58,19.11
			c2.55,6.16,13.37,20.62,24.75,27.04C161.5,171.87,169.19,159.9,172.91,155.16z"/>
		<g class="st16">
			<path id="XMLID_11_" class="st19" d="M212.72,170.14l27.49,7.94c2.82,0.8,6.1-0.65,7.33-3.24l26.77-57.2
				c1.22-2.57-0.04-5.3-2.84-6.11l-27.25-8.05c-4.96-0.49-7.44,0.48-8.7,3.11l-26.83,56.76
				C207.43,166.01,207.91,167.88,212.72,170.14z"/>
			<path id="XMLID_9_" class="st20" d="M214.27,170.72l27.62,7.99c2.84,0.81,6.14-0.65,7.37-3.24l26.87-57.45
				c1.23-2.57-0.05-5.32-2.86-6.13l-27.39-8.07c-2.95-0.86-6.38,0.6-7.64,3.25l-27.06,57.29
				C209.91,167.01,211.29,169.87,214.27,170.72z"/>
		</g>
		<g class="st16">
			<path class="st21" d="M260.99,153.45c0.5-1.15,0.99-2.28,1.47-3.37c-1.83-0.79-4.35-2.18-5.77-2.83
				c-3.06-1.4-5.39-1.61-5.39-1.61l-0.77,2.84c0,0,2.88,0.66,5.38,2.02C257.43,151.34,259.56,152.6,260.99,153.45z"/>
			<path class="st21" d="M262.62,149.69c0.55-1.26,1.05-2.42,1.48-3.42c-3.42-2.12-8.28-4.26-8.28-4.26l-1.66,2.32
				c0,0,4.03,2.19,5.54,3.31C260.46,148.19,261.64,149.01,262.62,149.69z"/>
			<path class="st21" d="M259.38,157.13c0.46-1.06,0.95-2.17,1.44-3.29c-2.02-0.65-5.27-1.73-6.49-2.37
				c-1.82-0.95-2.77-1.31-2.77-1.31l-0.99,2.59c0,0,2.45,1.97,5.77,3.16C257.67,156.39,258.63,156.79,259.38,157.13z"/>
			<path class="st21" d="M259.17,157.62c-1.7-0.33-4.04-0.85-5-1.38c-1.58-0.89-2.22-0.92-2.22-0.92l-0.46,2.1
				c0,0,2.95,1.57,6.34,3.28C258.22,159.79,258.68,158.74,259.17,157.62z"/>
			<polygon class="st21" points="255.33,159.42 257.83,160.7 262.45,158 266.11,147.64 263.47,142.01 			"/>
		</g>
	</g>
	<g>
		<defs>
			<path id="SVGID_3_" d="M473.02,288.83l11.3,34.11c0,0,3,10.13,15.63,25.46c19.38,23.53,48.75,38.53,81.62,38.53
				c58.37,0,105.69-47.32,105.69-105.69c0-58.37-49.93-146.29-108.3-146.29c-35.66,0-70.92,48.66-90.06,75.72
				C476.72,227.9,415.45,169.27,473.02,288.83z"/>
		</defs>
		<clipPath id="SVGID_4_">
			<use xlink:href="#SVGID_3_"  style="overflow:visible;"/>
		</clipPath>
		
			<ellipse transform="matrix(0.7071 -0.7071 0.7071 0.7071 -28.53 493.6099)" class="st22" cx="581.57" cy="281.24" rx="105.69" ry="105.69"/>
		<path class="st23" d="M493.9,305.12l27.76-7.53c0,0,12.02-27.08,20.02-46.77c8-19.7,15.56-20.38,15.56-20.38
			c11.86,10.39,4.84,21.61,4.84,21.61l-22.07,61.11l-43.2,6.45C495.98,314.77,494.98,309.93,493.9,305.12z"/>
		<path class="st24" d="M556.58,267.28c-6.99-1.21-14.17-1.37-21.36-0.92c2.24-5.28,4.48-10.64,6.47-15.53
			c8-19.7,15.56-20.38,15.56-20.38c11.86,10.39,4.84,21.61,4.84,21.61L556.58,267.28z"/>
		<g class="st25">
			<path class="st4" d="M650.57,422.51c0,0,7.67-20.44,7.8-79.64c0.09-42.78,8.15-76.29,12.18-93.5c1.59-6.79-2.32-13.65-8.97-15.75
				l-4.95-1.56h-78.43c0,0-33.77,60.41-38.2,81.11c-4.43,20.7-10.62,105.55-10.62,105.55L650.57,422.51z"/>
			<path class="st26" d="M642.84,422.51c0,0,7.67-20.44,7.8-79.64c0.1-48.13,9.55-87.89,12.48-103.8c0.67-3.66-2.15-7.01-5.87-7.01
				h-86.77c0,0-33.77,60.41-38.2,81.11c-4.43,20.7-10.62,105.55-10.62,105.55L642.84,422.51z"/>
			
				<linearGradient id="SVGID_5_" gradientUnits="userSpaceOnUse" x1="599.7045" y1="498.3161" x2="685.9081" y2="392.3091" gradientTransform="matrix(-1 0 0 1 1198.7568 0)">
				<stop  offset="0" style="stop-color:#304260"/>
				<stop  offset="1" style="stop-color:#272438"/>
			</linearGradient>
			<path class="st27" d="M580.84,351.52l-36.41-3.32c0,0-51.74,22.86-57.42,32.79c-5.67,9.93-17.86,18.54,3.93,53.53
				c22.26,35.75,29.99,83.36,29.99,83.36l-3.34,4.69c3.75,1.48,7.54,2.81,11.37,4l4.68-4.49c0,0-3-32.38-6.87-54.46
				c-3.87-22.08-7.34-45.88-9.31-61.64c0,0,24.14-9.29,49.13-8.76C591.6,397.75,590.42,400.67,580.84,351.52z"/>
			
				<linearGradient id="SVGID_6_" gradientUnits="userSpaceOnUse" x1="720.0419" y1="465.1738" x2="588.4069" y2="316.0654" gradientTransform="matrix(-1 0 0 1 1198.7568 0)">
				<stop  offset="0" style="stop-color:#304260"/>
				<stop  offset="1" style="stop-color:#272438"/>
			</linearGradient>
			<path class="st28" d="M635.12,361.78L561,345.44c0,0-70.67,2.15-76.34,12.07c-5.67,9.93-6.59,18.41-14.4,45.08
				c-9.49,32.4-18.33,56.55-23.06,68.79c4.85,0.69,9.7,1.47,14.54,2.24c7.91-12.71,17.02-27.36,22.71-36.56
				c12.28-19.9,19.15-38.7,24.84-58.2c0,0,46.84,21.14,71.83,21.68C606.12,401.07,644.69,410.93,635.12,361.78z"/>
			
				<linearGradient id="SVGID_7_" gradientUnits="userSpaceOnUse" x1="550.482" y1="450.1386" x2="624.8346" y2="358.7052" gradientTransform="matrix(-1 0 0 1 1198.7568 0)">
				<stop  offset="0" style="stop-color:#304260"/>
				<stop  offset="1" style="stop-color:#272438"/>
			</linearGradient>
			<path class="st29" d="M542.39,393.45l-0.57-17.33c0,0-2.36-25.03,41.5-28.96c12.75-1.14,52.89,14.62,52.89,14.62
				s6.57,22.26-0.77,36.41c-7.34,14.16-47.08-4.99-75.96,1.78L542.39,393.45z"/>
		</g>
		<path class="st30" d="M594.19,152.89c-2.77-1.37-15.79-1.66-23.6,3.82c-14.94,10.48-5.93,36.2-4.6,42.18
			c1.33,5.97-3.58,17.16-3.06,24.36c0.52,7.19,2.39,9.7,8.18,16.35c1.72,1.97,2.34,5.44,2.34,5.44s5.42-9.25,5.95-21.7
			c0.53-12.46,3.34-9.73,8.72-23.7c5.38-13.97,4.43-34.47,4.43-34.47L594.19,152.89z"/>
		<path class="st31" d="M565.98,198.88c-0.14-0.65-0.38-1.54-0.67-2.61c-1.22-7.89-0.96-15.31,1.38-21.74
			c0.49-1.35,2.55-7.88,4.49-8.65c4.36-1.74,17.02-1.65,21.38-0.94l-0.03,0.21c0,0,0.95,20.5-4.43,34.47
			c-5.38,13.97-8.18,11.24-8.72,23.7c-0.53,12.46-5.95,21.7-5.95,21.7s-0.62-3.47-2.34-5.44c-5.79-6.65-7.66-9.16-8.18-16.35
			C562.4,216.04,567.31,204.85,565.98,198.88z"/>
		<path class="st30" d="M581.82,162.53l12.37-9.64c0,0,10.93-2.13,17.92,7.29c6.98,9.42,5.68,23.77,7.75,34.35
			c2.08,10.58,14.33,21.28,14.55,29.25c0.22,7.97-12.3,18.47-12.3,18.47l-33.25-12.09c0,0,2.82-17.27-1.8-35.23
			C582.44,176.99,581.82,162.53,581.82,162.53z"/>
		<path class="st23" d="M571.18,165.89c-0.43,4.07-2.85,16.11-2.71,23.73c0.14,7.62,1.79,20.09,7.04,23.24
			c5.24,3.15,14.53-0.17,21.28-3.44c6.75-3.28,8.13-8.23,9.21-12.77c1.08-4.54-0.1-16.36-2.19-24.75c-2.09-8.4-8.34-7.67-14.66-8.47
			C582.84,162.62,571.18,165.89,571.18,165.89z"/>
		<path class="st23" d="M601.14,192.48c0,0-0.64,18.99,3.86,27.65c3.11,5.97,14.37,7.91,14.37,7.91s1.43,16.97-8.73,34.03
			c-10.17,17.07-44.65,25.22-44.65,25.22s0.61-4.41-3.9-19.54c-4.51-15.13-1.93-37.31-1.93-37.31s7.44-2.79,11.86-4.76
			c10.73-4.79,8.41-22.17,8.41-22.17L601.14,192.48z"/>
		<path class="st24" d="M579.56,257.49c19.69,2.15,25.21-27.03,31.72-31.83l16.32,3.52c0,0,3.54,36.93,0.26,54.43
			c0,0-9.25,26.04,7.71,78.05c0,0-1.15,12.23-22.51,6.23c-18.39-5.16-22.46-10.66-38.48-13.72c-23.65-4.52-23.63-9.78-23.63-9.78
			c11.14-19.12,5.02-39.02,5.02-39.02s-14.67-12.45-9.53-26.38c7.42-20.11,10.81-48.54,10.81-48.54l14.78-4.76
			C572.02,225.68,555.06,254.82,579.56,257.49z"/>
		<path class="st30" d="M589.15,163.42c2.18,0.01,4.41,6.22,4.97,11.95c0.56,5.73,9.43,9.75,6.39,22.61
			c-3.04,12.86-1.8,25.03-6.06,39.19c-4.26,14.15,8.86,15.71,11.89,20.32c0,0-2.06-6.58,1.27-12.77c5.33-9.94,5.44-18.56,5.44-18.56
			s-3.08-23.52-3.04-32.26c0.04-8.74,0.79-22.13-6.62-29.66C595.99,156.7,589.15,163.42,589.15,163.42z"/>
		<path class="st30" d="M608.51,223.78c-2.59,1.88-0.11,12.95,1.37,22.18c0,0,11.94-10.31,17.71-16.79
			c3.82-4.29-13.17-18.3-13.17-18.3L608.51,223.78z"/>
		<path class="st23" d="M556.46,314.28c2.19-0.32,16.04,0.85,18.79,0.33c20.08-3.83,21.79-7.11,33.09-11.74
			c0,0,5.29-25.67,6.59-36.46c2.15-17.96,10.75-35.83,20.17-33.56c10.26,2.47,11.13,12.61,1.64,42.39
			c-3.38,10.61-10.31,40.47-13.47,42c-3.16,1.52-31.95,4.63-46.03,4.63l-35.71,2.45C546.02,321.31,551.15,317.27,556.46,314.28z"/>
		<path class="st24" d="M611.88,268.98c4.56-17.94,11.19-42.06,20.67-39.73c10.14,2.49,17.99,9.45,5.83,45.95
			C628.64,273.12,620.16,271.76,611.88,268.98z"/>
		<g class="st25">
			<path class="st20" d="M575.62,320.33h-21.98l-21.98-76.92h13.49c1.93,0,3.65,1.22,4.3,3.04L575.62,320.33z"/>
			<path class="st20" d="M569.31,320.33h-85.8l-24.05-71.62c-0.87-2.6,1.06-5.3,3.81-5.3h79.78c2.53,0,4.76,1.68,5.46,4.12
				L569.31,320.33z"/>
			<rect x="483.51" y="318.58" class="st32" width="98.42" height="5.74"/>
			<rect x="581.93" y="318.58" class="st20" width="49.21" height="5.74"/>
			<path class="st20" d="M522.19,285.61c2.48,5.89,0.74,12.25-3.9,14.2c-4.64,1.96-10.41-1.23-12.9-7.12
				c-2.48-5.89-0.74-12.25,3.9-14.2C513.93,276.53,519.7,279.72,522.19,285.61z"/>
		</g>
		<g class="st25">
			
				<linearGradient id="SVGID_8_" gradientUnits="userSpaceOnUse" x1="485.5116" y1="328.5056" x2="838.0936" y2="328.5056" gradientTransform="matrix(-1 0 0 1 1198.7568 0)">
				<stop  offset="0" style="stop-color:#E3E2E6"/>
				<stop  offset="0.4492" style="stop-color:#CFD3E4"/>
				<stop  offset="1" style="stop-color:#BBC3E2"/>
			</linearGradient>
			<rect x="360.66" y="322.94" class="st33" width="352.58" height="11.13"/>
			
				<linearGradient id="SVGID_9_" gradientUnits="userSpaceOnUse" x1="480.1937" y1="328.5056" x2="603.6463" y2="328.5056" gradientTransform="matrix(-1 0 0 1 1198.7568 0)">
				<stop  offset="0" style="stop-color:#E3E2E6"/>
				<stop  offset="0.4492" style="stop-color:#CFD3E4"/>
				<stop  offset="1" style="stop-color:#BBC3E2"/>
			</linearGradient>
			<rect x="595.11" y="322.94" class="st34" width="123.45" height="11.13"/>
		</g>
	</g>
	<g>
		<defs>
			<circle id="SVGID_10_" cx="178.46" cy="334.27" r="88.23"/>
		</defs>
		<clipPath id="SVGID_11_">
			<use xlink:href="#SVGID_10_"  style="overflow:visible;"/>
		</clipPath>
		
			<rect x="77.62" y="235.79" transform="matrix(-1 -1.224647e-16 1.224647e-16 -1 356.9226 673.26)" class="st35" width="201.68" height="201.68"/>
		<g class="st36">
			<path class="st37" d="M214.21,390.9c-0.28,4.7,1.81,14.59,6.81,13.74c5.01-0.85,6.71-10.28,5.73-19.48
				c-0.98-9.21-8.66-14.62-10.99-7.51C213.43,384.76,214.37,388.24,214.21,390.9z"/>
			<path class="st38" d="M217.98,394.94c0,0,8.29-7.94,12.72-12.11c6.96-6.54,15.52-14.23,15.52-14.23l-7.36-5.73
				c0,0-8.99,5.05-18.71,9.9c-6.09,3.04-8.43,7.22-8.5,13.22C211.57,392.32,215.93,395.67,217.98,394.94z"/>
			<path class="st39" d="M196.71,338.79c0.07-1.14,0.05-13.72,0.05-13.72s8.94,3.58,11.95,10.62c3.01,7.04,5.35,31.95,6.2,36.96
				c0.85,5.01,0.85,5.01,0.85,5.01l6.68-3.42c0,0-5.48,15.3-4.77,22.59c0.71,7.28,3.35,7.82,3.35,7.82s-14.21,1.83-16.27-2.11
				c-2.05-3.93-9.04-21.12-10.96-33.81C191.88,356.04,196.71,338.79,196.71,338.79z"/>
			<path class="st40" d="M196.59,314.59c-3.86,4.03-9.11,5.39-11.83,5.52c-1.56-6.72-3.89-6.08-9.05-16.2
				c-5.94-11.65-6.97-29.55-6.97-29.55l-2.54-10.52c2.28-1.44,13.57-2.87,20.85,1.18c13.93,7.75,8.43,30.92,7.81,36.23
				C194.57,303.77,195.41,311.06,196.59,314.59z"/>
			<path class="st41" d="M168.6,273.77c3.69,0.63,7.37,1.32,11.04,2.12c2.41,0.52,4.82,0.13,6.96-0.89
				c5.69,8.43,5.79,13.62,8.46,24.92c-0.08,0.52-0.15,0.98-0.19,1.35c-0.29,2.5,0.55,9.79,1.72,13.33
				c-3.42,4.88-11.46,8.93-15.59,5.52c-1.56-6.72-0.13-6.08-5.28-16.2c-5.94-11.65-6.97-29.55-6.97-29.55L168.6,273.77z"/>
			<path class="st40" d="M165.97,324.31c-12.35-3.16-17.29-3.57-18.32-17.65c-0.69-9.39-2.14-26.59,3.08-35.41
				c5.22-8.82,15.47-7.4,15.47-7.4l11.62,7.26c0,0,0.76,12.61-1.63,28.63C174.93,308.2,165.2,318.54,165.97,324.31z"/>
			<g>
				<path class="st21" d="M162.47,295.91c0,0,1.21,16.56-2.43,24.27c-2.51,5.32-10.15,8.1-10.15,8.1s-2.79,14.15,6.66,28.7
					c9.46,14.55,39.84,20.49,39.84,20.49s1.03-1.84,4.45-15.2c3.42-13.36-7.5-34.53-7.5-34.53s-0.4-2.27-4.32-3.84
					c-9.53-3.82-8.1-19.06-8.1-19.06L162.47,295.91z"/>
				<path class="st42" d="M186.04,322.07c-10.67,6.38-23.38,8.34-36.38,8.03c0.11-1.17,0.24-1.82,0.24-1.82s7.64-2.79,10.15-8.1
					c3.64-7.71,2.43-24.27,2.43-24.27l18.46,8.92C180.93,304.83,179.82,316.63,186.04,322.07z"/>
			</g>
			<path class="st21" d="M187.36,273.07c0.74,3.5,3.34,13.64,3.9,20.27c0.28,3.32-0.64,8.38-1.49,12.35
				c-0.85,3.98-2.75,7.08-4.89,8.69c-1.92,1.45-4.19,1.31-6.92,1.09c-3.33-0.27-5.52-1.04-8.91-2.27
				c-6.16-2.24-7.81-6.42-9.16-10.26c-1.35-3.85-1.39-14.22-0.34-21.7c1.05-7.48,5.64-10.68,11.05-11.94
				C176.02,268.02,187.36,273.07,187.36,273.07z"/>
			<path class="st21" d="M164.51,291.96c0,0-4.24-4.25-6.87-3.46c-2.64,0.79-2.63,4.8-0.45,7.99c2.18,3.19,9.78,4.71,9.78,4.71
				L164.51,291.96z"/>
			<path class="st40" d="M169.64,271.66c3.68,0.17,7.62,5.13,14.21,8.45c6.59,3.32,11.37,2.11,11.37,2.11l-3.31-12.06
				c0,0-8.81-4.88-14.82-4.07C171.08,266.9,169.64,271.66,169.64,271.66z"/>
			<path class="st40" d="M168.23,303.6c0.88,8.88,1.53,13.88,9.55,20.62c-7.19,1.27-17.71-0.24-21.19-3.44
				c0.06-6.47,0.02-15.71-0.43-19.87c-0.83-7.59-8.33-20.45,8.28-31.59c7.67-5.14,11.78,2.7,11.78,2.7
				C174.32,272.22,166.64,287.51,168.23,303.6z"/>
			<path class="st43" d="M214.79,431.52c-24.55,2.83-49.05,2.93-73.37,0.11c1.83-11.17,7.91-35.39,8.23-44.55
				c0.54-15.6-12.61-52.62-12.61-52.62l15.3-8.34c0,0,13.15,13.18,24.62,13.63c20.77,0.81,13.91-15.89,13.91-15.89l5.91,1.2
				c0,0,5.22,21.25,9.33,29.12c4.11,7.87,3.68,17.29,1.8,23.28C206.74,381.16,212.08,412.43,214.79,431.52z"/>
			<path class="st20" d="M239.4,377.36l-12.01,2c-1.12,0.19-1.84-0.64-1.61-1.84l5.55-28.54c0.23-1.2,1.33-2.33,2.45-2.52l12.01-2
				c1.12-0.19,4.13,0.93,3.89,2.14l-7.84,28.25C241.63,376.05,240.53,377.17,239.4,377.36z"/>
			<path class="st19" d="M241.67,378.31l-12.01,2c-1.12,0.19-1.84-0.64-1.61-1.84l5.55-28.54c0.23-1.2,1.33-2.33,2.45-2.52l12.01-2
				c1.12-0.19,1.84,0.64,1.61,1.84l-5.55,28.54C243.89,377,242.79,378.13,241.67,378.31z"/>
			<path class="st37" d="M172.58,405.21c0.86,2.58,3.16,7.81,6.8,7.45c3.64-0.36,3.4-9.14,2.79-14.89
				c-0.61-5.75-1.53-9.62-4.49-7.89C174.72,391.62,171.93,403.27,172.58,405.21z"/>
			<path class="st38" d="M162.75,397.39c3.58-2.46,14.93-7.5,14.93-7.5s20.08-3.27,26.28-6.07c3.92-1.77,13.19-8.65,16.87-13.01
				c3.69-4.36,6.92-5.79,10.25-7.3c3.33-1.52,6.09-3.07,6.58-1.71c0.49,1.36-1.29,2.4-2.87,3.45c-1.59,1.05-6.16,4.21-7.55,5.27
				c-1.4,1.06-0.74,2.82-0.74,2.82s2.1-0.07,4.57,0.08c2.47,0.15,8.38,0.11,8.86,1.67c0.48,1.55-3.22,2.86-5.87,2.51
				c-2.65-0.35-5.56,0.62-5.56,0.62s1.82,1.44,5.07,1.25c3.25-0.19,4.18,0.25,3.54,1.35c-0.64,1.11-3.56,2.27-3.56,2.27
				s1.24,1.6-0.54,2.64c-1.78,1.04-6.07,2.69-8.73,2.53c-2.66-0.16-9.64,5.15-14.01,4.89c-4.37-0.26-23.57,11.76-32.92,15.21
				c-9.35,3.45-23.6,5.85-23.6,5.85L162.75,397.39z"/>
			<path class="st39" d="M139.33,333.32c-6.92,2.58-7,11.76-6.57,21.65c0.67,15.32,8.24,51.73,11.32,57.63
				c3.08,5.9,8.78,3.84,14.93,3.06c6.14-0.78,20.38-2.99,20.38-2.99s-2.51-2.63-2.78-11.03c-0.27-8.4,1.08-11.75,1.08-11.75
				l-18.28,2.64c0,0-3.07-16.61-3.47-26.13C155.53,356.89,153.77,327.93,139.33,333.32z"/>
			<path class="st38" d="M250.74,350.18c-2.64,0.17-5.67,2.33-6.56,4.57c-0.89,2.23,0.25,2.3,1.4,2.18
				c1.15-0.12,2.29-0.06,2.29-0.06s-2.05,2.36-4.39,3.36c-2.35,1-3.77,2.45-2.72,4.03c1.05,1.59,1.45,1.23,3.02,0.56
				c0,0-2.2,1.78-1.17,3.74c1.03,1.97,3.62,0.02,3.62,0.02s-2.56,1.37-1.91,3.32c0.65,1.94,2.28,0.13,4.02-0.33
				c1.74-0.47,4.4-3.55,4.3-5.08c-0.1-1.53-0.2-3.06-0.2-3.06s0.47-1.5,0.58-3.4c0.11-1.9,0.11-1.9,0.11-1.9l-0.81-2.34
				C252.31,355.8,253.8,349.98,250.74,350.18z"/>
		</g>
	</g>
	<g>
		<path class="st44" d="M52.26,75.01h60.27c6.59,0,11.93,5.34,11.93,11.93v17.72c0,6.59-5.34,11.93-11.93,11.93H99.99
			c2.18,3.78,6.04,8.94,11.21,13.16c0.78,0.64,0.1,1.87-0.86,1.55c-5.21-1.74-20.57-6.14-27.94-14.71H52.26
			c-6.59,0-11.93-5.34-11.93-11.93V86.94C40.33,80.35,45.67,75.01,52.26,75.01z"/>
		<path class="st17" d="M58.55,70.34h60.27c6.59,0,11.93,5.34,11.93,11.93v17.72c0,6.59-5.34,11.93-11.93,11.93h-12.54
			c2.18,3.78,6.04,8.94,11.21,13.16c0.78,0.64,0.1,1.87-0.86,1.55c-5.21-1.74-20.57-6.14-27.94-14.71H58.55
			c-6.59,0-11.93-5.34-11.93-11.93V82.27C46.62,75.68,51.96,70.34,58.55,70.34z"/>
		<g>
			<path class="st0" d="M105.32,90.92c0,2.11,1.71,3.82,3.82,3.82c2.11,0,3.82-1.71,3.82-3.82s-1.71-3.82-3.82-3.82
				C107.03,87.1,105.32,88.81,105.32,90.92z"/>
			<path class="st0" d="M84.87,90.92c0,2.11,1.71,3.82,3.82,3.82c2.11,0,3.82-1.71,3.82-3.82s-1.71-3.82-3.82-3.82
				C86.58,87.1,84.87,88.81,84.87,90.92z"/>
			<path class="st0" d="M64.42,90.92c0,2.11,1.71,3.82,3.82,3.82c2.11,0,3.82-1.71,3.82-3.82s-1.71-3.82-3.82-3.82
				C66.13,87.1,64.42,88.81,64.42,90.92z"/>
		</g>
	</g>
	<g>
		<path class="st44" d="M49.75,279.71h61.49c6.72,0,12.17,5.45,12.17,12.17v18.08c0,6.72-5.45,12.17-12.17,12.17h-12.8
			c2.23,3.85,6.17,9.12,11.43,13.43c0.79,0.65,0.1,1.9-0.87,1.58c-5.31-1.77-20.98-6.26-28.51-15.01H49.75
			c-6.72,0-12.17-5.45-12.17-12.17v-18.08C37.58,285.16,43.03,279.71,49.75,279.71z"/>
		<path class="st39" d="M56.17,274.95h61.49c6.72,0,12.17,5.45,12.17,12.17v18.08c0,6.72-5.45,12.17-12.17,12.17h-12.8
			c2.23,3.85,6.17,9.12,11.43,13.43c0.79,0.65,0.1,1.9-0.87,1.58c-5.31-1.77-20.98-6.26-28.51-15.01H56.17
			c-6.72,0-12.17-5.45-12.17-12.17v-18.08C44,280.4,49.45,274.95,56.17,274.95z"/>
		<g>
			<circle class="st0" cx="107.78" cy="295.94" r="3.89"/>
			<circle class="st0" cx="86.92" cy="295.94" r="3.89"/>
			<circle class="st0" cx="66.06" cy="295.94" r="3.89"/>
		</g>
	</g>
	<g>
		<path class="st44" d="M709.81,113.72h-68.22c-7.46,0-13.5,6.05-13.5,13.5v20.06c0,7.46,6.05,13.5,13.5,13.5h14.2
			c-2.47,4.28-6.84,10.12-12.69,14.89c-0.88,0.72-0.11,2.11,0.97,1.75c5.9-1.97,23.28-6.95,31.63-16.65h34.11
			c7.46,0,13.5-6.05,13.5-13.5v-20.06C723.31,119.77,717.26,113.72,709.81,113.72z"/>
		<path class="st11" d="M702.68,108.44h-68.22c-7.46,0-13.5,6.05-13.5,13.5V142c0,7.46,6.05,13.5,13.5,13.5h14.2
			c-2.47,4.28-6.84,10.12-12.69,14.9c-0.88,0.72-0.11,2.11,0.97,1.75c5.9-1.97,23.28-6.95,31.63-16.65h34.11
			c7.46,0,13.5-6.05,13.5-13.5v-20.06C716.19,114.49,710.14,108.44,702.68,108.44z"/>
		<g>
			<circle class="st0" cx="645.43" cy="131.73" r="4.32"/>
			<path class="st0" d="M672.89,131.73c0,2.39-1.93,4.32-4.32,4.32c-2.39,0-4.32-1.93-4.32-4.32s1.93-4.32,4.32-4.32
				C670.96,127.41,672.89,129.35,672.89,131.73z"/>
			<circle class="st0" cx="691.72" cy="131.73" r="4.32"/>
		</g>
	</g>
</g>
</svg>
